<svg width="251" height="448" viewBox="0 0 251 448" fill="none" xmlns="http://www.w3.org/2000/svg">
    <g clip-path="url(#clip0_31_593)">
        <path
            d="M99.1085 209.294C98.9681 186.629 99.3191 160.555 97.8451 137.995C113.287 144.18 129.571 141.72 129.501 121.409C129.501 115.611 124.166 57.9459 120.973 56.1187C120.306 55.7321 119.007 55.5564 117.358 55.5564C118.586 51.5153 114.831 31.2747 107.988 25.7928C107.952 25.7577 102.793 21.9626 98.8628 20.065C98.7575 19.9947 98.6523 19.9596 98.547 19.9245L99.5647 11.5611C99.67 10.8583 99.1436 10.1907 98.4066 10.0852C97.7047 9.97983 97.0379 10.5069 96.9326 11.2449L95.9499 19.1162C94.8971 18.9757 94.125 19.3271 93.5635 20.2759C93.002 21.2246 94.2654 22.4194 95.4586 23.2628L95.4235 23.6844C94.0197 23.0871 93.1423 23.4385 92.7563 24.2467C91.3876 22.9465 90.0891 22.2437 88.9309 23.1222C85.4565 24.5278 92.3 32.7857 91.7034 39.7434C91.6332 40.6922 92.1246 42.4492 92.8967 44.417L91.7385 53.9048C91.6332 54.6076 92.1597 55.2753 92.8967 55.3807C93.5986 55.4861 94.2654 54.959 94.3707 54.2211L95.0375 48.915C96.6869 52.0424 98.6172 54.7833 99.7753 55.1347V54.9942C99.9157 59.0704 99.9508 59.211 102.162 58.4379H102.197C99.4594 59.4218 97.4941 60.5463 97.2134 61.7059C97.1783 61.8114 97.2836 70.5964 97.2485 76.4647C97.2485 76.7459 97.2485 77.2027 97.2485 77.8352C97.2134 79.6976 97.2134 81.0681 97.1432 81.5249L91.5981 89.5017C89.2819 88.3421 86.1233 87.0419 83.5263 85.9877C82.6138 85.4606 81.1398 84.8281 79.3149 84.1253C73.9804 82.1223 65.6629 79.5922 59.7669 77.5892C59.6967 77.5541 58.7492 77.5541 57.2401 77.5541C56.2223 72.4939 55.3098 67.7852 55.3098 66.9418C55.3098 66.5904 69.6988 66.4498 69.5233 57.5243C69.2426 41.8518 64.3293 30.0448 58.2227 23.5439C65.7331 21.2246 67.3825 10.7529 59.6616 6.04414C56.7838 4.28714 52.6426 4.7791 48.8874 6.07928L52.046 2.88154C48.8523 2.6707 45.2726 5.76302 43.0266 8.82021C39.2363 10.6826 32.3226 12.1585 27.2338 15.9888C22.6363 19.4325 21.8993 26.3551 23.4786 31.6964C23.619 32.2235 23.8646 33.102 24.1805 34.2264C21.2676 35.9132 21.3027 37.5647 22.8469 41.4653C24.8473 46.5957 27.4443 54.7482 28.2866 56.0484C28.3217 56.1538 28.3919 56.2592 28.4972 56.3998C27.1636 55.3456 25.479 54.2211 24.8824 54.8536C22.4608 57.3134 24.3911 60.7572 26.8828 64.9388C28.778 68.1366 31.1995 71.3343 30.9539 77.8352C17.4422 82.4737 3.29893 89.8531 1.26341 95.2998C-1.15815 104.506 6.98391 218.009 6.98391 218.009C7.29977 218.009 7.65072 218.009 8.10695 218.009C9.72133 238.144 11.9323 278.028 14.1784 316.295C17.0211 364.613 19.8989 410.26 21.7589 410.014C22.4257 409.943 23.8997 409.908 25.83 409.908C26.0054 412.122 26.216 415.039 26.4266 417.569C24.8473 417.534 23.5839 417.499 22.8469 417.499C22.4257 419.993 22.6714 425.756 22.3907 430.325C21.3027 447.368 21.4431 446.524 22.2503 446.243C23.3733 445.892 29.1289 445.997 30.6731 445.927C34.8845 445.681 34.1124 436.65 38.7099 446.103C39.3767 447.508 78.3322 449.019 81.9821 447.473C83.2104 446.981 83.8421 446.419 84.0878 445.821C96.8273 445.892 120.13 444.802 123.008 443.502C123.008 443.502 121.815 436.369 113.708 436.053C98.0205 435.42 86.4392 430.044 81.0345 413.493L81.3153 414.406C80.6134 414.793 79.1745 415.074 77.3145 415.285C77.5601 412.86 77.876 409.943 78.1216 407.343L81.4206 407.167L93.3529 254.976L99.1085 209.294ZM54.0815 283.685C54.1166 283.404 54.1166 283.193 54.1517 282.983C54.1517 282.947 54.1517 282.947 54.1517 282.912C54.1517 282.807 54.1868 282.701 54.1868 282.631C54.1868 282.561 54.2219 282.491 54.2219 282.42V282.385C54.2219 282.315 54.2219 282.245 54.257 282.21C54.257 282.174 54.257 282.104 54.2921 282.069V282.034C54.2921 281.999 54.2921 281.964 54.3272 281.964C54.3272 281.964 54.3272 281.928 54.3272 281.893V281.858C54.3272 281.823 54.3272 281.823 54.3272 281.788C54.3272 281.788 54.3272 281.753 54.3272 281.718C54.3272 281.682 54.3272 281.647 54.3623 281.612C54.3623 281.577 54.3623 281.577 54.3623 281.542C54.3623 281.507 54.3623 281.472 54.3974 281.436C54.3974 281.401 54.3974 281.366 54.4325 281.331C54.4325 281.296 54.4325 281.261 54.4676 281.19C54.4676 281.155 54.4676 281.12 54.5027 281.085C54.5027 281.05 54.5377 280.98 54.5377 280.909C54.5377 280.874 54.5377 280.839 54.5728 280.804C54.5728 280.734 54.6079 280.699 54.6079 280.628C54.6079 280.593 54.643 280.523 54.643 280.488C54.643 280.417 54.6781 280.347 54.6781 280.277C54.6781 280.242 54.6781 280.171 54.7132 280.136C54.7132 280.066 54.7483 279.961 54.7483 279.89C54.7483 279.82 54.7834 279.785 54.7834 279.715C54.7834 279.609 54.8185 279.504 54.8185 279.433C54.8185 279.398 54.8185 279.363 54.8536 279.328C54.8887 279.047 54.9589 278.731 55.0291 278.379C55.0291 278.309 55.0642 278.239 55.0642 278.204C55.0993 278.098 55.0993 277.993 55.1344 277.887C55.1344 277.817 55.1695 277.747 55.1695 277.676C55.2046 277.571 55.2046 277.466 55.2396 277.325C55.2396 277.255 55.2747 277.22 55.2747 277.149C55.3098 277.009 55.3098 276.868 55.3449 276.728C55.3449 276.693 55.3449 276.622 55.38 276.587C55.4151 276.447 55.4151 276.306 55.4502 276.165C55.4502 276.095 55.4853 275.99 55.4853 275.919C55.5204 275.814 55.5204 275.673 55.5555 275.568C55.5555 275.498 55.5906 275.392 55.5906 275.322C55.6257 275.182 55.6257 275.076 55.6608 274.936C55.6608 274.865 55.6959 274.76 55.6959 274.69C55.731 274.549 55.731 274.444 55.7661 274.303C55.7661 274.233 55.8012 274.127 55.8012 274.057C55.8363 273.917 55.8363 273.741 55.8714 273.6C55.8714 273.53 55.9065 273.495 55.9065 273.425C55.9416 273.284 55.9416 273.179 55.9766 273.038C56.0819 272.37 56.1872 271.703 56.3276 271.035C56.3627 270.894 56.3627 270.754 56.3978 270.613C56.3978 270.543 56.4329 270.473 56.4329 270.402C56.468 270.262 56.468 270.121 56.5031 269.946C56.5382 269.805 56.5382 269.7 56.5733 269.559C56.6084 269.419 56.6084 269.313 56.6434 269.173C56.6785 268.997 56.6785 268.856 56.7136 268.681C56.7136 268.645 56.7136 268.575 56.7487 268.54C56.7838 268.364 56.8189 268.224 56.8189 268.048C56.8189 267.943 56.854 267.837 56.854 267.732C56.8891 267.591 56.8891 267.486 56.9242 267.345C56.9593 267.205 56.9593 267.099 56.9944 266.959C57.0295 266.818 57.0295 266.643 57.0646 266.502C57.0646 266.467 57.0646 266.467 57.0646 266.432C57.0997 266.221 57.1348 266.045 57.1699 265.834C57.205 265.694 57.205 265.553 57.2401 265.413C57.2401 265.342 57.2752 265.237 57.2752 265.167C57.3103 265.026 57.3103 264.921 57.3454 264.78C57.3454 264.675 57.3804 264.569 57.3804 264.464L54.1517 284.107C54.1517 283.967 54.1868 283.826 54.1868 283.685C54.0464 283.721 54.0464 283.721 54.0815 283.685ZM56.6084 430.149C52.9234 427.232 50.186 423.016 48.5365 415.671L48.7471 416.585C47.7995 417.042 45.3077 417.323 42.1843 417.428C42.2545 415.039 42.3598 412.087 42.4299 409.452C45.4481 409.241 47.5538 408.854 47.624 408.186C47.9048 405.34 50.0456 359.307 51.8354 323.64C51.8705 322.726 51.9407 321.847 51.9758 320.934C51.9758 320.793 51.9758 320.653 52.0109 320.512C52.046 320.126 52.046 319.774 52.0811 319.388C52.0811 319.212 52.0811 319.036 52.1162 318.896C52.1162 318.579 52.1513 318.263 52.1513 317.947C52.1513 317.842 52.1513 317.701 52.1864 317.596C52.2215 317.174 52.2215 316.752 52.2566 316.331C52.2566 316.295 52.2566 316.295 52.2566 316.26C52.2917 315.803 52.2917 315.382 52.3268 314.925C52.3268 314.89 52.3268 314.855 52.3268 314.819C52.3619 314.468 52.3619 314.117 52.3969 313.73C52.3969 313.59 52.3969 313.414 52.432 313.273C52.4671 312.922 52.4671 312.57 52.5022 312.219C52.5022 312.114 52.5022 312.043 52.5022 311.938C52.5373 311.551 52.5373 311.2 52.5724 310.814C52.5724 310.778 52.5724 310.708 52.5724 310.673C52.6075 310.251 52.6075 309.83 52.6426 309.408C52.6426 309.373 52.6426 309.338 52.6426 309.302C52.6777 308.916 52.6777 308.494 52.7128 308.108C52.7128 308.073 52.7128 308.037 52.7128 308.002C52.7479 307.159 52.783 306.351 52.8532 305.543C52.8532 305.472 52.8532 305.437 52.8532 305.367C52.9234 304.137 52.9936 302.942 53.0287 301.783L55.6257 408.362L61.4164 408.046C61.4164 410.295 61.4515 413.211 61.4515 415.706C59.2756 415.742 57.4857 415.777 56.3627 415.847C57.7665 420.099 56.6435 425.546 56.6084 430.149ZM117.323 55.5564C116.656 55.5564 115.954 55.5916 115.217 55.6618C116.235 55.5213 117.007 55.4861 117.323 55.5564ZM91.4227 89.5017L89.0011 92.9454C87.5271 90.0991 85.8075 87.7798 83.8421 86.1634C83.7719 86.1282 83.7018 86.058 83.5965 86.0228L91.4227 89.5017Z"
            fill="white" />
        <path
            d="M82.7198 3.75999C84.5798 5.51699 86.5451 6.60633 88.2999 7.69567L80.228 1.86243C81.316 2.70579 82.6145 3.65457 82.7198 3.75999Z"
            fill="white" />
        <path d="M88.2993 7.69568L90.8261 9.52296C90.0892 8.8553 89.2118 8.29306 88.2993 7.69568Z"
            fill="white" />
        <path
            d="M80.2277 1.86238C79.3854 1.22986 78.6484 0.702759 78.6133 0.702759L80.2277 1.86238Z"
            fill="white" />
        <path d="M78.5429 11.9476L75.1738 11.1042C76.0512 11.4205 77.2444 11.7016 78.5429 11.9476Z"
            fill="white" />
        <path d="M78.543 11.9476L86.3692 13.8803C84.7197 13.0721 81.3506 12.5099 78.543 11.9476Z"
            fill="white" />
        <path d="M79.2451 19.2567L82.7897 18.9053C81.6316 18.9053 80.4383 19.081 79.2451 19.2567Z"
            fill="white" />
        <path d="M79.245 19.2567L76.0864 19.573C77.0691 19.5378 78.157 19.3973 79.245 19.2567Z"
            fill="white" />
        <path
            d="M173.37 377.579C166.527 387.454 147.084 410.471 151.857 428.216C152.138 429.235 152.313 430.219 152.489 431.133C142.978 430.395 135.854 420.134 141.68 397.117C143.364 390.511 153.647 378.915 152.77 378.563C142.838 374.803 130.73 394.271 129.396 400.28C127.817 407.448 121.254 432.433 145.189 442.87C151.05 445.435 158.701 445.154 162.421 444.029C165.123 444.381 168.668 444.591 173.3 444.627C190.532 444.802 227.592 443.854 239.735 444.451C242.508 444.591 248.158 439.356 242.332 432.995C240.121 430.571 237.7 429.2 237.7 429.13C237.7 425.546 237.314 422.77 237.173 416.198C236.928 405.375 237.91 333.338 237.63 332.143C238.542 331.616 239.068 331.124 239.209 330.668C239.735 328.629 238.928 323.183 238.261 323.604C237.98 323.78 237.665 323.956 237.314 324.096C238.121 322.55 237.559 318.087 240.718 316.963C247.175 314.679 253.282 303.223 248.579 299.604C238.191 291.592 237.91 297.741 235.84 284.95C234.576 276.974 236.331 277.149 232.435 268.997C229.838 263.55 223.241 282.596 222.679 285.196C222.328 286.813 213.835 286.813 211.87 286.813C210.712 282.28 207.974 273.635 207.307 268.962C206.395 262.32 195.972 275.673 195.48 291.486C195.27 298.725 196.568 320.934 196.042 322.339C196.077 322.375 196.112 322.41 196.147 322.445C196.077 322.41 196.007 322.375 195.937 322.339C193.831 321.461 195.515 328.629 194.357 330.808C194.603 330.878 195.024 331.019 195.551 331.195C196.007 341.842 189.9 353.755 173.37 377.579ZM222.293 335.376C223.767 335.306 225.136 335.165 226.434 335.025C225.065 335.201 223.662 335.306 222.293 335.376Z"
            fill="white" />
        <path
            d="M26.2514 416.444C26.2865 416.444 26.3216 416.444 26.3567 416.444C26.5673 416.444 26.7778 416.444 27.0235 416.444C26.8831 414.441 26.7076 412.298 26.5672 410.506C26.3216 410.506 26.0759 410.506 25.8303 410.506C25.5846 410.506 25.3389 410.506 25.0933 410.506C25.1985 412.017 25.3389 413.809 25.4793 415.531C25.5144 415.812 25.5144 416.128 25.5495 416.409C25.7601 416.409 26.0057 416.409 26.2514 416.444Z"
            fill="#1E1E1E" />
        <path
            d="M42.9564 416.409C42.9564 415.988 42.9915 415.531 42.9915 415.109C43.0617 413.176 43.0968 411.56 43.1319 410.154C42.8862 410.189 42.6406 410.189 42.3949 410.225C42.1492 410.225 41.9036 410.26 41.6579 410.26C41.6228 411.946 41.5526 413.668 41.5175 415.039C41.5175 415.531 41.4824 415.988 41.4824 416.444C41.7281 416.444 41.9738 416.444 42.2194 416.409C42.4651 416.409 42.7108 416.409 42.9564 416.409Z"
            fill="#1E1E1E" />
        <path
            d="M60.5739 407.413C60.6441 406.605 60.6792 405.305 60.7143 403.653C61.0301 392.9 61.5565 365.737 61.4513 338.785C61.2758 300.728 59.9071 276.306 57.4855 267.451L54.713 284.388C54.5024 287.305 54.1515 293.173 53.6602 301.888L56.2221 407.659L60.5739 407.413Z"
            fill="#1E1E1E" />
        <path
            d="M6.21212 218.641H6.91402C7.0544 218.641 7.19478 218.641 7.33516 218.641C7.54573 218.641 7.8265 218.641 8.07216 218.641C8.31783 218.641 8.56349 218.641 8.80916 218.641C10.1428 235.192 11.7922 264.112 13.547 294.298C13.9681 301.536 14.3893 308.845 14.8104 316.119C16.495 344.864 19.9694 404.11 21.9698 409.1C22.6366 409.065 23.6544 409.03 24.9178 409.03C25.1635 409.03 25.4091 409.03 25.6548 409.03C25.9005 409.03 26.1461 409.03 26.3918 409.03C26.6375 409.03 26.848 409.03 27.0937 409.03L26.8129 408.011C26.5322 408.081 26.3918 408.292 26.3216 408.432C26.3216 408.467 26.2865 408.503 26.2865 408.538C26.2865 408.467 26.2865 408.362 26.3216 408.257C26.3216 407.975 26.3216 407.519 26.3216 406.921C26.3216 406.675 26.3216 406.429 26.2865 406.148C26.2865 405.902 26.2865 405.656 26.2514 405.375C25.8654 394.622 23.7948 358.955 21.7943 324.272C19.1271 278.484 16.3897 231.186 16.144 218.501C16.144 218.255 16.144 217.973 16.144 217.763H16.881H17.618C17.618 218.009 17.618 218.255 17.618 218.501C17.7233 223.455 18.2146 233.927 18.9516 247.456C22.6366 240.604 30.3224 223.385 30.9541 218.114C30.9892 217.833 30.9892 217.587 30.9892 217.376L31.7262 217.341L32.4632 217.306C32.4632 217.517 32.4632 217.763 32.4281 218.044C31.7613 224.439 21.8996 245.629 19.1271 250.091L19.092 250.162C20.2151 271.14 21.7943 298.62 23.3034 324.202C24.6019 346.34 25.7952 367.248 26.6375 382.885C27.0937 391.249 27.4095 397.398 27.585 401.65C27.6552 402.915 27.6903 404.04 27.7254 404.989C27.7254 405.27 27.7605 405.516 27.7605 405.762C27.7605 406.043 27.7605 406.289 27.7956 406.535C27.7956 406.675 27.7956 406.781 27.7956 406.921C27.8307 408.116 27.8307 408.749 27.7254 409.1C28.0062 409.1 28.322 409.1 28.6379 409.1C32.007 409.1 37.552 409.1 41.6581 408.854C41.9038 408.854 42.1495 408.819 42.3951 408.819C42.6408 408.819 42.8865 408.784 43.1321 408.749C44.9922 408.608 46.396 408.362 46.8171 408.046C47.0277 405.691 47.8349 388.297 48.8175 368.232C49.5194 354.071 50.2915 338.012 50.9934 323.675C51.4497 314.608 51.8006 307.51 52.1165 301.923L51.8708 292.189L53.2044 284.107C53.3448 282.526 53.415 281.963 53.4852 281.788C53.6256 281.225 54.9241 273.565 56.3279 265.026L58.5389 251.602L60.0129 251.848C59.5917 254.484 58.7845 259.403 57.9423 264.534C64.6103 278.274 62.8556 379.477 62.1888 403.548C62.1888 403.829 62.1888 404.075 62.1537 404.321C62.1537 404.602 62.1537 404.848 62.1186 405.094C62.0835 406.078 62.0484 406.851 62.0484 407.448L77.3148 406.64L78.0868 406.605L78.8238 406.57L80.6137 406.464L92.546 255.327C92.7566 255.608 93.0023 255.925 93.2128 256.206C93.4234 256.487 93.6691 256.803 93.8796 257.084C110.058 277.747 131.853 299.463 145.82 307.124C150.699 309.794 154.875 312.184 158.911 314.538C170.176 321.004 179.055 326.134 194.076 331.651L194.673 331.862V331.827C194.708 331.827 194.743 331.862 194.778 331.862C194.953 341.807 189.408 353.122 172.668 377.298C171.791 378.528 170.738 379.969 169.545 381.656C161.052 393.287 146.803 412.754 151.05 428.567C151.295 429.481 151.471 430.36 151.611 431.203C142.486 429.973 135.924 419.642 141.574 397.258C143.258 390.651 153.541 379.055 152.664 378.704C142.732 374.944 130.624 394.411 129.291 400.42C127.711 407.589 121.149 432.573 145.083 443.01C150.032 445.189 156.314 445.329 160.385 444.626C163.368 445.189 167.509 445.47 173.195 445.505C174.704 445.505 176.318 445.54 178.073 445.54C184.741 445.54 193.093 445.435 201.797 445.364C216.888 445.189 232.505 445.013 239.559 445.364C241.209 445.435 243.701 443.994 244.859 441.499C245.631 439.883 246.368 436.579 242.753 432.644C240.963 430.711 239.138 429.446 238.331 428.919C238.331 427.302 238.226 425.827 238.12 424.034C238.015 421.996 237.875 419.712 237.805 416.374C237.664 410.716 237.875 387.981 238.05 367.951C238.12 358.569 238.226 349.713 238.261 343.142C238.296 339.628 238.296 337.063 238.296 335.271C238.296 334.041 238.296 333.233 238.261 332.741C239.138 332.178 239.629 331.616 239.77 331.089C240.226 329.262 239.805 324.026 238.717 323.253C238.577 323.147 238.436 323.112 238.296 323.077C238.331 322.866 238.366 322.655 238.401 322.445C238.682 320.617 239.033 318.544 240.823 317.912C245.28 316.33 249.877 310.427 250.72 305.226C251.141 302.555 250.509 300.517 248.895 299.252C245.21 296.441 242.753 295.317 241.103 294.579C238.191 293.278 237.734 293.068 236.471 285.091C236.05 282.455 235.98 280.769 235.909 279.293C235.769 276.306 235.664 274.514 233.032 268.926C232.435 267.661 231.593 267.451 231.031 267.556C227.206 268.013 222.257 283.755 221.906 285.231C221.731 285.407 220.503 286.25 212.396 286.286C212.045 285.021 211.624 283.474 211.167 281.858C209.974 277.606 208.465 272.3 208.009 269.067C207.693 266.818 206.394 266.642 205.833 266.677C201.937 266.888 195.059 279.082 194.673 291.662C194.567 295.141 194.813 301.888 195.024 308.389C195.199 313.765 195.41 319.774 195.339 321.742C195.129 321.777 194.953 321.847 194.848 321.918C193.936 322.55 193.971 324.167 194.006 326.451C194.041 327.645 194.041 329.086 193.866 330.035C179.371 324.658 170.668 319.633 159.648 313.308C155.612 310.989 151.436 308.564 146.522 305.894C132.379 298.163 110.164 275.849 94.0551 255.011C93.8094 254.73 93.5989 254.414 93.3883 254.132C93.1777 253.851 92.9321 253.535 92.7215 253.254L95.6344 216.111C95.9151 216.111 96.1608 216.076 96.3714 216.076C96.6521 216.076 96.8978 216.041 97.1084 216.041C98.3367 216.006 99.0386 215.97 99.1088 215.97L99.8458 215.935V215.197C99.7756 208.732 99.7756 201.985 99.7405 194.886C99.7054 176.332 99.6703 156.795 98.5824 139.295C103.18 141.017 107.672 141.93 111.708 141.93C113.533 141.93 115.253 141.755 116.867 141.403C125.465 139.471 130.168 132.443 130.133 121.584C130.133 118.738 128.834 103.101 127.044 87.358C123.64 57.0322 121.885 56.0131 121.219 55.6617C120.552 55.2752 119.464 55.0995 118.095 55.0292C118.411 52.2531 117.674 46.701 116.27 41.2192C115.112 36.7564 112.515 28.7445 108.304 25.371C108.269 25.3359 103.215 21.611 99.2141 19.6081L100.162 11.7718C100.302 10.6474 99.4948 9.59316 98.3718 9.48774C97.8103 9.41746 97.2839 9.55802 96.8627 9.90942C96.4416 10.2608 96.1608 10.7528 96.0906 11.2799L95.3185 18.2727C94.371 18.343 93.5638 18.7647 92.9321 19.8189C92.3705 20.7677 92.8268 21.7516 93.634 22.595C93.2128 22.6652 92.897 22.8761 92.6513 23.0518C91.2826 21.9273 89.9139 21.4002 88.5452 22.349C86.1587 23.4032 87.3519 26.4252 88.6856 29.9744C89.8437 32.9964 91.1773 36.4401 90.8965 39.5676C90.8264 40.5867 91.2826 42.3788 92.0547 44.4169L90.8965 53.729C90.7562 54.8535 91.5634 55.9077 92.6864 56.0131C92.7566 56.0131 92.8619 56.0131 92.9321 56.0131C93.9498 56.0131 94.8623 55.24 94.9676 54.1858L95.3536 51.1638C96.582 53.2019 97.8454 54.8535 98.8982 55.486C98.9684 57.1376 99.0386 58.0864 99.3194 58.6838C97.5295 59.5623 96.5469 60.4759 96.3363 61.4598C96.3012 61.5652 96.3012 61.5652 96.3363 64.8333C96.3363 67.785 96.3714 72.6695 96.3714 76.3943C96.3714 76.6754 96.3714 77.1674 96.3714 77.7999C96.3714 79.5921 96.3363 80.9625 96.2661 81.3842L96.4416 81.4193C96.4767 82.7195 96.5118 84.1603 96.5469 85.7416C96.582 87.358 96.6521 89.2204 96.6872 91.1531C96.0906 91.0126 94.3008 90.1692 93.5638 89.7475C91.3879 88.4122 87.001 86.6201 83.7372 85.2496C80.9997 83.7034 74.2264 81.4896 67.6285 79.3461C64.856 78.4324 62.2239 77.5891 59.9076 76.7809C59.8023 76.7457 58.9951 76.7106 57.7668 76.7106C56.9596 72.7398 56.2226 68.9446 56.012 67.4336C56.1173 67.4336 56.2226 67.3985 56.3279 67.3985C59.8023 66.9417 70.3308 65.5712 70.1553 57.4187C69.9448 46.1036 67.2425 35.7022 62.5748 28.1471C61.5922 26.5306 60.5042 25.0548 59.3812 23.7897C62.6099 22.3841 64.8209 19.4324 65.242 15.8129C65.7685 11.5961 63.7681 7.66046 59.9427 5.30608C56.3981 3.1274 50.8882 4.07618 46.1503 6.21972C45.5888 6.71168 45.0975 7.27392 44.6061 7.80102C44.185 8.29298 43.7989 8.78494 43.4129 9.31204C42.8865 10.05 42.4653 10.7879 42.1144 11.4556C40.4298 14.8642 38.4996 17.5699 35.7622 20.1352C35.7271 20.2054 35.6218 20.3109 35.6218 20.346L34.3935 19.5378C34.6391 19.2215 34.6391 19.1864 34.7093 19.1161C37.3415 16.6212 39.1664 14.1262 40.7808 10.8231C40.851 10.6825 40.9212 10.5419 41.0264 10.3662C41.2019 10.0148 41.4125 9.66344 41.6231 9.31204C41.8687 8.9255 42.1144 8.53896 42.4302 8.15242C41.237 8.71466 39.7279 9.2769 38.0083 9.87428C34.4988 11.1393 30.147 12.6855 26.6726 15.2858C21.654 19.0458 21.0924 26.4955 22.6717 31.8016C22.8121 32.2233 22.9876 32.9261 23.1981 33.7695C20.4256 35.5616 20.4256 37.5295 22.04 41.6409C22.8823 43.7844 23.7948 46.4199 24.7072 48.95C25.4793 51.1638 26.111 52.9208 26.6024 54.1858C25.6548 53.729 24.8125 53.6587 24.251 54.1858C21.3732 57.1376 23.7948 61.2138 26.1461 65.1847C26.3567 65.5009 26.5322 65.8523 26.7427 66.1686C28.4624 68.9798 30.2172 71.8613 30.147 77.1674C17.3022 81.6302 2.70261 89.0096 0.491624 94.9131L0.456529 94.9834C-1.96503 104.225 5.82608 213.3 6.17703 217.938L6.21212 218.641ZM209.553 434.717C206.5 431.976 202.709 428.532 205.517 421.715C209.623 411.771 204.745 396.274 197.621 388.086C193.83 383.694 189.759 381.761 186.25 382.675L185.864 381.234C189.97 380.18 194.532 382.253 198.744 387.102C202.499 391.424 205.587 397.574 207.237 403.969C209.027 410.892 208.886 417.428 206.886 422.313C204.499 428.146 207.553 430.922 210.536 433.628C212.501 435.42 214.361 437.106 214.186 439.496L212.712 439.391C212.817 437.669 211.308 436.298 209.553 434.717ZM238.05 324.553C238.436 325.783 238.822 329.051 238.436 330.492C238.366 330.703 238.085 331.019 237.489 331.335L237.278 331.405C234.225 332.67 231.066 333.549 227.732 334.076C225.837 334.322 223.731 334.533 221.31 334.638C221.099 334.638 220.924 334.638 220.713 334.673C213.378 334.779 205.342 333.338 196.498 330.316C196.392 330.035 196.112 329.789 195.69 329.824C195.585 329.824 195.515 329.859 195.41 329.859C195.585 328.805 195.585 327.47 195.55 326.205C195.55 325.115 195.515 323.534 195.726 323.007C195.761 323.007 195.761 323.042 195.796 323.042C200.498 326.661 210.43 328.594 219.731 328.594C226.714 328.594 233.383 327.505 237.243 325.15C237.454 325.01 237.629 324.834 237.769 324.658C237.91 324.623 237.98 324.588 238.05 324.553ZM202.043 289.448C202.043 288.781 202.394 284.599 202.955 280.523C204.113 272.124 205.026 271.948 205.657 271.843L205.903 273.319C206.008 273.284 206.079 273.249 206.079 273.249C204.92 274.408 203.482 287.551 203.482 289.448H202.043ZM228.083 286.672C228.083 283.228 229.241 279.714 230.364 276.306C230.68 275.287 230.996 274.373 231.277 273.424L232.716 273.846C232.435 274.795 232.119 275.814 231.768 276.763C230.68 280.066 229.557 283.439 229.557 286.672H228.083ZM242.402 300.904C244.367 300.939 245.947 300.974 246.824 302.099C247.561 303.047 247.561 304.523 246.929 307.053C246.438 308.916 245.315 310.286 243.841 310.778C243.49 310.884 243.034 310.989 242.542 310.989C241.49 310.989 240.156 310.602 238.542 309.373L238.471 309.302C236.927 307.686 235.839 304.84 236.682 302.907C237.138 301.923 238.226 300.763 241.068 300.869C241.49 300.904 241.946 300.904 242.402 300.904ZM8.70387 217.13C8.42311 217.13 8.17745 217.13 7.96688 217.13C7.8265 217.13 7.72121 217.13 7.61592 217.13C7.51064 215.619 7.22988 211.824 6.87893 206.483C6.87893 206.377 6.87893 206.237 6.84383 206.096C6.84383 205.85 6.80874 205.604 6.80874 205.358C4.77322 175.665 0.0353877 102.784 1.89543 95.4051C3.5098 91.2234 14.1085 84.7576 27.3043 79.8029C27.3394 79.9786 27.4095 80.4003 27.6201 81.4193C27.6903 81.7356 27.7605 82.087 27.8307 82.5087C27.8658 82.6492 27.9009 82.7898 27.9009 82.9304C27.936 83.1412 28.0062 83.3872 28.0413 83.6332C28.6379 86.5498 29.5153 90.872 30.1821 94.2454C30.2172 94.6671 30.2873 95.1591 30.3224 95.6862C30.3575 95.9322 30.3926 96.2133 30.3926 96.4944C30.4277 96.7404 30.4628 97.0215 30.4628 97.3026C31.1998 104.612 32.5334 118.316 33.2002 126.223C29.4451 135.535 32.6387 148.256 38.6751 161.785C28.1816 156.83 16.6354 142.633 7.65102 114.029L6.21212 114.486C15.758 144.812 28.2869 159.254 39.5875 163.788C45.2028 175.911 52.9237 188.596 59.8725 200.017C60.6446 201.247 61.3816 202.477 62.0835 203.671C62.2239 203.917 62.3642 204.163 62.5397 204.409C62.6801 204.655 62.8205 204.901 62.996 205.147C65.2069 208.802 67.2425 212.21 69.0323 215.373C46.396 216.076 17.7233 216.989 8.70387 217.13ZM25.2687 55.3103C25.6899 55.3103 26.7076 55.9428 27.8307 56.8213C28.4273 57.2782 29.0239 57.8053 29.6205 58.3675L29.6907 58.4378L30.147 58.8595L30.2873 58.754L30.6734 58.4026C30.7085 58.3675 30.7787 58.2972 30.8489 58.2269C30.9892 58.0864 31.1647 57.9107 31.3753 57.6647C31.5859 57.4187 31.8315 57.1376 32.1474 56.8213C32.1825 56.7862 32.2176 56.7159 32.2878 56.6808C32.4983 56.4699 32.7089 56.224 32.9195 55.978C33.1651 55.6969 33.4108 55.4157 33.6916 55.1346C36.7448 51.8315 41.4125 46.8767 45.1326 44.2764C45.308 44.1709 45.4835 44.0304 45.659 43.925C45.7292 43.8898 45.7994 43.8547 45.8696 43.7844C46.1152 43.6087 46.3609 43.4681 46.5715 43.3627C48.1507 42.4842 48.9579 42.4139 49.344 42.5896C49.4844 42.6248 49.8353 42.8005 50.081 43.8195C50.2564 44.5575 49.9055 46.1739 49.73 46.947C49.5545 47.2281 49.3089 47.6147 49.0281 48.1066C48.607 48.7743 47.7296 50.215 46.8873 51.4098C46.6066 51.7963 46.3609 52.1477 46.1152 52.464C45.7994 52.8505 45.5537 53.1316 45.308 53.2722C45.2379 53.3073 45.1677 53.3425 45.0975 53.3776L45.2028 54.0453L45.3431 54.8535C45.5186 54.8184 45.6941 54.7481 45.8696 54.6427C46.1152 54.5021 46.396 54.2561 46.7118 53.975C47.6594 53.0262 48.7824 51.3044 50.2564 48.8797C50.3266 48.7391 50.4319 48.5986 50.5021 48.4932C50.6074 48.458 50.7127 48.4229 50.818 48.3877C51.0636 48.2823 51.4848 48.1418 51.7655 48.2823C52.0463 48.4229 52.292 48.8094 52.4674 49.4068C52.678 50.0745 52.3621 51.2692 52.1165 52.1126C51.9059 52.8857 51.7304 53.4479 51.8357 53.9047C51.5901 54.221 51.3444 54.6075 50.9934 55.2049C50.2213 56.4348 49.1685 58.1567 47.9402 59.0703L48.8175 60.2651C50.2915 59.1757 51.4497 57.3484 52.2569 55.978C52.5025 55.5914 52.7833 55.0995 52.9939 54.8184C53.2044 54.9238 53.3799 55.1346 53.5203 55.4157C54.0818 56.6105 53.8712 59.1054 52.0463 61.8464C48.3613 67.3985 48.8877 73.0912 49.7651 76.7809C49.8353 77.0268 49.8704 77.2728 49.9406 77.5188C50.0108 77.7648 50.081 78.0108 50.1512 78.2567C50.2564 78.6784 50.3968 79.0298 50.467 79.3812C50.5021 79.5218 50.5723 79.6623 50.6074 79.838V79.8732C49.3089 79.6975 46.8873 79.4515 43.4831 79.1001C41.3072 78.8541 38.7453 78.6081 36.5343 78.3622C34.6742 78.1513 33.0248 77.9756 32.0421 77.8351C31.8666 77.7999 31.6911 77.7999 31.5859 77.7648C31.5859 77.7648 31.5859 77.7648 31.5859 77.7296C31.5859 77.6594 31.5859 77.5891 31.5859 77.5539C31.5859 77.3782 31.5859 77.1674 31.5859 76.9917C31.5859 76.816 31.5859 76.6403 31.5859 76.4646C31.5508 75.2698 31.4455 74.1805 31.2349 73.1614C30.6032 69.8583 29.2345 67.6093 27.9711 65.5361C27.7605 65.2198 27.585 64.9035 27.3745 64.5521C24.8476 60.0894 23.4087 57.2782 25.2687 55.3103ZM28.8835 55.6617L28.8134 55.5212C28.3571 54.8535 27.2341 51.5855 26.111 48.458C25.1986 45.8928 24.2861 43.2573 23.4438 41.0786C22.2506 38.0566 21.9347 36.6158 23.6193 35.2805C23.7948 35.14 24.0404 34.9994 24.2861 34.8237C24.4967 34.6831 24.7072 34.5777 24.9529 34.4372C25.725 34.0155 26.7427 33.5938 27.9711 33.1018C28.8134 32.7504 29.7609 32.2936 30.7436 31.8016C32.0772 31.134 33.3055 30.5366 34.4286 30.1149C34.7444 30.0095 35.0252 29.9041 35.3059 29.7987C35.5867 29.6933 35.9026 29.623 36.1833 29.5878C36.6045 29.4824 37.0256 29.4473 37.4116 29.4473C38.4294 29.4473 39.2717 29.7987 39.9034 30.642C40.0438 30.8529 40.2192 31.0989 40.3947 31.38C40.5351 31.5908 40.6755 31.8368 40.7808 32.0828C40.8861 32.2936 41.0264 32.5396 41.1317 32.7856C42.5355 35.5616 44.0446 39.6379 44.922 42.5194C44.8869 42.5194 44.8869 42.5545 44.8518 42.5545C41.3423 44.8386 36.9554 49.3014 33.7618 52.7451C33.481 53.0262 33.2353 53.3073 32.9897 53.5885C32.7089 53.8696 32.4632 54.1507 32.2176 54.4318C31.8315 54.8535 31.4806 55.24 31.1647 55.5914C30.7436 56.0483 30.3926 56.4348 30.1119 56.7511C29.7258 56.3997 29.3047 56.0483 28.9186 55.6969C28.8835 55.6969 28.8835 55.6969 28.8835 55.6617ZM56.1173 65.9226C54.9943 66.0632 54.4328 66.1334 54.4328 66.8714C54.4328 67.6796 55.1698 71.5099 56.1875 76.7106C54.7837 76.7106 53.0991 76.7106 51.2742 76.7106C50.4319 73.2669 49.8002 67.8553 53.2746 62.6194C55.1698 59.7731 55.7664 56.6808 54.8539 54.7129C54.5029 53.975 53.9765 53.483 53.3097 53.2722C53.3448 53.0262 53.4501 52.71 53.5203 52.464C53.8361 51.3746 54.1871 50.0042 53.8712 48.9148C53.5554 47.8958 53.0641 47.2281 52.3972 46.9119C52.0112 46.7362 51.6252 46.701 51.2742 46.701C51.4848 45.6819 51.7304 44.3466 51.5199 43.433C51.2391 42.2382 50.6776 41.5003 49.8704 41.1489C48.9579 40.7975 47.7998 41.0083 46.2205 41.8166C45.2729 38.7945 43.6235 34.3669 42.0793 31.4854C42.4653 30.7826 42.7461 29.9041 42.9918 28.8499C44.0446 27.7957 53.5554 25.2656 57.837 24.3168C63.733 30.8529 68.3655 42.5896 68.6463 57.489C68.7866 64.271 59.2759 65.5009 56.1173 65.9226ZM59.4865 78.2567C61.8027 79.065 64.3998 79.9083 67.1372 80.7868C71.1731 82.087 75.56 83.5277 78.8238 84.7576C79.3152 85.0739 80.5786 85.601 82.9651 86.5849C83.0002 86.5849 83.0352 86.6201 83.0703 86.6201C83.1756 86.6903 83.2809 86.7606 83.3862 86.8309C89.9139 92.2776 94.1604 105.912 96.3363 128.542C96.582 131.248 96.8276 134.059 97.0031 136.905C97.0382 137.468 97.0733 138.03 97.1084 138.592C98.2314 156.197 98.2665 175.77 98.3016 194.816C98.3016 201.668 98.3367 208.134 98.3718 214.424C98.091 214.424 97.705 214.459 97.2839 214.459C97.0382 214.459 96.7925 214.459 96.5469 214.495C96.3012 214.495 96.0555 214.495 95.8099 214.53C91.072 214.705 81.7016 215.022 70.752 215.373C68.9972 212.21 66.9617 208.802 64.7507 205.147C64.6103 204.901 64.4699 204.655 64.2945 204.409C64.1541 204.163 64.0137 203.917 63.8382 203.671C62.9609 202.231 62.0835 200.79 61.171 199.279C60.9604 198.928 60.7499 198.576 60.5042 198.225C60.3638 196.819 61.6974 191.794 63.0661 186.488C66.4353 173.556 70.9976 155.951 67.4881 149.099C69.0674 144.039 69.4184 138.206 68.2251 132.232C68.0145 131.213 67.6285 128.929 67.067 125.801C65.8387 118.773 63.9786 108.126 62.0484 98.9542C61.522 96.389 61.0306 94.2103 60.5744 92.3479C59.8374 89.2907 59.2057 87.0769 58.6793 85.4604C58.0826 83.6332 57.5913 82.6492 57.2053 82.0519C56.749 81.3842 56.4332 81.2788 56.1875 81.2085C55.5909 80.9977 54.1169 80.6463 52.1867 80.2246C52.1165 79.9083 52.0112 79.5218 51.8708 78.9947C51.8006 78.7838 51.7304 78.573 51.6602 78.327C53.4852 78.327 55.1347 78.327 56.4683 78.327C56.749 78.327 56.9947 78.327 57.2404 78.327C57.5211 78.327 57.7668 78.327 58.0125 78.327C58.7845 78.2216 59.2759 78.2216 59.4865 78.2567ZM33.6214 132.091L35.0954 132.337C35.341 130.65 33.2353 109.075 32.2527 99.0948L32.6387 99.0596C32.6387 98.8136 32.5685 98.3568 32.4281 97.6892C32.3931 97.4432 32.358 97.1972 32.2878 96.9161C32.2527 96.6701 32.1825 96.4241 32.1474 96.143C31.5508 92.9101 30.4628 87.6391 29.4451 82.6141C29.3749 82.2978 29.3047 82.0167 29.2696 81.7356C29.1994 81.3491 29.1292 80.9977 29.059 80.6814C28.9537 80.2246 28.8835 79.838 28.8484 79.6623C28.8484 79.6272 28.8484 79.6272 28.8484 79.5921C28.8484 79.5569 28.8835 79.5218 28.9888 79.4515C29.2696 79.2758 29.6907 79.1352 30.2522 79.0298C30.3926 78.9947 30.5681 78.9947 30.7436 78.9595C30.8489 78.9947 30.9892 79.0298 31.1647 79.065C31.3753 79.1001 31.6561 79.1352 31.9368 79.1704C32.6387 79.2758 33.6214 79.3812 34.9199 79.5569C37.3415 79.838 40.5702 80.1894 43.4129 80.4706C47.0277 80.8571 50.7829 81.2436 51.3093 81.3491C51.3444 81.3491 51.3444 81.3491 51.3795 81.3491C53.415 81.7707 54.9943 82.1924 55.8366 82.4384C56.1524 82.6141 57.1351 83.8791 59.1706 92.2425C59.2759 92.629 59.3461 93.0155 59.4514 93.4372C59.5215 93.7535 59.5917 94.0697 59.6619 94.386C60.0129 95.897 60.3638 97.5837 60.785 99.4813C62.6801 108.547 64.505 118.984 65.7334 125.907C66.2949 129.069 66.6809 131.318 66.8915 132.372C69.8395 146.78 63.3118 160.344 52.0463 163.26C48.6421 164.139 44.8167 163.998 40.8159 162.522C35.3059 150.54 31.9719 139.19 33.6565 130.369C33.6214 131.283 33.6214 131.88 33.6214 132.091ZM47.6594 165.334C49.2738 165.334 50.8531 165.123 52.3621 164.736C58.9951 163.014 64.0839 157.884 66.8213 151.102C68.8568 158.411 64.6103 174.821 61.6974 185.996C60.5042 190.634 59.6619 193.902 59.311 196.011C53.1693 185.891 46.6417 174.962 41.6231 164.42C43.6586 165.053 45.6941 165.334 47.6594 165.334ZM92.3004 240.287L90.8965 240.779C90.2648 238.952 84.79 220.468 83.8424 216.322C83.7722 216.006 83.7371 215.76 83.702 215.619L84.439 215.549L85.176 215.478V215.514C85.176 215.654 85.2462 215.9 85.3164 216.252C86.3342 220.468 91.6335 238.39 92.3004 240.287ZM98.091 42.0625C97.6699 40.938 97.2839 39.8136 96.9329 38.8648C96.7223 38.2323 96.5118 37.67 96.3714 37.2132C96.3714 37.1429 96.3363 37.1078 96.3363 37.0375C96.1257 36.2644 95.9853 35.6319 95.8801 35.1399C95.5993 33.4532 95.9853 33.1721 96.0204 33.137C96.0204 33.137 96.0555 33.1018 96.1257 33.1018C96.1608 33.1018 96.1959 33.1018 96.2661 33.1018C96.4065 33.1018 96.582 33.137 96.8627 33.2073C97.0733 33.2775 97.2839 33.3478 97.5646 33.4884C97.7752 33.5938 98.0559 33.7344 98.3367 33.91C98.3718 33.9452 98.442 33.9803 98.4771 34.0155L98.442 34.0506C98.5122 34.0858 98.6175 34.1209 98.6877 34.1912C99.2141 34.5777 99.6703 34.9291 100.021 35.1751C100.653 35.6319 100.969 35.8428 101.179 35.9833C102.513 37.1429 103.741 38.4431 104.408 39.3216L105.601 38.408C104.549 37.0375 102.373 34.8237 100.337 33.4181C99.916 33.1018 99.5299 32.8559 99.1439 32.6099C98.7227 32.2585 98.2665 31.9071 97.8103 31.5205C97.5997 31.3448 97.354 31.134 97.1435 30.9231C96.8978 30.7123 96.6872 30.5366 96.4767 30.3258C96.1257 30.0095 95.7748 29.6581 95.4589 29.3418C95.2132 29.0959 95.0027 28.8499 94.7921 28.639C94.5464 28.3579 94.3359 28.0768 94.1253 27.8308C94.0551 27.7254 93.9498 27.5848 93.9147 27.4794C93.5638 26.9172 93.3532 26.3198 93.283 25.7927C93.1777 25.125 93.283 24.5277 93.5287 24.2465C93.5989 24.1763 93.6691 24.1411 93.7744 24.0708C94.02 23.9654 94.3359 24.0006 94.6166 24.0708C94.8272 24.106 95.0027 24.1763 95.1431 24.2465L95.3536 24.3168L95.7046 24.4574C95.845 24.5277 95.9502 24.5628 96.0555 24.5979C96.1257 24.6331 96.1959 24.6682 96.2661 24.6682C96.5469 24.8088 96.8276 24.9493 97.1435 25.0899C97.354 25.1953 97.5997 25.3359 97.8454 25.4764C98.091 25.617 98.3016 25.7576 98.5473 25.8981C100.688 27.1983 103.18 29.0607 104.759 30.888L105.882 29.9041C104.127 27.866 101.25 25.7224 98.7578 24.2817C98.5122 24.1411 98.3016 24.0006 98.0559 23.8951C97.9507 23.8249 97.8454 23.7897 97.7401 23.7194C97.6348 23.614 97.4944 23.5086 97.354 23.4383C97.3189 23.4032 97.2839 23.4032 97.2488 23.368C96.8978 23.1572 96.5469 22.9464 96.2661 22.7355C96.0204 22.5598 95.7748 22.3841 95.5642 22.2436C95.2834 22.0327 95.0729 21.8219 94.8974 21.6813C94.0551 20.8731 94.1955 20.5568 94.2306 20.5217C94.4412 20.1703 94.6868 19.854 95.1431 19.7486C95.3536 19.6783 95.5993 19.6783 95.9151 19.7135C96.1257 19.7486 96.3714 19.7838 96.6521 19.854C96.968 19.9595 97.3189 20.0649 97.7401 20.2406C97.9507 20.346 98.1963 20.4514 98.442 20.5568C98.4771 20.5568 98.5122 20.592 98.5473 20.592C98.7578 20.6974 98.9684 20.8028 99.179 20.9082C102.934 22.8409 107.497 26.2144 107.532 26.2495C113.954 31.4151 117.393 49.969 116.762 54.6778C116.376 54.6778 115.919 54.7129 115.358 54.7832C111.322 55.24 103.425 57.0322 101.881 57.5593C101.846 57.5593 101.846 57.5593 101.811 57.5944C101.53 57.6998 100.934 57.9107 100.688 57.9107C100.513 57.5593 100.478 56.1888 100.407 54.6427C100.337 53.0262 100.267 50.8475 100.021 47.8958C99.9862 47.2633 99.2492 45.2603 98.091 42.0625ZM92.4056 39.7082C92.6864 36.2293 91.2475 32.4693 90.0894 29.4473C88.8259 26.1792 88.124 24.1411 89.1769 23.7194L89.2471 23.6843L89.3173 23.614C89.9841 23.1221 90.8264 23.4735 91.8441 24.352C91.5634 25.4764 91.809 26.9523 92.6162 28.2525C92.897 28.7445 93.3181 29.2716 93.8796 29.8689L92.546 40.8326C92.4407 40.4109 92.3705 40.0244 92.4056 39.7082ZM95.7046 48.704L96.5118 42.1328C96.582 42.2734 96.6171 42.4139 96.6872 42.5545C97.4944 44.7683 98.5122 47.5444 98.5473 48.1066C98.7227 50.2853 98.7929 52.0774 98.8631 53.483C98.0559 52.6045 96.9329 50.953 95.7046 48.704ZM92.7917 91.0126C93.1075 91.1883 95.6695 92.5939 96.7223 92.6641C96.8627 98.3568 96.9329 104.12 96.6872 104.893L98.091 105.35C98.4771 104.155 98.3016 96.4241 98.0208 85.6713C97.9507 82.4384 97.8454 79.5218 97.8454 77.7999C97.8805 74.4968 97.8454 69.5069 97.8454 64.7981C97.8454 63.3222 97.8454 62.0572 97.8454 61.7409C97.9507 61.4598 98.442 60.7219 100.793 59.6677C101.25 59.4568 101.741 59.2811 102.232 59.1054C102.267 59.1054 102.267 59.1054 102.302 59.0703C104.057 58.4378 111.252 56.9268 114.972 56.3997C115.779 56.3294 116.551 56.2942 117.218 56.2942L117.814 56.4699L117.85 56.2942C119.078 56.3294 120.025 56.4348 120.517 56.7159C120.868 57.0673 122.587 60.1596 125.676 87.7797C127.431 103.276 128.694 118.597 128.694 121.338C128.729 131.564 124.553 137.889 116.586 139.681C111.462 140.841 105.11 139.998 98.5122 137.433C97.0382 115.435 93.8445 96.8809 86.7202 88.0959C89.1067 89.1501 91.423 90.1692 92.7917 91.0126Z"
            fill="#1E1E1E" />
        <path
            d="M113.638 435.947C97.9503 435.314 86.369 429.938 80.9643 413.387L81.2451 414.301C80.6134 414.617 79.4903 414.898 78.0163 415.074C78.0865 414.476 78.1567 413.844 78.2269 413.211C78.4375 411.138 78.6129 409.381 78.7533 407.905L78.0163 407.94L77.2442 407.976C77.0688 409.733 76.8933 411.56 76.7178 413.036C76.6476 413.809 76.5774 414.512 76.4721 415.214C72.366 415.601 66.5753 415.671 62.0832 415.741C62.0832 413.493 62.0481 410.927 62.0481 408.784L61.3111 408.819L60.5741 408.854C60.5741 410.295 60.5741 411.911 60.6092 413.492C60.6092 414.266 60.6092 415.004 60.6092 415.706C58.7842 415.741 57.24 415.777 56.2925 415.812C57.6261 419.607 56.8189 424.456 56.6434 428.743C59.9073 431.59 64.0134 433.171 68.7863 435.033C70.9271 435.877 73.1381 436.72 75.5246 437.774L75.9457 437.95C80.473 439.918 85.1055 442.307 85.0704 445.083C85.0704 445.259 85.0353 445.435 85.0003 445.61C97.9503 445.646 120.095 444.556 122.868 443.291C122.903 443.397 121.71 436.263 113.638 435.947Z"
            fill="#1E1E1E" />
        <path
            d="M23.4439 423.894C23.4088 426.038 23.4088 428.251 23.2684 430.289C22.7771 437.985 22.4612 443.221 22.4963 445.048C23.6193 444.908 25.5847 444.873 28.1115 444.873C29.1293 444.873 30.0417 444.873 30.498 444.837C31.5157 444.767 32.1475 443.924 32.9195 442.694C33.5513 441.675 34.2532 440.656 35.4464 440.726C36.6747 440.796 37.7276 442.026 39.3419 445.294C40.851 445.786 48.7474 446.454 60.048 446.84C73.1385 447.262 80.333 446.946 81.456 446.489C82.0175 446.243 82.4738 445.997 82.7545 445.751C82.9651 445.575 83.0704 445.4 83.0704 445.224C83.0704 444.662 82.2983 443.08 75.1389 439.953L74.7178 439.777C73.7351 439.356 72.7875 438.934 71.84 438.547C71.7347 438.512 71.5943 438.442 71.489 438.407C70.3309 437.95 69.2078 437.493 68.0848 437.071C63.8032 435.42 59.9076 433.909 56.6087 431.449C52.8535 428.673 49.9056 424.702 48.0455 417.92C46.8523 418.201 45.0624 418.377 42.8865 418.482C42.6409 418.482 42.3952 418.518 42.1495 418.518C41.9039 418.518 41.6582 418.553 41.4125 418.553C37.3766 418.693 32.2878 418.623 27.164 418.518C26.9183 418.518 26.6726 418.518 26.427 418.518C26.3919 418.518 26.3568 418.518 26.3217 418.518C26.1111 418.518 25.8654 418.518 25.6549 418.518C24.8828 418.518 24.1809 418.482 23.6194 418.482C23.479 419.747 23.479 421.786 23.4439 423.894Z"
            fill="#1E1E1E" />
        <path
            d="M26.0056 38.3026C25.9003 38.2675 25.8301 38.2675 25.7249 38.2675C25.5494 38.2675 25.409 38.3026 25.2686 38.3729C24.9528 38.5486 24.7422 38.8648 24.7422 39.2162C24.7422 39.4271 24.8124 39.6028 24.8826 39.7433C25.058 40.0245 25.3739 40.2002 25.7249 40.2002C25.7599 40.2002 25.7599 40.2002 25.795 40.2002C26.0758 40.165 26.3215 40.0596 26.4618 39.8488C26.6022 39.6731 26.7075 39.4622 26.7075 39.2162C26.7075 38.7946 26.3917 38.4432 26.0056 38.3026Z"
            fill="#1E1E1E" />
        <path
            d="M87.0711 7.83622C88.2643 8.57416 89.4224 9.27696 90.3349 10.0852L91.3527 8.99584C90.3349 8.0822 89.1417 7.34426 87.8783 6.57118C86.3341 5.6224 84.7548 4.67362 83.2457 3.23288C83.2106 3.19774 79.2098 0.14056 78.8588 0L78.5781 0.84336L78.2622 1.33532C78.543 1.51102 81.9472 4.0411 82.228 4.28708C83.8423 5.86838 85.562 6.92258 87.0711 7.83622Z"
            fill="#1E1E1E" />
        <path
            d="M86.0182 14.5479L86.685 13.2126C85.2461 12.5098 82.6491 11.9827 80.1573 11.4907C78.2973 11.1393 76.5425 10.7879 75.3844 10.4014L74.8931 11.807C76.1214 12.2286 77.9463 12.58 79.8415 12.9666C82.263 13.4585 84.7548 13.9154 86.0182 14.5479Z"
            fill="#1E1E1E" />
        <path
            d="M76.0864 18.7999V20.3109C77.1393 20.3109 78.2974 20.1352 79.4204 19.9946C80.5435 19.8189 81.7016 19.6784 82.7896 19.6784V18.1674C81.5963 18.1674 80.368 18.3431 79.2099 18.5188C78.0868 18.6593 77.0691 18.7999 76.0864 18.7999Z"
            fill="#1E1E1E" />
        <path
            d="M238.015 303.539C237.453 304.804 238.331 307.018 239.489 308.248C240.928 309.373 242.261 309.759 243.349 309.408C244.332 309.091 245.104 308.072 245.455 306.702C245.946 304.769 246.017 303.539 245.631 303.047C245.209 302.485 243.946 302.45 242.402 302.45C241.946 302.45 241.489 302.45 240.998 302.415C239.384 302.309 238.366 302.696 238.015 303.539Z"
            fill="#1E1E1E" />
    </g>
    <defs>
        <clipPath id="clip0_31_593">
            <rect width="251" height="448" fill="white" />
        </clipPath>
    </defs>
</svg>