<svg width="123" height="94" viewBox="0 0 123 94" fill="none" xmlns="http://www.w3.org/2000/svg">
<path d="M109.432 70.6987C108.547 71.3974 108.174 72.3756 107.988 73.4469C107.895 74.0524 107.336 74.1456 106.916 74.2387C106.544 74.3319 106.218 74.3319 105.938 74.658C105.799 74.7977 105.426 74.7977 105.286 74.7045C104.774 74.3785 104.215 74.1456 103.749 73.773C102.119 72.329 100.908 70.5124 99.7432 68.6958C98.5788 66.8327 97.3677 64.9695 96.4827 62.9666C96.2032 62.3145 96.2032 62.3611 96.9019 61.8487C97.4609 62.92 97.9732 63.9914 98.5788 65.0627C99.0446 65.9011 99.6501 66.6464 100.256 67.5314C100.395 67.2053 100.395 66.9724 100.162 66.6464C98.998 64.9695 97.8801 63.2461 96.9951 61.2432C97.1348 61.15 97.3211 61.0569 97.4609 60.9171C97.5074 60.9637 97.6006 61.0103 97.7403 61.15C97.7403 60.8706 97.7403 60.6842 97.7403 60.4514C98.1596 60.3582 98.5322 60.3116 99.0446 60.1719C99.4172 60.3582 99.6035 61.0103 100.256 61.1035C100.256 61.8021 100.815 62.1282 101.141 62.6406C101.513 63.2461 102.026 63.805 102.398 64.2708C102.817 64.2243 103.097 64.1777 103.423 64.1311C104.494 64.0379 104.494 64.0845 105.146 64.69C105.892 65.3422 106.404 66.2737 107.382 66.6929C107.429 66.7395 107.522 66.8327 107.522 66.8793C107.569 67.5779 107.941 67.8108 108.593 67.9972C109.152 68.1369 109.292 68.6958 109.339 69.2548C109.292 69.674 109.385 70.0932 109.432 70.6987Z" fill="#1E1E1E"/>
<path d="M13.3857 -9.60356C14.1775 -9.23093 14.1775 -9.23093 14.5502 -10.0228C15.0625 -10.2091 15.7146 -9.83646 16.1804 -10.3022C16.7394 -10.1625 17.2518 -9.97619 17.8107 -9.92961C18.6957 -9.78988 19.1615 -9.13777 19.6273 -8.57882C19.9533 -8.20619 20.326 -7.78698 20.6054 -7.36777C20.9781 -6.8554 21.3973 -6.43619 21.7699 -5.92382C22.096 -5.45803 22.3755 -4.99224 22.6549 -4.52645C22.7481 -4.38671 22.8412 -4.24697 22.8412 -4.10723C22.7947 -3.7346 22.9344 -3.50171 23.2139 -3.22223C23.7262 -2.70986 23.6797 -1.9646 23.866 -1.35907C24.0057 -0.753544 23.9126 -0.101436 23.866 0.550671C23.866 0.783566 23.8194 1.29593 23.307 0.923303C23.2605 0.876723 23.0741 1.10962 22.981 1.1562C22.8412 1.24936 22.6083 1.38909 22.5618 1.34251C22.0028 0.830143 21.8631 1.20278 21.6302 1.66857C21.2576 2.36725 21.0247 2.32067 19.9999 2.13436C19.3944 2.0412 18.7423 1.99462 18.3697 1.48225C17.3915 0.0383015 16.4133 -1.40565 16.2736 -3.22223C16.227 -3.9675 15.9941 -4.71276 15.3886 -5.27171C14.8762 -5.7375 14.5036 -6.38961 13.8049 -6.6225C13.572 -6.71566 13.4323 -6.94856 13.246 -7.13487C12.8733 -7.55408 12.687 -7.97329 12.687 -8.57882C12.687 -9.13777 13.1528 -9.27751 13.3857 -9.60356Z" fill="#1E1E1E"/>
<path d="M95.7373 38.5122C95.1318 37.9067 94.5729 37.2546 93.9673 36.7422C92.1973 35.2982 91.3589 33.2022 90.2876 31.2924C89.8218 30.4074 89.9615 29.4759 89.9615 28.4977C89.9615 28.358 90.1944 28.1716 90.3342 27.9853C90.5205 28.358 90.6602 28.684 90.9397 29.1498C90.9397 28.4511 90.9397 27.8922 90.9397 27.4264C91.3123 27.2401 91.685 27.1469 91.9179 26.914C92.2439 26.6345 92.57 26.6811 92.8494 26.7743C93.1755 26.8674 93.455 27.1469 93.781 27.3332C93.5947 28.2648 93.9673 29.0101 94.3866 29.8019C94.8058 29.7088 95.2716 29.9882 95.6442 29.569C95.7373 29.4759 96.0168 29.4759 96.11 29.569C97.0881 30.1745 98.2992 30.454 98.765 31.6651C98.8581 31.898 98.9513 32.1774 99.1376 32.2706C99.4171 32.4103 99.1842 32.8761 99.6034 32.8761C99.976 32.8761 99.7431 33.2953 99.7897 33.4817C99.8829 33.7611 99.976 33.994 100.023 34.2735C100.069 34.5064 100.023 34.7859 100.023 35.0188C99.0445 35.8572 98.4389 36.9285 97.9266 38.093C97.2745 38.2793 96.4826 38.3725 95.7373 38.5122Z" fill="#1E1E1E"/>
<path d="M10.2184 13.639C10.2184 14.5706 10.2184 15.4556 10.2184 16.3872C10.4513 15.6885 10.4047 14.9898 10.4513 14.2911C10.4513 14.0117 10.3115 13.6856 10.6842 13.4993C11.0102 13.313 11.3828 13.1732 11.7555 13.0801C11.8952 13.0801 12.1281 13.3596 12.2213 13.5459C12.3144 13.7788 12.2213 14.0117 12.2213 14.2911C12.4542 14.198 12.5473 14.1048 12.6871 14.1048C12.9199 14.1514 13.246 14.3377 13.3392 14.2446C13.9913 13.7788 14.7365 14.0582 15.3886 14.0582C15.7147 14.0582 16.1805 14.2446 16.3202 14.4774C16.6928 15.083 17.4381 15.2693 17.8107 16.0146C17.8107 16.3406 17.8573 16.7132 18.1834 17.1325C18.6026 17.6914 18.9752 18.3435 18.8355 19.1354C18.7889 19.508 18.8355 19.8806 18.8355 20.3464C17.9505 20.8588 17.0655 21.3711 16.2271 21.9301C15.3421 22.5356 14.5036 22.1164 13.7118 21.6972C13.1528 21.4177 12.4076 21.278 12.2213 20.4861C10.9636 19.9272 10.7307 18.5764 10.0786 17.5982C9.61283 16.9461 9.65941 16.1543 9.51968 15.4556C9.42652 14.8501 9.84573 14.198 10.032 13.5459C10.032 13.5924 10.1252 13.5924 10.2184 13.639Z" fill="#1E1E1E"/>
<path d="M34.7656 27.3802C34.2532 26.8678 33.6477 26.2623 33.0422 25.6568C33.0422 25.2376 32.9956 24.7252 33.0422 24.2594C33.0888 24.0731 33.3217 23.8868 33.508 23.7936C33.6011 23.747 33.7875 23.9334 33.9272 23.9799C34.1135 23.6073 34.2067 23.1415 34.8588 23.2347C34.9519 23.2347 35.1382 23.2812 35.2314 23.1881C35.5575 22.9552 35.8835 22.6757 36.2561 22.7689C36.9548 22.9552 37.7467 23.0949 38.3056 23.5607C39.4235 24.5389 40.4483 25.6102 41.0072 27.0076C41.3333 27.846 41.6127 28.731 41.799 29.5694C41.8456 29.942 41.7525 30.501 41.3333 30.7805C40.6346 31.2928 39.9359 31.8518 39.1906 32.3176C38.9577 32.5039 38.5851 32.5971 38.3056 32.5505C36.4425 32.4107 35.1382 31.5257 34.5793 29.4297C34.4861 29.1036 34.2998 28.8242 34.3464 28.5447C34.393 28.172 34.6259 27.7994 34.7656 27.3802Z" fill="#1E1E1E"/>
<path d="M37.9327 73.2601C37.8862 73.0272 37.8396 72.7477 37.793 72.5148C37.793 73.5396 36.7217 73.9122 36.4888 74.7506C36.3956 75.0767 35.9298 75.2164 35.7435 75.0301C35.4175 74.7506 35.2312 74.9369 35.0448 75.0767C34.5791 75.3561 34.2064 75.3561 33.7406 75.0767C32.3898 74.2848 30.9925 73.5396 30.2006 72.0956C29.2225 71.5832 28.943 70.5119 28.3375 69.7201C28.058 69.3474 27.9648 68.7885 27.7319 68.2761C28.1046 67.7638 28.6169 67.9035 29.2225 68.2296C29.1759 67.9501 29.1759 67.6706 29.0361 67.4843C28.8498 67.2514 29.0361 67.1582 29.1293 67.1117C29.5485 66.9253 30.0143 66.7856 30.3869 66.4595C30.4801 66.3664 30.713 66.413 30.8993 66.4595C31.1788 66.5527 31.4117 66.739 31.7377 66.4595C31.8309 66.3664 32.1104 66.5527 32.2967 66.5993C33.8338 67.2514 35.2312 68.0898 36.1162 69.6269C36.2559 69.8132 36.5354 70.0461 36.7217 70.2325C37.3272 70.7914 37.4204 71.5832 37.8862 72.1888C38.2122 72.5148 38.1191 72.8409 37.9327 73.2601Z" fill="#1E1E1E"/>
<path d="M115.068 14.0584C115.114 13.8255 115.114 13.5926 115.161 13.3131C115.254 13.3597 115.347 13.4062 115.347 13.4528C115.673 14.2447 116.092 14.9899 116.279 15.8749C116.418 16.4339 116.558 16.9463 116.046 17.3189C115.673 17.5984 116.046 18.4368 115.254 18.3902C114.881 18.9957 114.276 18.9492 113.717 18.9026C113.577 19.3218 113.484 19.6944 113.344 20.067C113.158 20.4397 112.552 20.5794 111.9 20.3931C111.761 20.3465 111.621 20.2068 111.481 20.2068C110.41 20.2999 110.41 20.2999 109.991 19.4615C109.758 19.0423 109.478 18.6697 109.338 18.2039C109.106 17.6915 108.779 17.3189 108.267 17.1326C107.475 16.8065 106.963 16.1078 106.823 15.2694C106.683 14.5241 107.056 13.8255 107.708 13.3131C108.034 13.7323 108.36 14.1515 108.826 14.757C108.826 14.1515 108.826 13.7323 108.826 13.3131C108.826 12.8939 108.873 12.987 109.525 12.7076C109.991 12.5212 110.643 12.7541 110.922 12.102C111.388 12.102 111.854 12.0555 112.319 12.0555C113.158 12.0089 113.903 12.102 114.322 13.0336C114.369 13.4062 114.742 13.6857 115.068 14.0584Z" fill="#1E1E1E"/>
<path d="M83.3472 78.617C82.6951 78.617 82.0896 78.4307 81.7635 79.1294C81.2046 78.4307 81.158 77.9183 81.717 77.3594C82.0896 76.9867 82.3225 76.4744 82.8349 76.1483C83.2541 75.8688 83.3938 75.2167 83.7664 74.7975C84.0459 74.4715 84.4651 74.2851 84.8378 74.0522C84.9309 74.1454 85.0707 74.2851 85.257 74.4715C85.0707 74.6112 84.8378 74.7509 84.6514 74.8907C84.6514 74.9372 84.698 74.9838 84.698 75.0304C84.9775 74.9838 85.257 74.9372 85.583 74.8907C85.6762 75.0304 85.7693 75.3565 86.0022 75.4496C87.3064 76.1017 88.1449 77.2662 88.8901 78.3841C89.1696 78.7567 89.2162 79.2691 89.4491 79.6883C89.9614 80.7131 90.1012 80.8994 89.9615 81.8775C89.8683 82.5762 89.7286 83.2749 89.1696 83.8338C88.9367 84.0667 88.7504 84.3462 88.7038 84.6723C88.6572 85.371 88.2846 85.5107 87.7257 85.4641C87.5859 85.4641 87.3996 85.4641 87.2599 85.5107C86.2817 85.7902 86.142 85.7436 85.6762 84.9983C84.9309 83.8804 84.6049 82.5762 84.1391 81.3186C83.813 80.4336 83.5801 79.502 83.3472 78.617Z" fill="#1E1E1E"/>
<path d="M67.1842 64.69C66.4856 64.2708 65.7869 63.9447 65.1814 63.3392C64.11 62.2679 62.9456 61.2431 61.9674 60.0787C60.9427 58.8676 59.8248 57.6565 59.2192 56.2592C59.2658 55.7002 60.0111 56.3058 60.0111 55.6536C60.0111 55.4673 60.4769 55.281 60.7563 55.0947C61.4085 54.6289 61.7345 54.5823 62.2003 55.0481C62.6661 55.5139 63.1785 55.7002 63.784 55.84C64.7156 56.0263 65.3677 56.7715 66.1595 57.1908C66.9979 57.6565 67.6035 58.4018 68.3022 59.0539C68.6748 59.38 69.094 59.6594 69.42 60.0321C69.7461 60.4047 70.0256 60.8705 70.1187 61.3363C70.1653 61.6158 69.979 62.035 69.7461 62.3144C69.4666 62.6405 69.3735 63.0597 68.9077 63.246C68.6282 63.3392 68.6748 63.6187 68.6282 63.8981C68.5816 64.1776 68.4885 64.5502 67.9761 64.1776C67.6035 63.8981 67.324 64.2708 67.1842 64.69Z" fill="#1E1E1E"/>
<path d="M118.328 57.3302C116.884 56.7247 116.279 55.6068 115.627 54.5355C115.068 53.6039 114.602 52.5791 114.183 51.601C113.763 50.5762 113.065 49.6447 113.391 48.3404C114.322 48.9925 114.229 50.2036 115.114 50.9954C114.974 49.6912 114.276 48.7131 113.95 47.3623C114.415 47.5952 114.602 47.6883 114.788 47.8281C114.835 47.5952 114.881 47.3623 114.928 47.1294C115.3 47.0362 115.673 46.9896 116.139 46.8965C116.279 47.0828 116.418 47.3623 116.605 47.6418C117.303 48.6665 117.35 48.6665 118.654 49.1323C118.794 49.1789 118.934 49.272 119.073 49.3652C120.098 50.0173 120.983 50.716 121.542 51.8339C121.728 52.2531 122.008 52.9983 122.008 53.4176C122.008 53.5107 122.101 53.6505 122.148 53.7436C122.334 53.9765 122.241 54.1628 122.054 54.256C121.495 54.582 121.216 55.2341 120.75 55.6068C120.517 55.7465 120.517 55.9794 120.471 56.2589C120.424 56.6315 119.725 57.0973 119.353 57.0041C119.167 56.9576 119.027 56.5849 118.747 56.8644C118.561 57.0041 118.468 57.1905 118.328 57.3302Z" fill="#1E1E1E"/>
<path d="M77.1988 27.7526C76.9659 27.7992 76.733 27.8458 76.4069 27.8924C76.5467 28.1253 76.6398 28.3116 76.733 28.4979C76.1275 29.1034 75.5219 29.7089 74.8698 30.3611C74.7767 30.3611 74.6369 30.3611 74.4972 30.3611C73.0532 30.6405 72.1217 29.8021 71.3298 28.8239C70.7243 28.0787 70.1653 27.2403 69.7461 26.3087C69.4667 25.7497 69.2803 25.1908 69.4201 24.4455C69.8393 25.3771 70.2585 26.2621 70.6311 27.1005C70.6777 27.1005 70.7709 27.0539 70.8174 27.0539C70.7709 26.9142 70.7709 26.7279 70.7243 26.5881C70.4448 25.9826 70.1653 25.3771 69.9325 24.7716C69.8393 24.4921 69.6064 24.166 70.1653 24.0263C70.3517 23.9797 70.4448 23.6071 70.5846 23.3742C70.7243 23.1879 70.8174 22.955 70.9106 22.8152C71.5161 22.7687 71.5161 23.281 71.8888 23.5139C71.7956 23.1879 71.7024 22.8618 71.6093 22.4426C71.7956 22.3029 72.0751 22.07 72.308 21.8837C72.4477 22.0234 72.6806 22.3029 72.8669 21.8371C73.0998 21.3247 73.3793 21.1384 73.8917 21.4645C73.9382 21.511 74.0314 21.511 74.078 21.511C74.6835 21.0452 75.0096 21.511 75.289 21.8837C75.9411 22.7687 76.2672 23.84 76.6398 24.8647C76.733 25.0976 76.9193 25.6566 76.2672 25.7031C76.2206 25.7031 76.2206 25.936 76.174 26.0292C76.3138 26.0758 76.5467 26.1689 76.5933 26.1224C76.9659 25.7497 77.1988 26.2155 77.1522 26.3087C76.9659 26.6813 77.4783 27.1937 77.1988 27.7526Z" fill="#1E1E1E"/>
<path d="M72.5876 0.643671C72.7273 0.783408 72.8671 0.923146 73.1 1.15604C73.1466 0.783409 73.1931 0.503934 73.1931 0.177881C73.7055 0.0847226 74.2645 -0.0550131 74.8234 -0.148171C75.1495 -0.19475 75.5221 -0.19475 75.8481 -0.148171C76.081 -0.101592 75.8947 0.364197 76.3605 0.410776C76.6866 0.457355 76.9195 0.969725 77.1058 1.29578C77.2921 1.57525 77.0126 2.22736 77.6647 2.18078C77.6647 2.59999 77.7113 3.0192 77.7113 3.43841C77.7113 3.48499 77.7113 3.53157 77.7113 3.57815C78.3168 4.18368 78.9689 4.83579 79.621 5.48789C79.8074 5.48789 80.0403 5.44131 80.2266 5.48789C80.5526 5.53447 80.8787 5.86052 80.7389 6.04684C80.3663 6.46605 81.0184 6.79211 80.7855 7.11816C79.8074 7.39763 79.4813 7.44421 78.6895 7.30448C78.8758 7.72369 79.0621 8.09632 79.295 8.60869C79.1553 8.74842 79.0155 9.0279 78.8292 9.0279C77.8045 9.0279 76.6866 9.30737 75.755 8.56211C75.5221 8.37579 75.196 8.18948 75.0097 7.95658C74.5439 7.39763 74.1713 6.79211 73.7521 6.18658C73.5658 5.9071 73.3795 5.58105 73.1931 5.30158C72.9137 4.83578 72.9602 4.18368 72.4479 3.85763C72.541 3.29868 72.215 2.87947 72.0287 2.41368C71.7026 1.62183 71.8889 1.0163 72.5876 0.643671Z" fill="#1E1E1E"/>
<path d="M31.3652 43.403C31.5515 43.6825 31.6912 43.9154 31.9707 44.3346C32.0173 43.9154 32.0638 43.7291 32.0638 43.5893C32.1104 43.077 32.1104 43.077 32.7625 43.0304C32.8557 43.0304 32.9488 43.0304 32.9954 42.9838C33.2749 42.518 33.7407 42.3783 34.2065 42.518C34.7188 42.6577 35.2778 42.8906 35.697 43.2167C37.2807 44.5209 38.2123 46.3375 38.911 48.2006C39.0507 48.5267 38.911 48.9459 38.911 49.272C38.7246 49.272 38.5849 49.2254 38.4452 49.2254C38.4917 49.6912 38.352 50.0172 37.8396 50.1104C37.6999 50.157 37.467 50.3899 37.467 50.5296C37.4204 51.0885 36.8615 50.8091 36.6752 51.0885C36.3491 50.5762 35.8367 51.1817 35.4641 50.8556C35.1381 50.5296 34.6723 50.2501 34.4394 49.8309C33.927 48.9459 33.4612 48.0143 33.1817 47.0828C33.042 46.5704 32.8091 46.2443 32.4365 46.058C31.8309 45.6854 31.3186 45.2196 31.0391 44.5675C30.713 44.0551 30.6665 44.0551 31.3652 43.403Z" fill="#1E1E1E"/>
<path d="M55.1668 28.6376C55.1668 28.4979 55.1202 28.3582 55.1668 28.1719C55.2134 28.0787 55.3531 27.9855 55.3997 27.8924C55.3997 27.7992 55.3066 27.6595 55.3066 27.5198C55.3066 27.4266 55.4463 27.2869 55.4463 27.1937C55.3997 27.054 55.26 26.9142 55.1668 26.8211C55.0737 26.7745 54.9339 26.7745 54.7942 26.7279C54.8873 27.0074 54.9339 27.2403 54.9805 27.4266C54.5147 27.1471 54.0489 26.9142 54.2352 26.2621C54.4216 26.3553 54.6079 26.4019 54.8408 26.495C54.9339 25.7032 54.1887 26.1224 53.9092 25.7497C54.3284 25.7963 54.6079 25.5169 55.0271 25.5634C55.2134 25.61 55.4929 25.1908 55.7723 24.9113C56.1916 25.2374 56.6573 25.61 57.1697 26.0758C57.2163 25.7497 57.2629 25.5169 57.3095 25.2374C57.915 25.0976 58.5671 25.0045 59.1726 24.8647C59.4987 25.284 59.7316 25.6566 60.0576 25.9826C60.3371 26.2621 60.7097 26.4484 60.9426 26.7279C61.6879 27.5198 62.0139 28.5911 62.2934 29.5692C62.3866 29.9419 62.5263 30.5008 61.8276 30.594C61.8276 31.2461 61.1289 31.3392 60.8029 31.805C60.3837 32.3174 59.685 32.4105 58.9397 32.1311C57.8218 31.6653 57.03 30.7803 56.3313 29.8953C55.9121 29.5692 55.4929 29.15 55.1668 28.6376Z" fill="#1E1E1E"/>
<path d="M76.0811 45.1268C76.2674 45.1733 76.5003 45.2665 76.7332 45.3597C76.7798 44.2883 75.6619 44.0089 75.5221 43.0307C75.755 43.1239 75.9413 43.1704 76.0811 43.2636C76.314 43.4499 76.4537 43.6362 76.7332 43.9157C76.64 43.4033 76.5935 43.2636 76.2674 42.891C76.9195 42.0991 76.9195 42.0991 77.7114 42.0991C78.1306 42.5649 78.5032 43.217 79.0621 43.5896C79.6677 43.9623 79.854 44.6144 80.3198 45.0802C80.739 45.4994 81.0185 46.1049 81.3445 46.6639C81.4843 46.9899 81.624 47.3626 81.5774 47.6886C81.5308 48.1078 81.3445 48.7133 81.065 48.8065C80.5992 48.9928 80.6924 49.3189 80.5527 49.6449C80.3664 50.0176 80.0869 50.4368 79.5745 50.5299C79.295 50.5765 78.9224 50.8094 78.6895 50.7162C78.1306 50.4833 77.6182 50.1573 77.199 49.7381C76.4537 48.9462 75.8016 48.0612 75.1495 47.1762C75.0098 46.9433 75.0563 46.5707 75.0098 46.1049C75.2427 46.2912 75.2892 46.3378 75.4756 46.4775C75.3358 45.7323 75.8948 45.4994 76.0811 45.1268Z" fill="#1E1E1E"/>
<path d="M69.42 91.7055C69.094 91.5192 68.9077 91.426 68.7213 91.3329C68.4419 92.3576 68.3487 92.4042 67.5103 92.0315C67.7432 92.5439 67.9295 92.9631 68.1158 93.4289C67.8829 93.5687 67.65 93.7084 67.4637 93.8015C67.0445 93.3823 66.6253 92.9631 66.1595 92.4973C65.88 93.1029 66.6253 93.3823 66.5787 93.9879C65.88 94.081 65.5074 93.6152 65.1348 93.196C64.9019 92.9631 64.8087 92.6371 64.5758 92.4042C63.5977 91.426 62.7126 90.3547 61.8742 89.1902C61.7811 89.0971 61.6879 89.0039 61.5947 88.9108C61.0824 88.445 60.57 87.9792 60.5234 87.2339C61.0358 86.9544 61.2687 87.4202 61.5947 87.6997C61.9208 87.1407 61.129 87.0476 61.1755 86.6284C61.2221 86.116 62.1537 86.7681 61.9208 85.9297C62.4332 85.9297 62.8524 85.9297 63.3182 85.9297C63.6908 86.2092 64.11 86.4886 64.4827 86.7681C64.8553 87.0476 65.1348 87.4668 65.6005 87.6997C66.0663 87.9326 66.3924 88.445 66.765 88.8176C67.0445 89.0505 67.1842 89.3765 67.65 89.4697C67.9761 89.5629 68.1158 90.0286 68.5816 89.9355C68.7213 89.9355 68.9542 90.1684 69.0008 90.3081C69.2337 90.7739 69.2803 91.1 69.42 91.7055Z" fill="#1E1E1E"/>
<path d="M60.6631 6.74559C61.0824 6.79217 61.4084 6.55927 61.781 6.83875C61.5947 6.93191 61.4084 6.97848 61.2687 7.02506C61.4084 7.53743 61.5947 8.0498 61.6879 8.56217C61.7345 8.70191 61.6413 8.9348 61.5481 8.98138C61.0358 9.21428 60.896 9.72665 60.4768 10.0527C60.2905 10.1924 60.0576 10.239 59.8247 10.239C59.7316 10.239 59.5918 10.0993 59.4521 10.0993C59.3124 10.0993 59.1726 10.239 59.0329 10.3322C58.8 9.54033 58.8466 9.54033 57.9616 9.26086C57.4492 9.07454 57.356 8.56217 56.9834 8.2827C56.8902 8.46901 56.8437 8.60875 56.7505 8.79507C56.6108 8.65533 56.4245 8.51559 56.4245 8.42244C56.4245 6.93191 56.4245 6.88533 55.7258 5.95375C55.3531 6.65243 56.0984 7.02506 56.145 7.72375C55.9587 7.67717 55.6792 7.72375 55.6326 7.63059C55.3066 6.83875 54.7942 6.09348 55.3066 5.1619C55.4463 4.88243 55.4929 4.69611 55.8655 4.69611C56.0984 4.69611 56.3313 4.55637 56.5176 4.46322C57.03 4.13716 57.4958 3.81111 58.0547 3.43848C58.1945 3.62479 58.2876 3.81111 58.241 3.76453C58.6602 4.044 59.126 3.25216 59.1726 4.09058C59.1726 4.32348 59.7316 3.76453 59.7316 4.37006C59.7316 4.60295 60.1508 4.83585 60.3837 5.06874C60.2905 5.25506 60.2439 5.48796 60.1508 5.67427C60.1974 5.72085 60.2905 5.76743 60.3371 5.81401C60.4302 5.58111 60.57 5.3948 60.7097 5.11532C60.9426 5.48796 61.0824 5.72085 61.2221 6.00032C61.0824 6.18664 60.896 6.46612 60.6631 6.74559Z" fill="#1E1E1E"/>
<path d="M17.9967 44.7075C17.7172 44.3348 17.4843 44.0554 17.2049 43.7293C17.0651 44.0088 16.972 44.1485 16.8788 44.3814C16.413 44.1485 16.0404 43.7759 15.7609 43.3567C15.1554 42.4717 14.643 41.5401 14.0375 40.6551C13.6648 40.0961 13.6183 39.444 13.758 38.7454C14.317 38.6056 14.4567 39.3043 14.9225 39.4906C14.9225 39.0714 14.9225 38.6988 14.9225 38.233C15.8541 38.0932 16.6925 38.0001 17.5309 37.8604C18.3693 38.6056 18.9283 39.444 19.3475 40.3756C19.5804 40.9346 20.0462 41.3072 20.1859 41.9593C20.2325 42.1922 19.9064 42.5183 20.3256 42.7046C20.3256 42.7046 20.2325 42.984 20.1859 42.984C19.5338 42.7512 19.3475 43.6827 18.742 43.543C18.6954 43.543 18.6022 43.7759 18.5556 43.9156C18.5091 44.0554 18.4625 44.1951 18.3693 44.3348C18.3227 44.428 18.2296 44.5212 17.9967 44.7075Z" fill="#1E1E1E"/>
<path d="M46.1305 60.0317C46.3168 60.4509 46.4565 60.777 46.6428 61.1962C46.7826 60.8702 46.8292 60.7304 46.8757 60.5907C46.9223 60.6373 47.0155 60.6373 47.0155 60.6838C47.1086 61.1031 47.3415 61.4757 47.6676 61.8017C47.8539 61.9881 47.9936 62.2675 48.1334 62.5004C48.3663 62.9196 48.6923 63.2457 49.2047 63.3388C49.2978 63.1525 49.391 63.0128 49.391 62.9196C49.6239 63.106 49.9034 63.2923 50.0897 63.432C50.0897 63.5717 50.0897 63.6649 50.0897 63.6649C49.8568 63.8046 49.6239 63.9444 49.391 64.0841C49.4376 64.4102 49.5307 64.7362 49.5773 65.202C49.2047 65.0157 48.9718 64.9225 48.6923 64.7828C48.506 65.1089 48.3663 65.4349 48.18 65.8075C47.9936 65.8075 47.8073 65.8541 47.5744 65.9007C47.5744 66.087 47.5744 66.3199 47.5744 66.4596C46.9223 66.9254 46.4099 66.8789 45.851 66.3665C45.2455 65.8075 44.5468 65.3417 43.9413 64.6896C44.2207 64.5033 44.4536 64.3636 44.7331 64.1773C44.5934 63.6649 44.3605 63.1991 43.9878 62.7799C43.6152 62.3141 43.4289 61.7552 43.1494 61.2428C43.522 60.777 43.8015 61.1031 44.1742 61.2894C44.1742 61.1496 44.2673 61.0099 44.2207 60.9167C43.9878 60.3578 44.081 60.0783 44.5934 60.0317C45.1057 60.0317 45.6181 60.0317 46.1305 60.0317Z" fill="#1E1E1E"/>
<path d="M9.93859 65.0623C10.1715 65.3883 10.3112 65.6212 10.5441 65.9473C10.5907 65.761 10.6839 65.6678 10.6373 65.5746C10.5441 65.1089 10.451 64.6431 10.3112 64.1307C10.6373 64.1307 10.8236 64.1307 11.0565 64.1307C11.1031 64.2704 11.1962 64.4102 11.336 64.7362C11.336 64.2704 11.336 63.991 11.336 63.7115C11.4757 63.6649 11.6154 63.6649 11.7086 63.5717C11.8949 63.432 12.221 63.106 12.2675 63.106C12.5936 63.3854 12.9662 63.1991 13.2923 63.3389C13.7581 63.5252 14.2239 63.8512 14.1773 64.4102C14.1773 64.5965 13.9444 64.7828 13.991 64.9225C14.0375 65.0623 14.3636 65.0623 14.4568 65.202C14.5499 65.2952 14.5499 65.6212 14.4568 65.6678C14.1307 65.9473 14.1773 66.2733 14.2239 66.5994C14.2704 67.0186 14.0841 67.2515 13.7115 67.3447C13.3389 67.4378 13.2457 67.6707 13.1525 68.0433C13.0594 68.5557 12.6868 68.8818 12.0812 68.8818C11.8949 68.8818 11.662 68.8818 11.4757 68.9283C10.9633 69.0215 10.3578 68.9283 10.1715 68.5557C9.79885 67.6707 9.23991 66.7857 9.33306 65.7144C9.42622 65.3883 9.7057 65.2486 9.93859 65.0623Z" fill="#1E1E1E"/>
<path d="M50.6955 42.2386C51.0215 42.3318 51.3476 42.4249 51.7668 42.5647C51.9531 42.1454 51.9997 41.7728 51.6271 41.4002C52.0928 40.981 52.3723 41.5865 52.7915 41.5399C52.8381 41.307 52.8847 41.0741 52.9313 40.8412C53.2573 40.4686 53.5834 41.1673 54.0026 40.8412C54.4218 40.5152 54.515 41.2139 54.8876 41.307C55.0739 41.3536 55.2602 41.5399 55.4 41.7262C55.8658 42.3318 55.9589 43.1236 56.611 43.636C56.7507 43.7757 56.7042 44.1949 56.7042 44.5675C56.0055 44.1949 55.9589 45.3594 55.2602 45.0799C55.0273 45.406 55.2602 46.0581 54.4684 46.1047C54.3752 45.9649 54.2821 45.732 54.0957 45.4526C53.956 45.7786 53.8629 45.9183 53.7697 46.1047C53.3505 46.1978 53.1176 45.8252 52.9778 45.5923C52.5121 44.8004 51.9065 44.1949 51.1147 43.7291C50.6489 43.4031 50.3694 42.9373 50.6955 42.2386Z" fill="#1E1E1E"/>
<path d="M44.5005 8.46877C43.895 8.93456 43.4758 9.30719 42.8703 9.7264C42.6374 9.7264 42.2182 9.7264 41.799 9.7264C41.3797 9.12087 41.24 8.32903 40.6345 7.81666C40.5879 6.97824 39.9824 6.46587 39.47 5.86034C39.3303 5.67402 39.3303 5.30139 39.2837 4.97534C39.47 4.92876 39.6563 4.92876 39.7495 4.8356C40.7276 3.90402 41.6592 4.41639 42.4045 5.06849C43.0566 5.58086 43.6155 6.27955 44.0813 7.02481C44.4074 7.44403 44.4074 8.04955 44.5005 8.46877Z" fill="#1E1E1E"/>
</svg>
