<svg width="570" height="350" viewBox="0 0 570 350" fill="none" xmlns="http://www.w3.org/2000/svg">
<mask id="mask0_31_857" style="mask-type:alpha" maskUnits="userSpaceOnUse" x="0" y="0" width="570" height="350">
<rect width="570" height="350" rx="30" fill="white"/>
</mask>
<g mask="url(#mask0_31_857)">
<path d="M80.4317 54.6987C79.5467 55.3974 79.174 56.3756 78.9877 57.4469C78.8946 58.0524 78.3356 58.1456 77.9164 58.2387C77.5438 58.3319 77.2177 58.3319 76.9383 58.658C76.7985 58.7977 76.4259 58.7977 76.2861 58.7045C75.7738 58.3785 75.2148 58.1456 74.749 57.773C73.1188 56.329 71.9077 54.5124 70.7432 52.6958C69.5788 50.8327 68.3677 48.9695 67.4827 46.9666C67.2032 46.3145 67.2032 46.3611 67.9019 45.8487C68.4609 46.92 68.9732 47.9914 69.5788 49.0627C70.0446 49.9011 70.6501 50.6464 71.2556 51.5314C71.3953 51.2053 71.3953 50.9724 71.1625 50.6464C69.998 48.9695 68.8801 47.2461 67.9951 45.2432C68.1348 45.15 68.3211 45.0569 68.4609 44.9171C68.5074 44.9637 68.6006 45.0103 68.7403 45.15C68.7403 44.8706 68.7403 44.6842 68.7403 44.4514C69.1596 44.3582 69.5322 44.3116 70.0446 44.1719C70.4172 44.3582 70.6035 45.0103 71.2556 45.1035C71.2556 45.8021 71.8146 46.1282 72.1406 46.6406C72.5132 47.2461 73.0256 47.805 73.3982 48.2708C73.8175 48.2243 74.0969 48.1777 74.423 48.1311C75.4943 48.0379 75.4943 48.0845 76.1464 48.69C76.8917 49.3422 77.404 50.2737 78.3822 50.6929C78.4288 50.7395 78.5219 50.8327 78.5219 50.8793C78.5685 51.5779 78.9411 51.8108 79.5933 51.9972C80.1522 52.1369 80.2919 52.6958 80.3385 53.2548C80.2919 53.674 80.3851 54.0932 80.4317 54.6987Z" fill="#1E1E1E"/>
<path d="M66.7373 22.5122C66.1318 21.9067 65.5729 21.2546 64.9673 20.7422C63.1973 19.2982 62.3589 17.2022 61.2876 15.2924C60.8218 14.4074 60.9615 13.4759 60.9615 12.4977C60.9615 12.358 61.1944 12.1716 61.3342 11.9853C61.5205 12.358 61.6602 12.684 61.9397 13.1498C61.9397 12.4511 61.9397 11.8922 61.9397 11.4264C62.3123 11.2401 62.685 11.1469 62.9179 10.914C63.2439 10.6345 63.57 10.6811 63.8494 10.7743C64.1755 10.8674 64.455 11.1469 64.781 11.3332C64.5947 12.2648 64.9673 13.0101 65.3866 13.8019C65.8058 13.7088 66.2716 13.9882 66.6442 13.569C66.7373 13.4759 67.0168 13.4759 67.11 13.569C68.0881 14.1745 69.2992 14.454 69.765 15.6651C69.8581 15.898 69.9513 16.1774 70.1376 16.2706C70.4171 16.4103 70.1842 16.8761 70.6034 16.8761C70.976 16.8761 70.7431 17.2953 70.7897 17.4817C70.8829 17.7611 70.976 17.994 71.0226 18.2735C71.0692 18.5064 71.0226 18.7859 71.0226 19.0188C70.0445 19.8572 69.4389 20.9285 68.9266 22.093C68.2745 22.2793 67.4826 22.3725 66.7373 22.5122Z" fill="#1E1E1E"/>
<path d="M5.76561 11.3797C5.25324 10.8673 4.64771 10.2618 4.04219 9.65629C4.04219 9.23708 3.99561 8.72471 4.04219 8.25892C4.08877 8.0726 4.32166 7.88629 4.50798 7.79313C4.60113 7.74655 4.78745 7.93286 4.92719 7.97944C5.1135 7.60681 5.20666 7.14102 5.85877 7.23418C5.95193 7.23418 6.13824 7.28076 6.2314 7.1876C6.55746 6.9547 6.88351 6.67523 7.25614 6.76839C7.95483 6.9547 8.74667 7.09444 9.30562 7.56023C10.4235 8.53839 11.4483 9.60971 12.0072 11.0071C12.3333 11.8455 12.6127 12.7305 12.799 13.5689C12.8456 13.9416 12.7525 14.5005 12.3333 14.78C11.6346 15.2924 10.9359 15.8513 10.1906 16.3171C9.95773 16.5034 9.58509 16.5966 9.30562 16.55C7.44246 16.4102 6.13824 15.5252 5.5793 13.4292C5.48614 13.1031 5.29982 12.8237 5.3464 12.5442C5.39298 12.1716 5.62588 11.7989 5.76561 11.3797Z" fill="#1E1E1E"/>
<path d="M8.93274 57.2606C8.88616 57.0277 8.83959 56.7482 8.79301 56.5153C8.79301 57.54 7.72169 57.9127 7.48879 58.7511C7.39564 59.0772 6.92985 59.2169 6.74353 59.0306C6.41748 58.7511 6.23116 58.9374 6.04484 59.0772C5.57905 59.3566 5.20642 59.3566 4.74063 59.0772C3.38984 58.2853 1.99247 57.5401 1.20062 56.0961C0.222464 55.5837 -0.0570099 54.5124 -0.662537 53.7206C-0.942012 53.3479 -1.03517 52.789 -1.26807 52.2766C-0.895434 51.7643 -0.383062 51.904 0.222465 52.23C0.175886 51.9506 0.175885 51.6711 0.0361481 51.4848C-0.150168 51.2519 0.0361466 51.1587 0.129305 51.1121C0.548516 50.9258 1.01431 50.7861 1.38694 50.46C1.4801 50.3669 1.71299 50.4135 1.89931 50.46C2.17878 50.5532 2.41168 50.7395 2.73773 50.46C2.83089 50.3669 3.11036 50.5532 3.29668 50.5998C4.83379 51.2519 6.23116 52.0903 7.11616 53.6274C7.2559 53.8137 7.53537 54.0466 7.72169 54.2329C8.32722 54.7919 8.42037 55.5837 8.88617 56.1893C9.21222 56.5153 9.11906 56.8414 8.93274 57.2606Z" fill="#1E1E1E"/>
<path d="M86.0676 -1.94165C86.1142 -2.17454 86.1142 -2.40744 86.1608 -2.68691C86.254 -2.64033 86.3471 -2.59376 86.3471 -2.54718C86.6732 -1.75533 87.0924 -1.01007 87.2787 -0.125064C87.4184 0.433885 87.5582 0.946253 87.0458 1.31889C86.6732 1.59836 87.0458 2.43678 86.254 2.3902C85.8813 2.99573 85.2758 2.94915 84.7168 2.90257C84.5771 3.32179 84.484 3.69442 84.3442 4.06705C84.1579 4.43968 83.5524 4.57942 82.9003 4.3931C82.7605 4.34652 82.6208 4.20679 82.4811 4.20679C81.4097 4.29994 81.4097 4.29994 80.9905 3.46152C80.7576 3.04231 80.4782 2.66968 80.3384 2.20389C80.1055 1.69152 79.7795 1.31888 79.2671 1.13257C78.4753 0.806516 77.9629 0.10783 77.8231 -0.730593C77.6834 -1.47586 78.056 -2.17454 78.7081 -2.68691C79.0342 -2.2677 79.3603 -1.84849 79.826 -1.24296C79.826 -1.84849 79.826 -2.2677 79.826 -2.68691C79.826 -3.10612 79.8726 -3.01297 80.5247 -3.29244C80.9905 -3.47876 81.6426 -3.24586 81.9221 -3.89797C82.3879 -3.89797 82.8537 -3.94455 83.3195 -3.94455C84.1579 -3.99113 84.9032 -3.89797 85.3224 -2.96639C85.369 -2.59376 85.7416 -2.31428 86.0676 -1.94165Z" fill="#1E1E1E"/>
<path d="M54.3472 62.6175C53.6951 62.6175 53.0896 62.4312 52.7635 63.1299C52.2046 62.4312 52.158 61.9188 52.717 61.3598C53.0896 60.9872 53.3225 60.4748 53.8349 60.1488C54.2541 59.8693 54.3938 59.2172 54.7664 58.798C55.0459 58.4719 55.4651 58.2856 55.8378 58.0527C55.9309 58.1459 56.0707 58.2856 56.257 58.4719C56.0707 58.6117 55.8378 58.7514 55.6514 58.8912C55.6514 58.9377 55.698 58.9843 55.698 59.0309C55.9775 58.9843 56.257 58.9377 56.583 58.8912C56.6762 59.0309 56.7693 59.3569 57.0022 59.4501C58.3064 60.1022 59.1449 61.2667 59.8901 62.3846C60.1696 62.7572 60.2162 63.2696 60.4491 63.6888C60.9614 64.7135 61.1012 64.8999 60.9615 65.878C60.8683 66.5767 60.7286 67.2754 60.1696 67.8343C59.9367 68.0672 59.7504 68.3467 59.7038 68.6728C59.6572 69.3714 59.2846 69.5112 58.7257 69.4646C58.5859 69.4646 58.3996 69.4646 58.2599 69.5112C57.2817 69.7907 57.142 69.7441 56.6762 68.9988C55.9309 67.8809 55.6049 66.5767 55.1391 65.3191C54.813 64.4341 54.5801 63.5025 54.3472 62.6175Z" fill="#1E1E1E"/>
<path d="M38.1842 48.6895C37.4856 48.2703 36.7869 47.9442 36.1814 47.3387C35.11 46.2674 33.9456 45.2426 32.9674 44.0782C31.9427 42.8671 30.8248 41.6561 30.2192 40.2587C30.2658 39.6997 31.0111 40.3053 31.0111 39.6532C31.0111 39.4668 31.4769 39.2805 31.7563 39.0942C32.4085 38.6284 32.7345 38.5818 33.2003 39.0476C33.6661 39.5134 34.1785 39.6997 34.784 39.8395C35.7156 40.0258 36.3677 40.7711 37.1595 41.1903C37.9979 41.6561 38.6035 42.4013 39.3022 43.0534C39.6748 43.3795 40.094 43.659 40.42 44.0316C40.7461 44.4042 41.0256 44.87 41.1187 45.3358C41.1653 45.6153 40.979 46.0345 40.7461 46.314C40.4666 46.64 40.3735 47.0592 39.9077 47.2455C39.6282 47.3387 39.6748 47.6182 39.6282 47.8976C39.5816 48.1771 39.4885 48.5498 38.9761 48.1771C38.6035 47.8976 38.324 48.2703 38.1842 48.6895Z" fill="#1E1E1E"/>
<path d="M89.3281 41.3302C87.8841 40.7247 87.2786 39.6068 86.6265 38.5355C86.0676 37.6039 85.6018 36.5791 85.1825 35.601C84.7633 34.5762 84.0647 33.6447 84.3907 32.3404C85.3223 32.9925 85.2291 34.2036 86.1141 34.9954C85.9744 33.6912 85.2757 32.7131 84.9497 31.3623C85.4154 31.5952 85.6018 31.6883 85.7881 31.8281C85.8347 31.5952 85.8812 31.3623 85.9278 31.1294C86.3004 31.0362 86.6731 30.9896 87.1389 30.8965C87.2786 31.0828 87.4183 31.3623 87.6047 31.6418C88.3033 32.6665 88.3499 32.6665 89.6541 33.1323C89.7939 33.1789 89.9336 33.272 90.0733 33.3652C91.0981 34.0173 91.9831 34.716 92.542 35.8339C92.7284 36.2531 93.0078 36.9983 93.0078 37.4176C93.0078 37.5107 93.101 37.6505 93.1476 37.7436C93.3339 37.9765 93.2407 38.1628 93.0544 38.256C92.4955 38.582 92.216 39.2341 91.7502 39.6068C91.5173 39.7465 91.5173 39.9794 91.4707 40.2589C91.4241 40.6315 90.7255 41.0973 90.3528 41.0041C90.1665 40.9576 90.0268 40.5849 89.7473 40.8644C89.561 41.0041 89.4678 41.1905 89.3281 41.3302Z" fill="#1E1E1E"/>
<path d="M48.1988 11.7531C47.9659 11.7997 47.733 11.8463 47.4069 11.8928C47.5467 12.1257 47.6398 12.3121 47.733 12.4984C47.1275 13.1039 46.5219 13.7094 45.8698 14.3615C45.7767 14.3615 45.6369 14.3615 45.4972 14.3615C44.0532 14.641 43.1217 13.8026 42.3298 12.8244C41.7243 12.0792 41.1653 11.2407 40.7461 10.3092C40.4667 9.75021 40.2803 9.19126 40.4201 8.446C40.8393 9.37758 41.2585 10.2626 41.6311 11.101C41.6777 11.101 41.7709 11.0544 41.8174 11.0544C41.7709 10.9147 41.7709 10.7284 41.7243 10.5886C41.4448 9.98311 41.1653 9.37758 40.9325 8.77205C40.8393 8.49258 40.6064 8.16653 41.1653 8.02679C41.3517 7.98021 41.4448 7.60758 41.5846 7.37468C41.7243 7.18837 41.8174 6.95547 41.9106 6.81573C42.5161 6.76915 42.5161 7.28152 42.8888 7.51442C42.7956 7.18837 42.7024 6.86231 42.6093 6.4431C42.7956 6.30337 43.0751 6.07047 43.308 5.88415C43.4477 6.02389 43.6806 6.30336 43.8669 5.83757C44.0998 5.3252 44.3793 5.13889 44.8917 5.46494C44.9382 5.51152 45.0314 5.51152 45.078 5.51152C45.6835 5.04573 46.0096 5.51152 46.289 5.88415C46.9411 6.76915 47.2672 7.84047 47.6398 8.86521C47.733 9.09811 47.9193 9.65706 47.2672 9.70364C47.2206 9.70364 47.2206 9.93653 47.174 10.0297C47.3138 10.0763 47.5467 10.1694 47.5933 10.1228C47.9659 9.75022 48.1988 10.216 48.1522 10.3092C47.9659 10.6818 48.4783 11.1942 48.1988 11.7531Z" fill="#1E1E1E"/>
<path d="M2.36515 27.4035C2.55147 27.683 2.6912 27.9159 2.97068 28.3351C3.01726 27.9159 3.06384 27.7295 3.06384 27.5898C3.11041 27.0774 3.11042 27.0774 3.76252 27.0309C3.85568 27.0309 3.94884 27.0309 3.99542 26.9843C4.27489 26.5185 4.74068 26.3788 5.20647 26.5185C5.71884 26.6582 6.27779 26.8911 6.697 27.2172C8.28069 28.5214 9.21227 30.338 9.91095 32.2011C10.0507 32.5272 9.91095 32.9464 9.91095 33.2725C9.72464 33.2725 9.5849 33.2259 9.44516 33.2259C9.49174 33.6917 9.35201 34.0177 8.83964 34.1109C8.6999 34.1575 8.467 34.3903 8.467 34.5301C8.42042 35.089 7.86148 34.8096 7.67516 35.089C7.34911 34.5767 6.83674 35.1822 6.46411 34.8561C6.13805 34.5301 5.67226 34.2506 5.43937 33.8314C4.927 32.9464 4.46121 32.0148 4.18173 31.0832C4.042 30.5709 3.8091 30.2448 3.43647 30.0585C2.83094 29.6859 2.31857 29.2201 2.0391 28.568C1.71305 28.0556 1.66646 28.0556 2.36515 27.4035Z" fill="#1E1E1E"/>
<path d="M26.1668 12.6381C26.1668 12.4984 26.1202 12.3587 26.1668 12.1723C26.2134 12.0792 26.3531 11.986 26.3997 11.8929C26.3997 11.7997 26.3066 11.66 26.3066 11.5202C26.3066 11.4271 26.4463 11.2873 26.4463 11.1942C26.3997 11.0544 26.26 10.9147 26.1668 10.8216C26.0737 10.775 25.9339 10.775 25.7942 10.7284C25.8873 11.0079 25.9339 11.2408 25.9805 11.4271C25.5147 11.1476 25.0489 10.9147 25.2352 10.2626C25.4216 10.3558 25.6079 10.4023 25.8408 10.4955C25.9339 9.70366 25.1887 10.1229 24.9092 9.75024C25.3284 9.79682 25.6079 9.51734 26.0271 9.56392C26.2134 9.6105 26.4929 9.19129 26.7723 8.91181C27.1916 9.23787 27.6573 9.6105 28.1697 10.0763C28.2163 9.75024 28.2629 9.51734 28.3095 9.23787C28.915 9.09813 29.5671 9.00497 30.1726 8.86523C30.4987 9.28445 30.7316 9.65708 31.0576 9.98313C31.3371 10.2626 31.7097 10.4489 31.9426 10.7284C32.6879 11.5202 33.0139 12.5916 33.2934 13.5697C33.3866 13.9423 33.5263 14.5013 32.8276 14.5945C32.8276 15.2466 32.1289 15.3397 31.8029 15.8055C31.3837 16.3179 30.685 16.411 29.9397 16.1316C28.8218 15.6658 28.03 14.7808 27.3313 13.8958C26.9121 13.5697 26.4929 13.1505 26.1668 12.6381Z" fill="#1E1E1E"/>
<path d="M47.0811 29.1272C47.2674 29.1738 47.5003 29.267 47.7332 29.3601C47.7798 28.2888 46.6619 28.0093 46.5221 27.0312C46.755 27.1243 46.9413 27.1709 47.0811 27.2641C47.314 27.4504 47.4537 27.6367 47.7332 27.9162C47.64 27.4038 47.5935 27.2641 47.2674 26.8915C47.9195 26.0996 47.9195 26.0996 48.7114 26.0996C49.1306 26.5654 49.5032 27.2175 50.0621 27.5901C50.6677 27.9628 50.854 28.6149 51.3198 29.0807C51.739 29.4999 52.0185 30.1054 52.3445 30.6643C52.4843 30.9904 52.624 31.363 52.5774 31.6891C52.5308 32.1083 52.3445 32.7138 52.065 32.807C51.5992 32.9933 51.6924 33.3194 51.5527 33.6454C51.3664 34.018 51.0869 34.4373 50.5745 34.5304C50.295 34.577 49.9224 34.8099 49.6895 34.7167C49.1306 34.4838 48.6182 34.1578 48.199 33.7386C47.4537 32.9467 46.8016 32.0617 46.1495 31.1767C46.0098 30.9438 46.0563 30.5712 46.0098 30.1054C46.2427 30.2917 46.2892 30.3383 46.4756 30.478C46.3358 29.7328 46.8948 29.4999 47.0811 29.1272Z" fill="#1E1E1E"/>
<path d="M40.42 75.7055C40.094 75.5192 39.9077 75.426 39.7213 75.3329C39.4419 76.3576 39.3487 76.4042 38.5103 76.0315C38.7432 76.5439 38.9295 76.9631 39.1158 77.4289C38.8829 77.5687 38.65 77.7084 38.4637 77.8015C38.0445 77.3823 37.6253 76.9631 37.1595 76.4973C36.88 77.1029 37.6253 77.3823 37.5787 77.9879C36.88 78.081 36.5074 77.6152 36.1348 77.196C35.9019 76.9631 35.8087 76.6371 35.5758 76.4042C34.5977 75.426 33.7126 74.3547 32.8742 73.1902C32.7811 73.0971 32.6879 73.0039 32.5947 72.9108C32.0824 72.445 31.57 71.9792 31.5234 71.2339C32.0358 70.9544 32.2687 71.4202 32.5947 71.6997C32.9208 71.1407 32.129 71.0476 32.1755 70.6284C32.2221 70.116 33.1537 70.7681 32.9208 69.9297C33.4332 69.9297 33.8524 69.9297 34.3182 69.9297C34.6908 70.2092 35.11 70.4886 35.4827 70.7681C35.8553 71.0476 36.1348 71.4668 36.6005 71.6997C37.0663 71.9326 37.3924 72.445 37.765 72.8176C38.0445 73.0505 38.1842 73.3765 38.65 73.4697C38.9761 73.5629 39.1158 74.0286 39.5816 73.9355C39.7213 73.9355 39.9542 74.1684 40.0008 74.3081C40.2337 74.7739 40.2803 75.1 40.42 75.7055Z" fill="#1E1E1E"/>
<path d="M17.1305 44.0312C17.3168 44.4505 17.4565 44.7765 17.6428 45.1957C17.7826 44.8697 17.8292 44.7299 17.8757 44.5902C17.9223 44.6368 18.0155 44.6368 18.0155 44.6834C18.1086 45.1026 18.3415 45.4752 18.6676 45.8012C18.8539 45.9876 18.9936 46.267 19.1334 46.4999C19.3663 46.9191 19.6923 47.2452 20.2047 47.3384C20.2978 47.152 20.391 47.0123 20.391 46.9191C20.6239 47.1055 20.9034 47.2918 21.0897 47.4315C21.0897 47.5713 21.0897 47.6644 21.0897 47.6644C20.8568 47.8041 20.6239 47.9439 20.391 48.0836C20.4376 48.4097 20.5307 48.7357 20.5773 49.2015C20.2047 49.0152 19.9718 48.922 19.6923 48.7823C19.506 49.1084 19.3663 49.4344 19.18 49.807C18.9936 49.807 18.8073 49.8536 18.5744 49.9002C18.5744 50.0865 18.5744 50.3194 18.5744 50.4592C17.9223 50.9249 17.4099 50.8784 16.851 50.366C16.2455 49.807 15.5468 49.3413 14.9413 48.6892C15.2207 48.5028 15.4536 48.3631 15.7331 48.1768C15.5934 47.6644 15.3605 47.1986 14.9878 46.7794C14.6152 46.3136 14.4289 45.7547 14.1494 45.2423C14.522 44.7765 14.8015 45.1026 15.1742 45.2889C15.1742 45.1491 15.2673 45.0094 15.2207 44.9162C14.9878 44.3573 15.081 44.0778 15.5934 44.0312C16.1057 44.0313 16.6181 44.0312 17.1305 44.0312Z" fill="#1E1E1E"/>
<path d="M21.6955 26.2386C22.0215 26.3318 22.3476 26.4249 22.7668 26.5647C22.9531 26.1454 22.9997 25.7728 22.6271 25.4002C23.0928 24.981 23.3723 25.5865 23.7915 25.5399C23.8381 25.307 23.8847 25.0741 23.9313 24.8412C24.2573 24.4686 24.5834 25.1673 25.0026 24.8412C25.4218 24.5152 25.515 25.2139 25.8876 25.307C26.0739 25.3536 26.2602 25.5399 26.4 25.7262C26.8658 26.3318 26.9589 27.1236 27.611 27.636C27.7507 27.7757 27.7042 28.1949 27.7042 28.5675C27.0055 28.1949 26.9589 29.3594 26.2602 29.0799C26.0273 29.406 26.2602 30.0581 25.4684 30.1047C25.3752 29.9649 25.2821 29.732 25.0957 29.4526C24.956 29.7786 24.8629 29.9183 24.7697 30.1047C24.3505 30.1978 24.1176 29.8252 23.9778 29.5923C23.5121 28.8004 22.9065 28.1949 22.1147 27.7291C21.6489 27.4031 21.3694 26.9373 21.6955 26.2386Z" fill="#1E1E1E"/>
<path d="M572.094 411.332C571.396 413.251 570.735 415.171 569.302 416.758C568.457 417.717 567.759 418.862 567.208 420.043C566.987 420.449 566.62 420.596 566.4 420.966C565.885 421.851 565.702 422.848 565.077 423.697C563.644 425.616 562.211 427.573 560.705 429.455C559.713 430.71 558.758 432.002 557.729 433.22C555.782 435.471 553.32 437.022 550.602 438.092C547.442 439.347 544.319 440.713 541.086 441.746C535.061 443.666 528.925 444.441 522.569 443.702C518.748 443.26 515.001 442.521 511.731 440.565C506.44 437.391 502.105 433.22 499.056 427.831C498.945 427.646 498.798 427.462 498.651 427.24C497.402 425.542 496.263 423.771 495.712 421.704C495.418 420.67 495.014 419.674 494.537 418.714C493.177 415.835 493.434 412.919 494.537 410.04C495.639 407.124 497.513 404.651 499.607 402.473C502.399 399.558 503.722 396.162 504.126 392.249C504.53 388.595 503.869 385.089 503.244 381.545C502.84 379.368 502.509 377.19 502.068 375.012C501.37 371.506 499.79 368.405 498.137 365.268C496.006 361.208 494.353 356.926 493.361 352.423C492.516 348.658 492.957 344.93 494.206 341.387C494.941 339.32 495.896 337.326 497.439 335.666C498.945 334.041 500.488 332.454 502.289 331.162C506.624 328.062 511.4 325.884 516.47 324.297C522.275 322.488 527.896 320.348 532.819 316.694C536.493 313.999 539.984 311.083 543.327 307.983C547.883 303.775 552.659 299.862 558.17 296.983C563.571 294.141 569.155 291.964 575.254 292C584.476 292.074 592.338 295.359 597.922 302.963C602.037 308.573 602.735 315.033 601.376 321.75C601.119 322.968 600.898 324.186 600.604 325.404C599.87 328.505 598.62 331.347 596.783 333.968C595.718 335.481 594.542 336.957 593.477 338.471C592.228 340.242 590.795 341.866 589.362 343.454C587.672 345.299 586.202 347.255 584.77 349.285C584.292 349.987 583.484 350.43 583.006 351.168C581.206 354.047 579.332 356.889 578.046 360.063C577.348 361.761 576.65 363.459 576.503 365.378C576.43 366.56 576.503 367.741 576.393 368.922C576.246 370.694 576.54 372.428 576.834 374.126C576.944 374.791 576.136 375.307 576.319 375.381C577.238 375.64 576.577 376.156 576.613 376.525C576.613 376.747 576.466 377.005 576.54 377.19C577.385 380.696 577.017 384.277 577.091 387.857C577.164 391.142 577.458 394.501 576.577 397.749C576.246 398.93 576.025 400.148 575.658 401.329C575.254 402.732 574.482 404.061 574.372 405.537C574.188 407.604 573.16 409.339 572.388 411.221C572.351 411.221 572.168 411.295 572.094 411.332C572.168 410.262 573.086 409.45 573.086 408.305C572.315 409.966 571.36 411.517 570.955 413.325C571.36 412.661 571.727 411.996 572.094 411.332ZM545.384 314.59C546.597 313.851 547.552 312.818 548.507 311.784C547.515 312.744 546.23 313.445 545.384 314.59C544.503 314.922 543.952 315.66 543.327 316.288C544.135 315.882 544.833 315.328 545.384 314.59ZM557.215 299.309C557.398 299.235 557.619 299.235 557.766 299.124C561.991 296.873 566.4 295.064 571.066 293.957C571.249 293.92 571.47 293.92 571.58 293.661C571.249 293.698 570.955 293.735 570.661 293.809C566.767 294.473 563.167 295.987 559.676 297.722C558.831 298.201 557.876 298.534 557.215 299.309C556.186 299.419 555.561 300.268 554.643 300.638C554.496 300.711 554.312 301.007 554.569 301.228C554.643 301.302 554.753 301.376 554.827 301.265C555.341 300.268 556.59 300.195 557.215 299.309ZM529.182 439.605C529.844 439.605 530.505 439.679 531.166 439.605C533.848 439.31 536.493 438.83 539.139 438.313C543.07 437.575 546.707 435.877 550.418 434.512C552.145 433.884 553.761 432.998 554.937 431.485C558.795 426.428 561.881 421.003 564.085 414.986C565.849 410.188 568.126 405.611 570 400.849C571.323 397.454 572.205 393.91 572.572 390.256C572.903 387.229 572.719 384.166 572.719 381.139C572.719 378.629 572.682 376.119 572.866 373.609C572.976 371.838 572.572 369.992 572.425 368.184C572.168 365.009 572.205 361.835 573.16 358.735C574.042 355.892 575.254 353.161 576.76 350.577C579.81 345.373 583.594 340.759 587.598 336.256C589.729 333.857 591.86 331.421 593.624 328.726C596.894 323.78 598.437 318.318 598.326 312.375C598.216 307.761 596.196 304.144 592.228 301.708C585.321 297.463 578.009 296.098 570.184 298.681C564.122 300.674 558.721 303.849 553.761 307.909C550.675 310.419 547.846 313.261 544.797 315.771C540.608 319.203 536.347 322.562 531.423 324.888C527.602 326.696 523.598 327.988 519.556 329.169C516.103 330.203 512.833 331.568 509.71 333.377C506.146 335.481 503.097 338.139 501.003 341.793C500.746 342.236 500.746 342.236 500.195 342.236C500.011 342.236 500.011 342.383 499.937 342.494C499.423 343.527 499.056 344.635 499.056 345.816C499.056 346.628 499.35 347.772 499.092 348.141C498.211 349.396 498.872 350.577 499.056 351.611C499.239 352.903 499.607 354.231 499.974 355.56C500.966 358.808 502.105 362.02 503.722 365.009C505.191 367.741 506.624 370.509 507.065 373.646C507.175 374.532 508.277 375.566 507.102 376.525C507.102 376.525 507.175 376.599 507.212 376.673C507.836 377.633 508.13 378.703 508.167 379.774C508.204 380.807 508.571 381.804 508.645 382.837C508.718 384.498 509.343 386.159 508.975 387.857C508.828 388.632 508.865 389.481 508.865 390.293C508.865 392.102 508.241 393.799 508.167 395.608C508.13 396.272 507.543 397.158 507.212 397.933C506.036 400.702 503.979 402.843 502.179 405.131C500.488 407.309 498.578 409.45 498.394 412.439C498.321 413.657 497.953 414.912 498.578 416.056C500.231 419.083 501.113 422.553 503.391 425.284C505.154 427.388 506.367 429.972 508.534 431.817C510.665 433.626 512.686 435.545 515.111 436.874C516.323 437.538 517.536 438.203 518.932 438.498C522.312 439.384 525.729 439.679 529.182 439.605ZM569.008 405.943C568.016 409.339 566.069 412.218 565.077 415.503C566.289 414.617 569.486 407.05 569.008 405.943ZM530.174 320.237C533.554 318.687 536.383 316.398 539.102 313.888C536.273 315.992 533.481 318.133 530.468 319.979C530.358 320.052 530.248 320.126 530.174 320.237ZM497.77 337.843C499.423 336.072 501.113 334.337 502.877 332.676C500.746 334.005 499.092 335.776 497.77 337.843ZM494.831 413.067C495.235 411.959 495.492 410.815 495.823 409.671C495.161 410.704 494.794 411.849 494.831 413.067ZM496.888 340.169C496.815 339.91 496.704 339.799 496.447 339.836C496.043 339.91 495.823 340.169 495.786 340.575C495.786 340.796 495.896 340.833 496.08 340.796C496.484 340.722 496.668 340.427 496.888 340.169Z" fill="#1E1E1E"/>
<path d="M556.884 394.722C556.847 394.464 556.884 394.242 556.627 394.132C556.59 394.501 556.296 394.87 556.774 395.202C557.068 395.387 556.774 395.719 556.7 395.94C556.039 398.007 555.378 400.111 554.753 402.215C554.129 404.208 553.431 406.164 552.953 408.194C552.733 409.228 552.218 410.151 551.851 411.11C551.667 411.553 551.52 411.959 551.52 412.439C551.52 413.436 551.447 413.436 550.565 412.919C550.491 412.882 550.381 412.919 550.271 412.882C550.271 412.993 550.234 413.104 550.271 413.177C550.859 414.137 550.712 415.281 550.051 416.204C549.61 416.795 549.206 417.422 549.022 418.234C548.728 419.452 547.92 420.375 546.964 421.187C546.891 421.261 546.671 421.224 546.671 421.408C546.634 422.405 545.826 422.885 545.238 423.475C544.65 424.029 543.952 424.435 543.437 425.063C542.519 426.133 541.49 427.019 540.204 427.72C539.617 428.052 539.029 428.68 538.367 428.938C535.979 429.898 533.628 430.931 531.203 431.817C527.088 433.294 523.047 432.851 519.005 431.891C516.617 431.3 514.45 430.23 512.466 428.754C511.694 428.2 511.106 427.499 510.482 426.797C508.094 424.14 506.44 421.076 505.595 417.607C505.044 415.392 505.412 413.214 506.514 411.221C506.808 410.704 507.028 410.003 508.02 410.114C508.461 410.151 508.865 409.376 509.196 408.859C511.547 405.279 513.458 401.44 515.001 397.417C516.617 393.209 518.05 388.927 518.565 384.387C518.969 381.102 518.528 377.928 517.72 374.754C517.095 372.207 515.772 370.066 514.266 367.999C513.127 366.449 512.135 364.825 510.996 363.238C510.592 362.684 511.106 362.315 511.217 361.613C510.592 362.462 510.519 362.278 510.261 361.577C510.004 360.875 509.527 360.248 509.159 359.583C508.351 358.144 507.91 356.594 507.873 355.007C507.873 354.416 507.543 353.899 507.616 353.309C507.726 352.57 507.763 351.832 507.984 351.131C508.351 349.913 508.571 348.584 509.784 347.772C510.114 347.551 509.931 346.812 510.298 346.406C511.915 344.672 513.421 342.826 515.442 341.534C520.218 338.471 525.251 335.85 530.505 333.672C534.179 332.159 537.669 330.203 540.535 327.361C544.797 323.19 549.242 319.24 553.835 315.439C558.207 311.858 562.836 308.758 568.2 306.838C570.441 306.026 572.756 305.547 575.144 305.399C578.524 305.177 581.096 306.728 583.043 309.311C586.827 314.257 587.709 319.831 586.276 325.847C585.284 329.871 583.851 333.746 581.83 337.363C580.875 339.061 579.957 340.796 578.377 342.088C577.642 342.715 577.238 343.749 576.65 344.598C574.666 347.477 572.168 349.913 570.221 352.792C569.339 354.084 568.604 355.413 567.759 356.741C565.959 359.583 564.71 362.721 563.387 365.784C562.211 368.479 561.771 371.432 561.33 374.311C560.852 377.448 560.374 380.585 559.86 383.723C559.566 385.531 559.346 387.377 558.684 389.075C558.244 390.256 558.207 391.511 557.692 392.655C557.325 393.283 557.656 394.169 556.884 394.722ZM514.523 400.739C514.817 400.628 514.891 400.333 514.964 400.111C515.883 397.933 516.911 395.793 517.536 393.504C517.903 392.175 518.528 390.883 518.528 389.444C517.867 391.991 516.764 394.353 515.956 396.826C515.515 398.192 514.744 399.373 514.523 400.739C513.421 402.289 512.833 404.097 511.915 405.721C512.87 404.134 514.046 402.621 514.523 400.739ZM515.552 364.788C515.552 364.677 515.552 364.493 515.625 364.419C515.772 364.308 515.809 364.493 515.919 364.566C516.177 364.825 516.066 365.268 516.397 365.526C517.022 366.043 517.462 366.67 517.756 367.482C518.014 368.147 518.748 368.663 519.226 369.254C519.336 369.402 519.483 369.623 519.336 369.808C519.079 370.177 519.299 370.287 519.593 370.361C519.961 370.472 520.144 370.73 520.255 371.063C520.696 372.207 521.283 373.277 521.43 374.532C521.504 375.344 521.651 376.304 521.945 376.894C522.79 378.518 522.79 380.253 522.716 381.914C522.643 383.391 522.349 384.941 522.422 386.417C522.496 387.709 521.834 388.743 521.651 389.961C521.43 391.4 520.438 392.692 520.218 394.205C520.108 395.128 519.116 395.829 519.116 396.568C519.152 398.266 517.646 399.188 517.389 400.702C517.315 401.182 517.095 401.92 516.691 402.4C515.809 403.359 515.589 404.651 514.67 405.611C513.531 406.792 512.943 408.416 511.731 409.597C510.996 410.298 510.445 411.221 509.821 412.033C509.233 412.771 509.306 413.916 509.122 414.912C508.865 416.315 509.674 417.422 510.041 418.677C510.923 421.667 512.723 424.103 514.854 426.096C519.005 429.972 524.002 431.264 529.55 429.233C530.101 429.012 530.689 428.827 531.24 428.643C534.583 427.536 537.449 425.653 540.131 423.402C543.621 420.412 545.274 416.278 547.222 412.328C547.883 410.963 548.177 409.265 548.691 407.752C549.059 406.718 549.426 405.648 549.646 404.577C549.904 403.507 550.234 402.436 550.528 401.403C550.859 400.333 551.3 399.336 551.557 398.266C551.777 397.306 552.255 396.457 552.439 395.497C552.696 394.169 553.137 392.877 553.467 391.548C554.753 386.823 555.709 382.025 556.296 377.19C556.627 374.495 556.847 371.764 557.399 369.143C559.199 360.58 563.13 353.013 568.531 346.222C570.956 343.195 573.491 340.279 576.026 337.326C579.663 333.119 581.61 328.099 583.08 322.821C583.998 319.536 583.851 316.324 582.639 313.15C581.941 311.341 580.949 309.828 578.781 309.496C576.797 309.164 574.85 309.644 572.939 309.976C571.801 310.197 570.588 310.714 569.486 311.268C566.767 312.596 564.048 313.814 561.697 315.734C561.146 316.177 560.448 316.251 559.897 316.693C559.199 317.284 558.684 318.059 557.913 318.576C557.472 318.871 556.921 318.908 556.517 319.277C553.908 321.713 550.932 323.743 548.581 326.475C547.773 327.434 546.744 328.21 545.862 329.095C542.519 332.417 538.588 334.89 534.179 336.514C528.778 338.508 523.745 341.165 519.042 344.45C517.242 345.705 515.295 346.886 514.009 348.769C513.274 349.876 512.282 350.983 512.172 352.238C511.988 354.121 511.804 356.04 512.429 357.922C512.576 358.365 512.319 358.993 512.392 359.14C512.76 359.731 512.98 360.395 513.384 360.949C514.229 362.13 515.405 363.164 515.552 364.788ZM552.696 398.229C551.667 400.296 551.006 402.547 550.418 404.762C549.793 407.05 548.948 409.228 548.214 411.48C547.516 413.583 546.524 415.613 545.642 417.644C549.353 411.627 550.712 404.836 552.696 398.229ZM554.202 316.73C558.537 313.298 563.093 310.271 568.2 308.13C564.857 308.573 555.598 314.7 554.202 316.73ZM515.625 342.752C513.017 344.524 510.702 346.554 509.6 349.655C511.364 347.145 513.348 344.819 515.625 342.752ZM507.249 411.738C506.147 412.845 505.632 416.278 506.367 416.979C506.587 415.207 506.587 413.436 507.249 411.738ZM550.675 319.868C550.602 319.794 550.528 319.72 550.455 319.646C548.581 321.381 546.524 322.931 544.87 324.961C546.817 323.227 548.728 321.566 550.675 319.868ZM538.22 330.756C540.388 329.501 542.115 327.73 543.768 325.884C541.894 327.508 540.094 329.169 538.22 330.756Z" fill="#1E1E1E"/>
<path d="M562.358 347.108C562.726 347.698 562.579 348.104 562.358 348.695C561.77 350.134 560.595 351.242 560.374 352.829C560.301 353.382 559.86 353.825 559.566 354.305C558.868 355.523 558.758 356.963 558.133 358.144C557.545 359.288 557.288 360.506 556.7 361.613C556.37 362.204 556.48 362.942 556.076 363.496C555.782 363.865 555.121 366.264 555.01 366.707C554.827 367.851 554.569 368.996 554.349 370.14C554.312 370.324 554.239 370.546 553.945 370.509C553.651 370.472 553.541 370.583 553.651 370.841C554.055 371.764 553.577 372.576 553.21 373.314C552.181 375.418 551.3 377.596 550.381 379.736C550.197 380.179 549.389 380.032 549.683 380.881C549.83 381.324 549.352 382.062 549.022 382.616C548.691 383.169 548.471 383.76 548.177 384.313C546.009 388.447 544.025 392.692 542.151 396.974C541.123 399.336 539.874 401.624 538.771 403.987C538.477 404.577 538.294 405.242 538.11 405.869C537.926 406.46 537.669 407.272 536.971 407.641C536.824 407.715 536.751 407.752 536.714 407.899C535.832 410.631 533.518 412.07 531.423 413.694C529.954 414.838 528.117 415.54 526.427 416.315C525.398 416.795 524.406 417.607 523.194 417.754C521.981 417.939 520.769 418.16 519.52 418.16C518.307 418.197 517.205 417.902 516.213 417.201C515.699 416.831 515.625 416.389 515.846 415.798C516.397 414.358 517.242 413.14 518.564 412.292C519.079 411.959 519.593 411.664 519.924 411.147C520.144 410.778 520.548 411.258 520.989 410.815C522.569 409.265 523.524 407.382 524.516 405.5C526.574 401.587 528.154 397.454 529.623 393.32C530.284 391.511 530.615 389.628 530.909 387.746C531.093 386.565 531.203 385.347 531.313 384.166C531.35 383.612 531.57 383.169 532.268 383.501C532.673 383.686 532.783 383.391 533.003 383.206C533.15 383.058 533.113 382.874 532.966 382.763C532.746 382.542 532.526 382.763 532.342 382.874C531.57 383.243 531.35 383.022 531.387 382.173C531.497 379.884 531.534 377.559 530.946 375.307C530.652 374.163 530.248 373.093 529.697 372.059C528.117 369.069 526.059 366.375 524.259 363.533C522.936 361.466 521.577 359.362 521.283 356.815C521.21 356.225 520.732 355.486 521.577 355.006C521.614 354.97 521.651 354.896 521.651 354.859C521.504 352.533 521.577 352.46 523.157 350.836C524.186 349.765 525.435 349.027 526.684 348.436C531.35 346.296 535.281 343.121 539.139 339.762C543.841 335.665 548.103 331.089 552.99 327.25C558.317 323.005 564.452 320.126 570.919 318.133C574.335 317.063 576.87 319.646 576.136 323.227C575.401 326.807 574.041 330.129 572.241 333.303C570.184 336.957 567.832 340.39 565.555 343.896C564.93 344.856 564.416 345.89 563.644 346.775C563.313 347.255 563.02 347.661 562.358 347.108ZM526.721 403.359C527.015 403.322 527.088 403.101 527.198 402.916C528.521 400.333 529.476 397.564 530.689 394.944C531.276 393.689 531.056 392.138 532.011 391.031C532.158 390.847 532.121 390.662 531.901 390.551C531.607 390.404 531.423 390.625 531.387 390.883C531.24 391.843 530.799 392.692 530.468 393.578C529.66 395.903 528.962 398.229 527.86 400.443C527.419 401.329 526.904 402.289 526.721 403.359C525.949 404.466 525.361 405.648 524.884 406.939C525.472 405.721 526.537 404.762 526.721 403.359ZM552.622 333.746C551.447 334.263 550.859 335.407 550.014 336.293C548.911 336.957 548.287 338.101 547.295 338.877C545.605 340.242 543.841 341.534 542.262 343.011C538.955 346.074 535.318 348.547 531.313 350.503C529.807 351.242 528.08 351.389 526.794 352.644C526.023 353.419 525.067 354.047 524.994 355.228C524.884 357 525.178 358.734 526.023 360.358C527.602 363.311 529.733 365.932 531.607 368.7C533.554 371.579 535.281 374.532 535.722 378.112C536.126 381.545 535.906 384.941 535.685 388.374C535.648 389.075 535.171 389.739 535.171 390.514C535.134 391.622 535.134 392.877 534.436 393.799C533.15 395.46 532.746 397.454 531.901 399.299C531.644 399.89 531.791 400.775 531.276 401.255C530.578 401.883 530.395 402.695 530.064 403.433C529.917 403.728 529.733 404.024 529.513 404.282C528.741 405.057 528.264 406.054 527.749 406.903C526.721 408.6 525.545 410.114 524.075 411.443C523.671 411.812 522.973 411.775 522.753 412.365C522.496 412.956 522.018 413.399 521.54 413.805C521.026 414.211 520.806 414.765 520.585 415.429C520.953 415.54 521.173 415.392 521.43 415.281C522.936 414.728 524.222 413.731 525.692 413.067C528.264 411.885 530.395 410.188 532.121 407.936C533.407 406.238 534.252 404.319 535.171 402.436C536.971 398.672 538.845 394.944 540.535 391.142C541.49 389.001 542.482 386.897 543.547 384.83C545.311 381.361 546.854 377.817 548.397 374.274C549.61 371.432 550.638 368.479 551.3 365.452C551.887 362.795 552.879 360.285 553.871 357.738C555.745 352.939 557.656 348.141 560.742 343.933C563.497 340.168 566.326 336.404 568.824 332.454C570.698 329.501 572.315 326.438 573.123 322.968C573.196 322.599 573.49 322.119 573.16 321.861C572.903 321.639 572.462 321.935 572.131 322.082C568.604 323.485 565.261 325.146 561.991 327.028C561.403 327.361 560.889 328.136 559.97 327.767C559.86 327.73 559.566 327.877 559.64 328.062C559.897 328.616 559.382 328.616 559.162 328.726C557.876 329.575 556.59 330.461 555.341 331.347C554.275 332.011 553.577 333.045 552.622 333.746ZM533.591 407.604C534.289 406.46 535.134 405.426 535.722 404.171C537.008 401.329 538.514 398.561 539.763 395.682C541.6 391.4 543.547 387.155 545.789 383.058C545.936 382.8 546.046 382.542 545.678 382.173C541.196 390.514 537.963 399.336 533.591 407.604ZM552.365 329.317C554.974 327.397 557.656 325.552 560.521 324.039C563.424 322.488 566.4 321.049 569.376 319.683C563.313 322.156 557.288 324.777 552.365 329.317ZM544.319 336.994C544.246 336.92 544.209 336.847 544.135 336.736C541.343 339.135 538.588 341.571 535.795 343.97C535.869 344.044 535.906 344.118 535.979 344.192C538.771 341.793 541.564 339.393 544.319 336.994ZM526.684 349.654C524.59 350.06 522.459 352.017 522.679 353.346C523.671 351.685 525.141 350.614 526.684 349.654ZM545.825 381.84C545.936 381.877 546.009 381.951 546.119 381.988C546.45 381.139 547.368 380.512 546.928 379.367C546.56 380.179 546.193 381.028 545.825 381.84Z" fill="#1E1E1E"/>
<path d="M552.622 333.746C552.034 334.89 551.116 335.665 550.014 336.293C550.859 335.407 551.447 334.263 552.622 333.746Z" fill="#1E1E1E"/>
<path d="M450.499 339.601C450.585 339.688 450.643 339.716 450.701 339.774C450.787 339.486 450.787 339.227 450.557 338.997C450.701 338.997 450.758 338.997 450.816 338.997C450.845 338.968 450.902 338.91 450.902 338.881C450.845 338.622 450.96 338.363 451.075 338.162C451.219 337.931 451.478 337.758 451.392 337.413C451.392 337.384 451.392 337.355 451.392 337.327C451.881 336.981 451.939 336.319 452.342 335.916C452.486 335.772 452.486 335.973 452.63 336.002C452.687 335.426 452.601 334.793 453.148 334.274C453.148 334.274 453.292 334.246 453.407 334.246C453.494 334.217 453.465 334.188 453.407 334.13C453.234 333.986 453.234 333.785 453.378 333.67C453.782 333.238 453.925 332.691 454.185 332.201C454.645 331.28 455.221 330.445 455.739 329.552C456.258 328.66 456.805 327.796 457.381 326.932C458.129 325.809 458.878 324.657 459.655 323.563C460.174 322.843 460.692 322.124 461.153 321.375C461.613 320.655 462.189 320.022 462.679 319.331C463.255 318.524 463.917 317.776 464.464 316.941C464.723 316.509 465.155 316.192 465.443 315.789C466.566 314.234 467.977 312.939 469.33 311.585C469.56 311.355 469.819 311.067 470.28 311.096C470.136 311.528 469.992 311.902 469.675 312.19C469.215 312.622 468.783 313.082 468.351 313.514C468.121 313.745 467.861 313.918 467.689 314.177C467.516 314.436 467.286 314.609 467.113 314.868C466.94 315.127 466.739 315.328 466.537 315.559C466.22 315.991 465.846 316.365 465.472 316.768C465.011 317.286 464.694 317.891 464.262 318.409C463.802 318.928 463.427 319.532 462.995 320.079C462.851 320.252 462.65 320.367 462.679 320.655C462.679 320.77 462.506 320.914 462.391 321.001C461.988 321.346 461.728 321.836 461.441 322.268C461.153 322.728 460.865 323.189 460.548 323.621C459.684 324.917 458.849 326.212 457.957 327.479C457.381 328.285 457.006 329.207 456.402 329.984C456.402 330.359 455.97 330.445 455.883 330.79C455.826 331.05 455.711 331.337 455.48 331.568C455.308 331.741 455.106 331.913 455.02 332.144C454.904 332.403 454.818 332.633 454.674 332.864C454.53 333.094 454.415 333.353 454.242 333.555C454.069 333.756 454.012 334.044 453.839 334.246C453.753 334.361 453.81 334.591 453.609 334.591C453.407 334.591 453.378 334.706 453.407 334.85C453.465 335.109 453.263 335.311 453.177 335.541C453.062 335.599 452.918 335.484 452.774 335.628C453.033 336.088 452.572 336.463 452.601 336.895C452.14 336.981 452.313 337.47 452.112 337.701C451.881 337.96 451.939 338.305 451.737 338.565C451.42 338.997 451.248 339.515 451.046 340.004C450.816 340.465 450.614 340.926 450.355 341.358C450.24 341.53 450.269 341.617 450.441 341.789C449.894 342.02 450.182 342.855 449.491 342.999C449.549 343.085 449.635 343.172 449.635 343.229C449.463 343.719 449.376 344.208 449.117 344.669C448.915 345.014 448.714 345.417 448.714 345.821C448.714 346.022 448.599 346.195 448.512 346.281C448.023 346.972 447.965 347.778 447.764 348.556C447.591 349.161 447.361 349.765 447.188 350.341C446.929 351.09 446.641 351.81 446.497 352.587C446.41 353.048 446.18 353.508 446.065 353.969C445.979 354.315 445.806 354.631 445.863 354.977C445.921 355.236 445.633 355.409 445.662 355.697C445.662 355.812 445.46 356.013 445.547 356.157C445.662 356.359 445.201 356.417 445.489 356.589C445.374 356.935 445.345 357.309 445.144 357.597C444.856 358.087 444.884 358.634 444.74 359.152C444.51 359.987 444.596 360.879 444.251 361.714C444.395 362.089 443.934 362.463 444.251 362.837C444.337 362.924 444.107 363.068 444.078 363.241C443.963 364.133 443.733 365.026 443.79 365.947C443.79 366.149 443.531 366.321 443.761 366.523C443.502 366.725 443.646 367.012 443.617 367.243C443.589 367.473 443.704 367.761 443.589 367.934C443.33 368.395 443.704 368.798 443.617 369.23C443.531 369.604 443.704 370.007 443.445 370.353C443.416 370.41 443.416 370.525 443.445 370.583C443.704 370.871 443.617 371.216 443.589 371.533C443.531 372.08 443.819 372.57 443.761 373.117C443.761 373.174 443.905 373.261 444.021 373.376C444.021 372.858 444.193 372.368 443.934 371.879C443.877 371.763 443.905 371.591 443.905 371.418C443.905 370.496 443.934 369.575 443.905 368.682C443.905 368.279 444.136 367.905 444.078 367.502C444.021 367.128 443.963 366.667 444.107 366.35C444.251 365.976 444.107 365.573 444.28 365.256C444.452 364.911 444.308 364.536 444.395 364.191C444.568 363.471 444.539 362.693 444.712 361.974C444.856 361.369 444.942 360.764 445.115 360.188C445.144 360.044 444.884 359.987 445.115 359.843C445.259 359.757 445.144 359.555 445.172 359.411C445.172 359.267 445.374 359.238 445.345 359.094C445.287 358.922 445.489 358.806 445.489 358.691C445.518 358.317 445.575 357.943 445.633 357.568C445.777 356.848 445.979 356.129 446.151 355.409C446.497 355.178 446.151 354.775 446.41 354.487C446.612 354.286 446.554 353.911 446.612 353.624C446.842 352.673 447.101 351.752 447.418 350.831C447.649 350.197 447.936 349.564 448.023 348.873C448.052 348.585 448.224 348.268 448.368 348.009C448.743 347.203 448.944 346.368 449.232 345.533C449.376 345.13 449.578 344.784 449.75 344.41C450.01 343.776 450.125 343.114 450.499 342.509C450.729 342.135 450.729 341.588 451.133 341.271C450.96 340.839 451.42 340.609 451.478 340.235C451.536 339.86 451.824 339.544 451.939 339.169C452.054 338.824 452.227 338.507 452.399 338.19C452.572 337.874 452.774 337.557 452.947 337.24C453.062 337.24 453.148 337.24 453.321 337.24C453.263 337.067 453.119 336.895 453.177 336.722C453.234 336.607 453.35 336.635 453.436 336.607C453.465 336.549 453.494 336.52 453.494 336.463C453.494 335.916 453.695 335.426 453.983 335.023C454.501 334.303 454.789 333.497 455.192 332.777C455.682 331.913 456.229 331.05 456.69 330.186C457.237 329.149 457.957 328.199 458.532 327.191C458.907 326.471 459.425 325.838 459.886 325.147C460.462 324.283 461.095 323.448 461.642 322.584C462.103 321.864 462.621 321.231 463.111 320.54C463.6 319.849 464.061 319.129 464.637 318.496C465.126 317.92 465.529 317.286 465.99 316.71C466.479 316.048 467.026 315.444 467.516 314.753C467.833 314.321 468.207 313.86 468.61 313.457C469.301 312.766 469.963 312.075 470.654 311.412C470.741 311.326 470.798 311.182 471 311.211C471.202 311.412 471.086 311.614 470.914 311.816C471.288 311.902 471.317 311.528 471.576 311.528C471.72 311.556 471.749 311.7 471.864 311.758C471.605 311.844 471.921 312.046 471.777 312.132C471.633 312.247 471.749 312.449 471.547 312.507C471.576 312.679 471.777 312.535 471.864 312.766C471.633 313.082 471.374 313.428 471.086 313.774C470.885 314.004 470.654 314.205 470.51 314.493C470.395 314.724 470.05 314.839 470.107 315.184C470.107 315.242 469.992 315.242 469.935 315.3C469.56 315.559 469.215 316.077 469.013 316.595C468.898 316.883 468.696 317.142 468.524 317.401C468.207 317.833 467.833 318.265 467.545 318.726C467.487 318.812 467.401 318.841 467.314 318.899C466.911 319.129 466.623 319.446 466.508 319.935C466.451 320.194 466.364 320.252 466.076 320.54C465.932 320.684 465.817 320.857 465.731 321.001C465.27 321.634 464.867 322.325 464.406 322.959C464.118 323.333 464.147 323.88 463.715 324.168C463.802 324.513 463.456 324.629 463.312 324.859C462.967 325.406 462.477 325.924 462.304 326.558C462.247 326.788 461.844 326.644 461.959 326.961C461.585 327.479 461.383 328.084 461.009 328.602C460.865 328.804 460.606 328.976 460.577 329.178C460.519 329.61 459.972 329.811 460.058 330.301C459.627 330.502 459.627 330.934 459.454 331.28C459.339 331.568 459.022 331.712 458.964 332.086C458.936 332.403 458.676 332.691 458.504 332.979C458.331 333.267 458.072 333.526 458.014 333.871C457.611 333.929 457.611 334.332 457.496 334.591C457.352 334.879 457.122 335.109 457.122 335.455C457.122 335.714 456.661 335.656 456.805 336.031C456.891 336.261 456.632 336.434 456.546 336.635C456.459 336.837 456.459 337.096 456.114 337.096C456.027 337.096 455.912 337.24 455.855 337.355C455.595 337.758 455.567 338.334 455.077 338.593C455.106 338.881 454.847 339.112 454.818 339.342C454.76 340.119 454.271 340.695 453.954 341.358C453.724 341.847 453.695 342.423 453.234 342.797C453.321 343.2 452.918 343.459 452.889 343.834C452.831 344.266 452.486 344.554 452.428 344.986C452.371 345.389 452.112 345.734 451.968 346.137C451.939 346.195 451.852 346.252 451.766 346.339C451.968 347.03 451.219 347.577 451.334 348.383C451.478 348.066 451.593 347.865 451.737 347.548C451.766 348.268 451.363 348.757 451.248 349.305C451.133 349.852 450.845 350.399 450.672 350.946C450.47 351.493 450.211 352.011 450.096 352.587C449.952 353.163 449.693 353.681 449.578 354.257C449.463 354.833 449.232 355.38 449.059 355.956C448.944 355.956 448.829 355.985 448.714 355.985C448.397 356.388 448.57 356.906 448.34 357.309C448.311 357.367 448.368 357.482 448.34 357.539C447.994 357.971 448.08 358.518 447.879 359.008C447.649 359.497 447.764 360.044 447.562 360.534C447.332 361.11 447.332 361.743 447.13 362.319C447.015 362.607 447.188 362.981 446.929 363.269C447.015 363.73 446.842 364.162 446.756 364.623C446.698 365.026 446.583 365.4 446.612 365.803C446.238 366.091 446.67 366.609 446.295 366.926C446.238 366.984 446.295 367.128 446.295 367.243C446.353 367.905 446.151 368.539 446.065 369.172C446.036 369.374 446.238 369.517 446.151 369.719C445.835 370.525 446.065 371.36 445.979 372.166C445.95 372.512 446.036 372.8 446.209 373.088C446.238 373.059 446.295 373.03 446.324 373.001C446.756 373.117 446.842 373.462 446.756 373.808C446.67 374.096 446.353 374.067 446.094 374.038C445.95 374.297 445.835 374.614 445.46 374.528C445.23 374.47 445.086 374.614 444.884 374.7C444.683 374.585 444.51 374.412 444.308 374.384C443.877 374.355 443.675 374.067 443.502 373.75C443.33 373.433 443.243 373.088 443.157 372.714C442.926 371.706 443.042 370.727 443.013 369.719C442.984 368.711 443.013 367.732 443.013 366.725C443.013 366.379 443.243 366.062 443.186 365.688C443.157 365.342 443.042 364.968 443.33 364.651C443.214 364.076 443.56 363.557 443.502 362.981C443.445 362.262 443.646 361.542 443.819 360.851C443.848 360.707 443.848 360.505 443.905 360.39C443.992 360.217 443.992 360.016 443.963 359.872C443.905 359.555 444.107 359.296 444.165 359.008C444.193 358.691 444.308 358.403 444.28 358.115C444.424 358 444.539 358.087 444.596 357.885C444.337 357.597 444.452 357.28 444.568 356.906C444.798 356.186 444.971 355.438 445.057 354.66C445.086 354.43 445.172 354.199 445.259 353.969C445.46 353.393 445.662 352.817 445.691 352.126C445.777 352.069 445.892 351.982 445.979 351.925C446.007 351.752 445.806 351.781 445.892 351.637C446.007 351.349 446.18 351.061 446.151 350.715C446.151 350.658 446.151 350.629 446.18 350.571C446.238 350.427 446.612 350.399 446.324 350.14C446.612 350.024 446.382 349.708 446.583 349.535C446.698 349.42 446.727 349.161 446.756 348.988C446.785 348.786 446.929 348.642 446.957 348.441C446.986 348.038 447.418 347.75 447.245 347.347C447.303 347.203 447.447 347.26 447.533 347.203C447.476 346.943 447.677 346.224 447.936 345.849C447.994 345.878 448.08 345.907 448.167 345.965C448.196 345.907 448.224 345.849 448.224 345.821C448.138 345.59 447.936 345.389 448.196 345.158C448.224 344.611 448.484 344.122 448.714 343.661C448.915 343.258 449.031 342.855 449.146 342.423C449.261 342.02 449.635 341.732 449.635 341.3C450.067 340.753 450.067 340.091 450.499 339.601ZM454.904 337.845C454.76 337.701 455.077 337.73 454.933 337.586C454.789 337.47 454.876 337.298 454.818 337.154C454.789 337.096 454.76 337.067 454.703 337.125C454.588 337.298 454.76 337.528 454.617 337.701C454.53 337.73 454.444 337.73 454.386 337.758C454.473 338.018 454.789 338.104 454.847 338.334C454.732 338.737 454.444 338.651 454.156 338.68C454.127 338.68 454.098 338.737 454.069 338.766C454.185 338.91 454.386 338.737 454.473 338.853C454.703 339.198 454.242 339.083 454.242 339.371C454.242 339.342 454.415 339.313 454.329 339.428C454.213 339.515 454.012 339.371 453.897 339.544C454.012 339.976 453.897 340.292 453.465 340.839C453.494 340.868 453.551 340.926 453.58 340.954C453.522 341.098 453.321 340.983 453.263 341.127C453.206 341.271 453.378 341.329 453.407 341.444C452.975 342.164 452.975 342.164 452.947 342.596C452.774 342.74 452.515 342.941 452.284 343.143C452.169 343.373 452.428 343.488 452.457 343.632C452.227 343.834 452.025 344.093 452.025 344.41C452.025 344.64 451.91 344.784 451.852 344.986C451.708 345.417 451.536 345.849 451.392 346.281C451.363 346.368 451.334 346.483 451.507 346.512C451.651 346.281 451.766 346.08 451.852 345.792C452.025 345.216 452.227 344.64 452.486 344.093C452.745 343.546 452.831 342.941 453.234 342.452C453.321 342.337 453.378 342.135 453.436 341.991C453.724 341.127 454.156 340.292 454.559 339.486C454.789 339.025 455.106 338.622 455.135 338.075C455.135 338.018 455.106 337.989 455.106 337.931C455.02 337.902 454.933 337.845 454.904 337.845Z" fill="#1E1E1E"/>
<path d="M456.085 316.509C456.114 316.825 455.768 317.113 455.999 317.43C456.2 317.516 456.258 317.315 456.402 317.228C456.373 316.768 456.546 316.393 456.776 315.99C457.006 315.587 457.352 315.271 457.525 314.81C457.697 314.378 458.014 314.004 458.273 313.629C458.532 313.226 458.82 312.852 459.08 312.478C459.281 312.161 459.483 311.844 459.713 311.556C460.289 310.894 460.778 310.174 461.325 309.483C461.613 309.109 461.93 308.821 462.218 308.447C462.707 307.813 463.312 307.295 463.802 306.661C464.32 305.999 464.982 305.452 465.529 304.79C466.739 303.321 468.178 302.083 469.503 300.701C469.704 300.471 469.935 300.269 470.165 300.039C470.626 299.549 471.086 299.002 471.749 298.772C472.008 298.686 471.893 298.398 472.152 298.254C472.382 298.138 472.641 297.908 472.843 297.649C473.016 297.39 473.303 297.217 473.534 297.016C473.793 296.756 474.11 296.526 474.398 296.267C474.686 296.238 475.002 296.181 475.29 296.152C475.348 296.152 475.377 296.065 475.405 296.008C475.348 295.864 475.089 296.037 475.117 295.72C475.319 295.461 475.578 295.173 476.01 295C476.096 295.029 476.039 295.173 476.068 295.23C476.125 295.288 476.24 295.346 476.096 295.461C475.952 295.576 476.183 295.605 476.183 295.691C476.01 295.864 475.78 295.691 475.607 295.777C475.377 296.008 475.78 296.065 475.693 296.267C475.549 296.411 475.319 296.497 475.089 296.584C475.089 296.67 475.089 296.785 475.089 296.872C474.714 297.275 474.081 297.361 473.908 297.937C473.822 298.225 473.419 298.138 473.332 298.484C473.275 298.714 472.958 298.772 472.728 298.887C472.584 298.916 472.555 298.772 472.44 298.743C472.267 299.031 472.612 299.089 472.699 299.29C472.584 299.405 472.44 299.549 472.324 299.665C472.267 299.607 472.209 299.578 472.152 299.521C472.008 299.693 471.72 299.665 471.605 299.895C471.547 300.068 471.662 300.125 471.749 300.212C471.662 300.298 471.605 300.356 471.518 300.442C471.461 300.384 471.403 300.356 471.345 300.298C471.23 300.701 471.23 300.701 470.914 301.047C470.712 301.047 470.914 300.73 470.539 300.759C470.338 300.845 470.51 301.421 470.05 301.421C470.107 301.507 470.165 301.565 470.251 301.709C469.963 301.939 469.733 302.227 469.474 302.457C469.157 302.688 469.013 303.033 468.697 303.264C468.581 303.264 468.409 303.264 468.207 303.264C468.207 303.523 467.89 303.638 467.861 303.868C467.746 304.646 467.113 305.02 466.623 305.452C466.451 305.625 466.191 305.711 466.134 305.97C466.105 306.057 466.076 306.114 465.99 306.114C465.587 306.114 465.385 306.345 465.356 306.719C465.328 306.92 465.213 307.036 465.011 307.036C464.665 307.036 464.579 307.324 464.435 307.468C464.435 307.755 464.694 307.583 464.752 307.755C464.55 307.784 464.55 308.216 464.205 307.986C464.176 307.986 464.003 308.101 464.003 308.187C464.003 308.475 463.888 308.677 463.658 308.821C463.715 309.195 463.427 309.397 463.197 309.569C462.909 309.829 462.707 310.174 462.506 310.462C462.247 310.836 461.959 311.153 461.556 311.383C461.441 311.441 461.354 311.556 461.268 311.614C461.297 311.93 461.239 312.132 461.066 312.362C460.462 313.111 459.857 313.86 459.396 314.723C459.252 315.011 458.964 315.127 458.676 315.155C458.475 315.184 458.417 315.328 458.331 315.386C458.504 315.875 457.957 316.221 458.187 316.653C457.957 316.797 457.784 316.681 457.582 316.768C457.467 317.171 457.352 317.632 457.208 318.063C457.266 318.207 457.467 318.063 457.525 318.294C457.496 318.467 457.237 318.668 457.41 319.042C457.237 318.87 457.179 318.841 457.122 318.783C456.978 318.841 457.122 319.042 456.949 319.1C456.718 319.129 456.661 318.898 456.546 318.812C456.344 318.927 456.114 319.014 455.912 319.129C455.711 318.956 455.826 318.841 455.941 318.726C455.855 318.611 455.797 318.467 455.596 318.467C455.394 318.467 455.567 318.697 455.394 318.783C455.02 318.38 455.538 317.92 455.25 317.488C455.423 317.372 455.538 317.286 455.653 317.171C455.596 317.085 455.538 317.056 455.48 316.998C455.596 316.768 455.711 316.509 455.855 316.278C455.855 316.278 455.912 316.278 455.941 316.278C456.027 316.365 456.085 316.422 456.085 316.509Z" fill="#1E1E1E"/>
<path d="M456.085 316.509C456.085 316.394 456.027 316.336 455.941 316.365C455.883 315.789 456.258 315.386 456.517 314.954C456.92 314.234 457.409 313.543 457.87 312.852C458.216 312.334 458.619 311.844 458.993 311.355C459.511 310.664 460.087 310.059 460.548 309.339C460.836 308.936 461.21 308.591 461.556 308.188C462.016 307.64 462.419 307.036 462.967 306.575C463.255 306.316 463.542 306.086 463.715 305.711C463.802 305.539 463.946 305.395 464.176 305.337C464.291 305.308 464.32 305.049 464.464 304.905C465.702 303.552 466.969 302.227 468.293 300.932C469.1 300.125 469.992 299.406 470.798 298.628C471.461 297.995 472.152 297.419 472.871 296.872C473.159 296.67 473.361 296.325 473.764 296.238C473.908 296.382 473.879 296.526 473.735 296.584C472.958 297.073 472.267 297.678 471.662 298.369C471.461 298.599 471.144 298.686 470.942 298.916C470.77 299.118 470.597 299.348 470.309 299.434C470.136 299.492 469.935 299.693 469.877 299.866C469.762 300.154 469.503 300.269 469.33 300.5C469.157 300.73 468.927 300.845 468.725 301.047C468.437 301.306 468.293 301.709 467.89 301.853C467.861 302.256 467.401 302.256 467.286 302.515C467.142 302.832 466.854 302.918 466.652 303.149C466.479 303.379 466.307 303.609 466.076 303.811C465.846 304.012 465.616 304.243 465.414 304.473C465.184 304.704 464.953 304.905 464.752 305.135C464.55 305.366 464.377 305.625 464.176 305.826C463.744 306.316 463.398 306.834 462.938 307.295C462.419 307.756 462.016 308.36 461.584 308.907C461.153 309.454 460.749 310.059 460.26 310.549C459.886 310.923 459.742 311.441 459.31 311.729C459.281 312.103 458.878 312.276 458.734 312.593C458.619 312.823 458.417 313.14 458.129 313.284C457.985 313.37 457.985 313.773 457.841 313.831C457.553 313.917 457.64 314.119 457.553 314.263C457.496 314.378 457.438 314.551 457.352 314.637C456.891 315.184 456.574 315.818 456.287 316.48C456.2 316.509 456.143 316.509 456.085 316.509Z" fill="#1E1E1E"/>
</g>
</svg>
