<svg width="1170" height="300" viewBox="0 0 1170 300" fill="none" xmlns="http://www.w3.org/2000/svg">
<mask id="mask0_31_529" style="mask-type:alpha" maskUnits="userSpaceOnUse" x="0" y="0" width="1170" height="300">
<rect width="1170" height="300" rx="30" fill="white"/>
</mask>
<g mask="url(#mask0_31_529)">
<path d="M109.432 70.6987C108.547 71.3974 108.174 72.3756 107.988 73.4469C107.895 74.0524 107.336 74.1456 106.916 74.2387C106.544 74.3319 106.218 74.3319 105.938 74.658C105.799 74.7977 105.426 74.7977 105.286 74.7045C104.774 74.3785 104.215 74.1456 103.749 73.773C102.119 72.329 100.908 70.5124 99.7432 68.6958C98.5788 66.8327 97.3677 64.9695 96.4827 62.9666C96.2032 62.3145 96.2032 62.3611 96.9019 61.8487C97.4609 62.92 97.9732 63.9914 98.5788 65.0627C99.0446 65.9011 99.6501 66.6464 100.256 67.5314C100.395 67.2053 100.395 66.9724 100.162 66.6464C98.998 64.9695 97.8801 63.2461 96.9951 61.2432C97.1348 61.15 97.3211 61.0569 97.4609 60.9171C97.5074 60.9637 97.6006 61.0103 97.7403 61.15C97.7403 60.8706 97.7403 60.6842 97.7403 60.4514C98.1596 60.3582 98.5322 60.3116 99.0446 60.1719C99.4172 60.3582 99.6035 61.0103 100.256 61.1035C100.256 61.8021 100.815 62.1282 101.141 62.6406C101.513 63.2461 102.026 63.805 102.398 64.2708C102.817 64.2243 103.097 64.1777 103.423 64.1311C104.494 64.0379 104.494 64.0845 105.146 64.69C105.892 65.3422 106.404 66.2737 107.382 66.6929C107.429 66.7395 107.522 66.8327 107.522 66.8793C107.569 67.5779 107.941 67.8108 108.593 67.9972C109.152 68.1369 109.292 68.6958 109.339 69.2548C109.292 69.674 109.385 70.0932 109.432 70.6987Z" fill="#1E1E1E"/>
<path d="M13.3857 -9.60356C14.1775 -9.23093 14.1775 -9.23093 14.5502 -10.0228C15.0625 -10.2091 15.7146 -9.83646 16.1804 -10.3022C16.7394 -10.1625 17.2518 -9.97619 17.8107 -9.92961C18.6957 -9.78988 19.1615 -9.13777 19.6273 -8.57882C19.9533 -8.20619 20.326 -7.78698 20.6054 -7.36777C20.9781 -6.8554 21.3973 -6.43619 21.7699 -5.92382C22.096 -5.45803 22.3755 -4.99224 22.6549 -4.52645C22.7481 -4.38671 22.8412 -4.24697 22.8412 -4.10723C22.7947 -3.7346 22.9344 -3.50171 23.2139 -3.22223C23.7262 -2.70986 23.6797 -1.9646 23.866 -1.35907C24.0057 -0.753544 23.9126 -0.101436 23.866 0.550671C23.866 0.783566 23.8194 1.29593 23.307 0.923303C23.2605 0.876723 23.0741 1.10962 22.981 1.1562C22.8412 1.24936 22.6083 1.38909 22.5618 1.34251C22.0028 0.830143 21.8631 1.20278 21.6302 1.66857C21.2576 2.36725 21.0247 2.32067 19.9999 2.13436C19.3944 2.0412 18.7423 1.99462 18.3697 1.48225C17.3915 0.0383015 16.4133 -1.40565 16.2736 -3.22223C16.227 -3.9675 15.9941 -4.71276 15.3886 -5.27171C14.8762 -5.7375 14.5036 -6.38961 13.8049 -6.6225C13.572 -6.71566 13.4323 -6.94856 13.246 -7.13487C12.8733 -7.55408 12.687 -7.97329 12.687 -8.57882C12.687 -9.13777 13.1528 -9.27751 13.3857 -9.60356Z" fill="#1E1E1E"/>
<path d="M95.7373 38.5122C95.1318 37.9067 94.5729 37.2546 93.9673 36.7422C92.1973 35.2982 91.3589 33.2022 90.2876 31.2924C89.8218 30.4074 89.9615 29.4759 89.9615 28.4977C89.9615 28.358 90.1944 28.1716 90.3342 27.9853C90.5205 28.358 90.6602 28.684 90.9397 29.1498C90.9397 28.4511 90.9397 27.8922 90.9397 27.4264C91.3123 27.2401 91.685 27.1469 91.9179 26.914C92.2439 26.6345 92.57 26.6811 92.8494 26.7743C93.1755 26.8674 93.455 27.1469 93.781 27.3332C93.5947 28.2648 93.9673 29.0101 94.3866 29.8019C94.8058 29.7088 95.2716 29.9882 95.6442 29.569C95.7373 29.4759 96.0168 29.4759 96.11 29.569C97.0881 30.1745 98.2992 30.454 98.765 31.6651C98.8581 31.898 98.9513 32.1774 99.1376 32.2706C99.4171 32.4103 99.1842 32.8761 99.6034 32.8761C99.976 32.8761 99.7431 33.2953 99.7897 33.4817C99.8829 33.7611 99.976 33.994 100.023 34.2735C100.069 34.5064 100.023 34.7859 100.023 35.0188C99.0445 35.8572 98.4389 36.9285 97.9266 38.093C97.2745 38.2793 96.4826 38.3725 95.7373 38.5122Z" fill="#1E1E1E"/>
<path d="M10.2184 13.639C10.2184 14.5706 10.2184 15.4556 10.2184 16.3872C10.4513 15.6885 10.4047 14.9898 10.4513 14.2911C10.4513 14.0117 10.3115 13.6856 10.6842 13.4993C11.0102 13.313 11.3828 13.1732 11.7555 13.0801C11.8952 13.0801 12.1281 13.3596 12.2213 13.5459C12.3144 13.7788 12.2213 14.0117 12.2213 14.2911C12.4542 14.198 12.5473 14.1048 12.6871 14.1048C12.9199 14.1514 13.246 14.3377 13.3392 14.2446C13.9913 13.7788 14.7365 14.0582 15.3886 14.0582C15.7147 14.0582 16.1805 14.2446 16.3202 14.4774C16.6928 15.083 17.4381 15.2693 17.8107 16.0146C17.8107 16.3406 17.8573 16.7132 18.1834 17.1325C18.6026 17.6914 18.9752 18.3435 18.8355 19.1354C18.7889 19.508 18.8355 19.8806 18.8355 20.3464C17.9505 20.8588 17.0655 21.3711 16.2271 21.9301C15.3421 22.5356 14.5036 22.1164 13.7118 21.6972C13.1528 21.4177 12.4076 21.278 12.2213 20.4861C10.9636 19.9272 10.7307 18.5764 10.0786 17.5982C9.61283 16.9461 9.65941 16.1543 9.51968 15.4556C9.42652 14.8501 9.84573 14.198 10.032 13.5459C10.032 13.5924 10.1252 13.5924 10.2184 13.639Z" fill="#1E1E1E"/>
<path d="M34.7656 27.3802C34.2532 26.8678 33.6477 26.2623 33.0422 25.6568C33.0422 25.2376 32.9956 24.7252 33.0422 24.2594C33.0888 24.0731 33.3217 23.8868 33.508 23.7936C33.6011 23.747 33.7875 23.9334 33.9272 23.9799C34.1135 23.6073 34.2067 23.1415 34.8588 23.2347C34.9519 23.2347 35.1382 23.2812 35.2314 23.1881C35.5575 22.9552 35.8835 22.6757 36.2561 22.7689C36.9548 22.9552 37.7467 23.0949 38.3056 23.5607C39.4235 24.5389 40.4483 25.6102 41.0072 27.0076C41.3333 27.846 41.6127 28.731 41.799 29.5694C41.8456 29.942 41.7525 30.501 41.3333 30.7805C40.6346 31.2928 39.9359 31.8518 39.1906 32.3176C38.9577 32.5039 38.5851 32.5971 38.3056 32.5505C36.4425 32.4107 35.1382 31.5257 34.5793 29.4297C34.4861 29.1036 34.2998 28.8242 34.3464 28.5447C34.393 28.172 34.6259 27.7994 34.7656 27.3802Z" fill="#1E1E1E"/>
<path d="M37.9327 73.2601C37.8862 73.0272 37.8396 72.7477 37.793 72.5148C37.793 73.5396 36.7217 73.9122 36.4888 74.7506C36.3956 75.0767 35.9298 75.2164 35.7435 75.0301C35.4175 74.7506 35.2312 74.9369 35.0448 75.0767C34.5791 75.3561 34.2064 75.3561 33.7406 75.0767C32.3898 74.2848 30.9925 73.5396 30.2006 72.0956C29.2225 71.5832 28.943 70.5119 28.3375 69.7201C28.058 69.3474 27.9648 68.7885 27.7319 68.2761C28.1046 67.7638 28.6169 67.9035 29.2225 68.2296C29.1759 67.9501 29.1759 67.6706 29.0361 67.4843C28.8498 67.2514 29.0361 67.1582 29.1293 67.1117C29.5485 66.9253 30.0143 66.7856 30.3869 66.4595C30.4801 66.3664 30.713 66.413 30.8993 66.4595C31.1788 66.5527 31.4117 66.739 31.7377 66.4595C31.8309 66.3664 32.1104 66.5527 32.2967 66.5993C33.8338 67.2514 35.2312 68.0898 36.1162 69.6269C36.2559 69.8132 36.5354 70.0461 36.7217 70.2325C37.3272 70.7914 37.4204 71.5832 37.8862 72.1888C38.2122 72.5148 38.1191 72.8409 37.9327 73.2601Z" fill="#1E1E1E"/>
<path d="M115.068 14.0584C115.114 13.8255 115.114 13.5926 115.161 13.3131C115.254 13.3597 115.347 13.4062 115.347 13.4528C115.673 14.2447 116.092 14.9899 116.279 15.8749C116.418 16.4339 116.558 16.9463 116.046 17.3189C115.673 17.5984 116.046 18.4368 115.254 18.3902C114.881 18.9957 114.276 18.9492 113.717 18.9026C113.577 19.3218 113.484 19.6944 113.344 20.067C113.158 20.4397 112.552 20.5794 111.9 20.3931C111.761 20.3465 111.621 20.2068 111.481 20.2068C110.41 20.2999 110.41 20.2999 109.991 19.4615C109.758 19.0423 109.478 18.6697 109.338 18.2039C109.106 17.6915 108.779 17.3189 108.267 17.1326C107.475 16.8065 106.963 16.1078 106.823 15.2694C106.683 14.5241 107.056 13.8255 107.708 13.3131C108.034 13.7323 108.36 14.1515 108.826 14.757C108.826 14.1515 108.826 13.7323 108.826 13.3131C108.826 12.8939 108.873 12.987 109.525 12.7076C109.991 12.5212 110.643 12.7541 110.922 12.102C111.388 12.102 111.854 12.0555 112.319 12.0555C113.158 12.0089 113.903 12.102 114.322 13.0336C114.369 13.4062 114.742 13.6857 115.068 14.0584Z" fill="#1E1E1E"/>
<path d="M83.3472 78.617C82.6951 78.617 82.0896 78.4307 81.7635 79.1294C81.2046 78.4307 81.158 77.9183 81.717 77.3594C82.0896 76.9867 82.3225 76.4744 82.8349 76.1483C83.2541 75.8688 83.3938 75.2167 83.7664 74.7975C84.0459 74.4715 84.4651 74.2851 84.8378 74.0522C84.9309 74.1454 85.0707 74.2851 85.257 74.4715C85.0707 74.6112 84.8378 74.7509 84.6514 74.8907C84.6514 74.9372 84.698 74.9838 84.698 75.0304C84.9775 74.9838 85.257 74.9372 85.583 74.8907C85.6762 75.0304 85.7693 75.3565 86.0022 75.4496C87.3064 76.1017 88.1449 77.2662 88.8901 78.3841C89.1696 78.7567 89.2162 79.2691 89.4491 79.6883C89.9614 80.7131 90.1012 80.8994 89.9615 81.8775C89.8683 82.5762 89.7286 83.2749 89.1696 83.8338C88.9367 84.0667 88.7504 84.3462 88.7038 84.6723C88.6572 85.371 88.2846 85.5107 87.7257 85.4641C87.5859 85.4641 87.3996 85.4641 87.2599 85.5107C86.2817 85.7902 86.142 85.7436 85.6762 84.9983C84.9309 83.8804 84.6049 82.5762 84.1391 81.3186C83.813 80.4336 83.5801 79.502 83.3472 78.617Z" fill="#1E1E1E"/>
<path d="M67.1842 64.69C66.4856 64.2708 65.7869 63.9447 65.1814 63.3392C64.11 62.2679 62.9456 61.2431 61.9674 60.0787C60.9427 58.8676 59.8248 57.6565 59.2192 56.2592C59.2658 55.7002 60.0111 56.3058 60.0111 55.6536C60.0111 55.4673 60.4769 55.281 60.7563 55.0947C61.4085 54.6289 61.7345 54.5823 62.2003 55.0481C62.6661 55.5139 63.1785 55.7002 63.784 55.84C64.7156 56.0263 65.3677 56.7715 66.1595 57.1908C66.9979 57.6565 67.6035 58.4018 68.3022 59.0539C68.6748 59.38 69.094 59.6594 69.42 60.0321C69.7461 60.4047 70.0256 60.8705 70.1187 61.3363C70.1653 61.6158 69.979 62.035 69.7461 62.3144C69.4666 62.6405 69.3735 63.0597 68.9077 63.246C68.6282 63.3392 68.6748 63.6187 68.6282 63.8981C68.5816 64.1776 68.4885 64.5502 67.9761 64.1776C67.6035 63.8981 67.324 64.2708 67.1842 64.69Z" fill="#1E1E1E"/>
<path d="M118.328 57.3302C116.884 56.7247 116.279 55.6068 115.627 54.5355C115.068 53.6039 114.602 52.5791 114.183 51.601C113.763 50.5762 113.065 49.6447 113.391 48.3404C114.322 48.9925 114.229 50.2036 115.114 50.9954C114.974 49.6912 114.276 48.7131 113.95 47.3623C114.415 47.5952 114.602 47.6883 114.788 47.8281C114.835 47.5952 114.881 47.3623 114.928 47.1294C115.3 47.0362 115.673 46.9896 116.139 46.8965C116.279 47.0828 116.418 47.3623 116.605 47.6418C117.303 48.6665 117.35 48.6665 118.654 49.1323C118.794 49.1789 118.934 49.272 119.073 49.3652C120.098 50.0173 120.983 50.716 121.542 51.8339C121.728 52.2531 122.008 52.9983 122.008 53.4176C122.008 53.5107 122.101 53.6505 122.148 53.7436C122.334 53.9765 122.241 54.1628 122.054 54.256C121.495 54.582 121.216 55.2341 120.75 55.6068C120.517 55.7465 120.517 55.9794 120.471 56.2589C120.424 56.6315 119.725 57.0973 119.353 57.0041C119.167 56.9576 119.027 56.5849 118.747 56.8644C118.561 57.0041 118.468 57.1905 118.328 57.3302Z" fill="#1E1E1E"/>
<path d="M77.1988 27.7526C76.9659 27.7992 76.733 27.8458 76.4069 27.8924C76.5467 28.1253 76.6398 28.3116 76.733 28.4979C76.1275 29.1034 75.5219 29.7089 74.8698 30.3611C74.7767 30.3611 74.6369 30.3611 74.4972 30.3611C73.0532 30.6405 72.1217 29.8021 71.3298 28.8239C70.7243 28.0787 70.1653 27.2403 69.7461 26.3087C69.4667 25.7497 69.2803 25.1908 69.4201 24.4455C69.8393 25.3771 70.2585 26.2621 70.6311 27.1005C70.6777 27.1005 70.7709 27.0539 70.8174 27.0539C70.7709 26.9142 70.7709 26.7279 70.7243 26.5881C70.4448 25.9826 70.1653 25.3771 69.9325 24.7716C69.8393 24.4921 69.6064 24.166 70.1653 24.0263C70.3517 23.9797 70.4448 23.6071 70.5846 23.3742C70.7243 23.1879 70.8174 22.955 70.9106 22.8152C71.5161 22.7687 71.5161 23.281 71.8888 23.5139C71.7956 23.1879 71.7024 22.8618 71.6093 22.4426C71.7956 22.3029 72.0751 22.07 72.308 21.8837C72.4477 22.0234 72.6806 22.3029 72.8669 21.8371C73.0998 21.3247 73.3793 21.1384 73.8917 21.4645C73.9382 21.511 74.0314 21.511 74.078 21.511C74.6835 21.0452 75.0096 21.511 75.289 21.8837C75.9411 22.7687 76.2672 23.84 76.6398 24.8647C76.733 25.0976 76.9193 25.6566 76.2672 25.7031C76.2206 25.7031 76.2206 25.936 76.174 26.0292C76.3138 26.0758 76.5467 26.1689 76.5933 26.1224C76.9659 25.7497 77.1988 26.2155 77.1522 26.3087C76.9659 26.6813 77.4783 27.1937 77.1988 27.7526Z" fill="#1E1E1E"/>
<path d="M72.5876 0.643671C72.7273 0.783408 72.8671 0.923146 73.1 1.15604C73.1466 0.783409 73.1931 0.503934 73.1931 0.177881C73.7055 0.0847226 74.2645 -0.0550131 74.8234 -0.148171C75.1495 -0.19475 75.5221 -0.19475 75.8481 -0.148171C76.081 -0.101592 75.8947 0.364197 76.3605 0.410776C76.6866 0.457355 76.9195 0.969725 77.1058 1.29578C77.2921 1.57525 77.0126 2.22736 77.6647 2.18078C77.6647 2.59999 77.7113 3.0192 77.7113 3.43841C77.7113 3.48499 77.7113 3.53157 77.7113 3.57815C78.3168 4.18368 78.9689 4.83579 79.621 5.48789C79.8074 5.48789 80.0403 5.44131 80.2266 5.48789C80.5526 5.53447 80.8787 5.86052 80.7389 6.04684C80.3663 6.46605 81.0184 6.79211 80.7855 7.11816C79.8074 7.39763 79.4813 7.44421 78.6895 7.30448C78.8758 7.72369 79.0621 8.09632 79.295 8.60869C79.1553 8.74842 79.0155 9.0279 78.8292 9.0279C77.8045 9.0279 76.6866 9.30737 75.755 8.56211C75.5221 8.37579 75.196 8.18948 75.0097 7.95658C74.5439 7.39763 74.1713 6.79211 73.7521 6.18658C73.5658 5.9071 73.3795 5.58105 73.1931 5.30158C72.9137 4.83578 72.9602 4.18368 72.4479 3.85763C72.541 3.29868 72.215 2.87947 72.0287 2.41368C71.7026 1.62183 71.8889 1.0163 72.5876 0.643671Z" fill="#1E1E1E"/>
<path d="M31.3652 43.403C31.5515 43.6825 31.6912 43.9154 31.9707 44.3346C32.0173 43.9154 32.0638 43.7291 32.0638 43.5893C32.1104 43.077 32.1104 43.077 32.7625 43.0304C32.8557 43.0304 32.9488 43.0304 32.9954 42.9838C33.2749 42.518 33.7407 42.3783 34.2065 42.518C34.7188 42.6577 35.2778 42.8906 35.697 43.2167C37.2807 44.5209 38.2123 46.3375 38.911 48.2006C39.0507 48.5267 38.911 48.9459 38.911 49.272C38.7246 49.272 38.5849 49.2254 38.4452 49.2254C38.4917 49.6912 38.352 50.0172 37.8396 50.1104C37.6999 50.157 37.467 50.3899 37.467 50.5296C37.4204 51.0885 36.8615 50.8091 36.6752 51.0885C36.3491 50.5762 35.8367 51.1817 35.4641 50.8556C35.1381 50.5296 34.6723 50.2501 34.4394 49.8309C33.927 48.9459 33.4612 48.0143 33.1817 47.0828C33.042 46.5704 32.8091 46.2443 32.4365 46.058C31.8309 45.6854 31.3186 45.2196 31.0391 44.5675C30.713 44.0551 30.6665 44.0551 31.3652 43.403Z" fill="#1E1E1E"/>
<path d="M55.1668 28.6376C55.1668 28.4979 55.1202 28.3582 55.1668 28.1719C55.2134 28.0787 55.3531 27.9855 55.3997 27.8924C55.3997 27.7992 55.3066 27.6595 55.3066 27.5198C55.3066 27.4266 55.4463 27.2869 55.4463 27.1937C55.3997 27.054 55.26 26.9142 55.1668 26.8211C55.0737 26.7745 54.9339 26.7745 54.7942 26.7279C54.8873 27.0074 54.9339 27.2403 54.9805 27.4266C54.5147 27.1471 54.0489 26.9142 54.2352 26.2621C54.4216 26.3553 54.6079 26.4019 54.8408 26.495C54.9339 25.7032 54.1887 26.1224 53.9092 25.7497C54.3284 25.7963 54.6079 25.5169 55.0271 25.5634C55.2134 25.61 55.4929 25.1908 55.7723 24.9113C56.1916 25.2374 56.6573 25.61 57.1697 26.0758C57.2163 25.7497 57.2629 25.5169 57.3095 25.2374C57.915 25.0976 58.5671 25.0045 59.1726 24.8647C59.4987 25.284 59.7316 25.6566 60.0576 25.9826C60.3371 26.2621 60.7097 26.4484 60.9426 26.7279C61.6879 27.5198 62.0139 28.5911 62.2934 29.5692C62.3866 29.9419 62.5263 30.5008 61.8276 30.594C61.8276 31.2461 61.1289 31.3392 60.8029 31.805C60.3837 32.3174 59.685 32.4105 58.9397 32.1311C57.8218 31.6653 57.03 30.7803 56.3313 29.8953C55.9121 29.5692 55.4929 29.15 55.1668 28.6376Z" fill="#1E1E1E"/>
<path d="M76.0811 45.1268C76.2674 45.1733 76.5003 45.2665 76.7332 45.3597C76.7798 44.2883 75.6619 44.0089 75.5221 43.0307C75.755 43.1239 75.9413 43.1704 76.0811 43.2636C76.314 43.4499 76.4537 43.6362 76.7332 43.9157C76.64 43.4033 76.5935 43.2636 76.2674 42.891C76.9195 42.0991 76.9195 42.0991 77.7114 42.0991C78.1306 42.5649 78.5032 43.217 79.0621 43.5896C79.6677 43.9623 79.854 44.6144 80.3198 45.0802C80.739 45.4994 81.0185 46.1049 81.3445 46.6639C81.4843 46.9899 81.624 47.3626 81.5774 47.6886C81.5308 48.1078 81.3445 48.7133 81.065 48.8065C80.5992 48.9928 80.6924 49.3189 80.5527 49.6449C80.3664 50.0176 80.0869 50.4368 79.5745 50.5299C79.295 50.5765 78.9224 50.8094 78.6895 50.7162C78.1306 50.4833 77.6182 50.1573 77.199 49.7381C76.4537 48.9462 75.8016 48.0612 75.1495 47.1762C75.0098 46.9433 75.0563 46.5707 75.0098 46.1049C75.2427 46.2912 75.2892 46.3378 75.4756 46.4775C75.3358 45.7323 75.8948 45.4994 76.0811 45.1268Z" fill="#1E1E1E"/>
<path d="M69.42 91.7055C69.094 91.5192 68.9077 91.426 68.7213 91.3329C68.4419 92.3576 68.3487 92.4042 67.5103 92.0315C67.7432 92.5439 67.9295 92.9631 68.1158 93.4289C67.8829 93.5687 67.65 93.7084 67.4637 93.8015C67.0445 93.3823 66.6253 92.9631 66.1595 92.4973C65.88 93.1029 66.6253 93.3823 66.5787 93.9879C65.88 94.081 65.5074 93.6152 65.1348 93.196C64.9019 92.9631 64.8087 92.6371 64.5758 92.4042C63.5977 91.426 62.7126 90.3547 61.8742 89.1902C61.7811 89.0971 61.6879 89.0039 61.5947 88.9108C61.0824 88.445 60.57 87.9792 60.5234 87.2339C61.0358 86.9544 61.2687 87.4202 61.5947 87.6997C61.9208 87.1407 61.129 87.0476 61.1755 86.6284C61.2221 86.116 62.1537 86.7681 61.9208 85.9297C62.4332 85.9297 62.8524 85.9297 63.3182 85.9297C63.6908 86.2092 64.11 86.4886 64.4827 86.7681C64.8553 87.0476 65.1348 87.4668 65.6005 87.6997C66.0663 87.9326 66.3924 88.445 66.765 88.8176C67.0445 89.0505 67.1842 89.3765 67.65 89.4697C67.9761 89.5629 68.1158 90.0286 68.5816 89.9355C68.7213 89.9355 68.9542 90.1684 69.0008 90.3081C69.2337 90.7739 69.2803 91.1 69.42 91.7055Z" fill="#1E1E1E"/>
<path d="M60.6631 6.74559C61.0824 6.79217 61.4084 6.55927 61.781 6.83875C61.5947 6.93191 61.4084 6.97848 61.2687 7.02506C61.4084 7.53743 61.5947 8.0498 61.6879 8.56217C61.7345 8.70191 61.6413 8.9348 61.5481 8.98138C61.0358 9.21428 60.896 9.72665 60.4768 10.0527C60.2905 10.1924 60.0576 10.239 59.8247 10.239C59.7316 10.239 59.5918 10.0993 59.4521 10.0993C59.3124 10.0993 59.1726 10.239 59.0329 10.3322C58.8 9.54033 58.8466 9.54033 57.9616 9.26086C57.4492 9.07454 57.356 8.56217 56.9834 8.2827C56.8902 8.46901 56.8437 8.60875 56.7505 8.79507C56.6108 8.65533 56.4245 8.51559 56.4245 8.42244C56.4245 6.93191 56.4245 6.88533 55.7258 5.95375C55.3531 6.65243 56.0984 7.02506 56.145 7.72375C55.9587 7.67717 55.6792 7.72375 55.6326 7.63059C55.3066 6.83875 54.7942 6.09348 55.3066 5.1619C55.4463 4.88243 55.4929 4.69611 55.8655 4.69611C56.0984 4.69611 56.3313 4.55637 56.5176 4.46322C57.03 4.13716 57.4958 3.81111 58.0547 3.43848C58.1945 3.62479 58.2876 3.81111 58.241 3.76453C58.6602 4.044 59.126 3.25216 59.1726 4.09058C59.1726 4.32348 59.7316 3.76453 59.7316 4.37006C59.7316 4.60295 60.1508 4.83585 60.3837 5.06874C60.2905 5.25506 60.2439 5.48796 60.1508 5.67427C60.1974 5.72085 60.2905 5.76743 60.3371 5.81401C60.4302 5.58111 60.57 5.3948 60.7097 5.11532C60.9426 5.48796 61.0824 5.72085 61.2221 6.00032C61.0824 6.18664 60.896 6.46612 60.6631 6.74559Z" fill="#1E1E1E"/>
<path d="M17.9967 44.7075C17.7172 44.3348 17.4843 44.0554 17.2049 43.7293C17.0651 44.0088 16.972 44.1485 16.8788 44.3814C16.413 44.1485 16.0404 43.7759 15.7609 43.3567C15.1554 42.4717 14.643 41.5401 14.0375 40.6551C13.6648 40.0961 13.6183 39.444 13.758 38.7454C14.317 38.6056 14.4567 39.3043 14.9225 39.4906C14.9225 39.0714 14.9225 38.6988 14.9225 38.233C15.8541 38.0932 16.6925 38.0001 17.5309 37.8604C18.3693 38.6056 18.9283 39.444 19.3475 40.3756C19.5804 40.9346 20.0462 41.3072 20.1859 41.9593C20.2325 42.1922 19.9064 42.5183 20.3256 42.7046C20.3256 42.7046 20.2325 42.984 20.1859 42.984C19.5338 42.7512 19.3475 43.6827 18.742 43.543C18.6954 43.543 18.6022 43.7759 18.5556 43.9156C18.5091 44.0554 18.4625 44.1951 18.3693 44.3348C18.3227 44.428 18.2296 44.5212 17.9967 44.7075Z" fill="#1E1E1E"/>
<path d="M46.1305 60.0317C46.3168 60.4509 46.4565 60.777 46.6428 61.1962C46.7826 60.8702 46.8292 60.7304 46.8757 60.5907C46.9223 60.6373 47.0155 60.6373 47.0155 60.6838C47.1086 61.1031 47.3415 61.4757 47.6676 61.8017C47.8539 61.9881 47.9936 62.2675 48.1334 62.5004C48.3663 62.9196 48.6923 63.2457 49.2047 63.3388C49.2978 63.1525 49.391 63.0128 49.391 62.9196C49.6239 63.106 49.9034 63.2923 50.0897 63.432C50.0897 63.5717 50.0897 63.6649 50.0897 63.6649C49.8568 63.8046 49.6239 63.9444 49.391 64.0841C49.4376 64.4102 49.5307 64.7362 49.5773 65.202C49.2047 65.0157 48.9718 64.9225 48.6923 64.7828C48.506 65.1089 48.3663 65.4349 48.18 65.8075C47.9936 65.8075 47.8073 65.8541 47.5744 65.9007C47.5744 66.087 47.5744 66.3199 47.5744 66.4596C46.9223 66.9254 46.4099 66.8789 45.851 66.3665C45.2455 65.8075 44.5468 65.3417 43.9413 64.6896C44.2207 64.5033 44.4536 64.3636 44.7331 64.1773C44.5934 63.6649 44.3605 63.1991 43.9878 62.7799C43.6152 62.3141 43.4289 61.7552 43.1494 61.2428C43.522 60.777 43.8015 61.1031 44.1742 61.2894C44.1742 61.1496 44.2673 61.0099 44.2207 60.9167C43.9878 60.3578 44.081 60.0783 44.5934 60.0317C45.1057 60.0317 45.6181 60.0317 46.1305 60.0317Z" fill="#1E1E1E"/>
<path d="M9.93859 65.0623C10.1715 65.3883 10.3112 65.6212 10.5441 65.9473C10.5907 65.761 10.6839 65.6678 10.6373 65.5746C10.5441 65.1089 10.451 64.6431 10.3112 64.1307C10.6373 64.1307 10.8236 64.1307 11.0565 64.1307C11.1031 64.2704 11.1962 64.4102 11.336 64.7362C11.336 64.2704 11.336 63.991 11.336 63.7115C11.4757 63.6649 11.6154 63.6649 11.7086 63.5717C11.8949 63.432 12.221 63.106 12.2675 63.106C12.5936 63.3854 12.9662 63.1991 13.2923 63.3389C13.7581 63.5252 14.2239 63.8512 14.1773 64.4102C14.1773 64.5965 13.9444 64.7828 13.991 64.9225C14.0375 65.0623 14.3636 65.0623 14.4568 65.202C14.5499 65.2952 14.5499 65.6212 14.4568 65.6678C14.1307 65.9473 14.1773 66.2733 14.2239 66.5994C14.2704 67.0186 14.0841 67.2515 13.7115 67.3447C13.3389 67.4378 13.2457 67.6707 13.1525 68.0433C13.0594 68.5557 12.6868 68.8818 12.0812 68.8818C11.8949 68.8818 11.662 68.8818 11.4757 68.9283C10.9633 69.0215 10.3578 68.9283 10.1715 68.5557C9.79885 67.6707 9.23991 66.7857 9.33306 65.7144C9.42622 65.3883 9.7057 65.2486 9.93859 65.0623Z" fill="#1E1E1E"/>
<path d="M50.6955 42.2386C51.0215 42.3318 51.3476 42.4249 51.7668 42.5647C51.9531 42.1454 51.9997 41.7728 51.6271 41.4002C52.0928 40.981 52.3723 41.5865 52.7915 41.5399C52.8381 41.307 52.8847 41.0741 52.9313 40.8412C53.2573 40.4686 53.5834 41.1673 54.0026 40.8412C54.4218 40.5152 54.515 41.2139 54.8876 41.307C55.0739 41.3536 55.2602 41.5399 55.4 41.7262C55.8658 42.3318 55.9589 43.1236 56.611 43.636C56.7507 43.7757 56.7042 44.1949 56.7042 44.5675C56.0055 44.1949 55.9589 45.3594 55.2602 45.0799C55.0273 45.406 55.2602 46.0581 54.4684 46.1047C54.3752 45.9649 54.2821 45.732 54.0957 45.4526C53.956 45.7786 53.8629 45.9183 53.7697 46.1047C53.3505 46.1978 53.1176 45.8252 52.9778 45.5923C52.5121 44.8004 51.9065 44.1949 51.1147 43.7291C50.6489 43.4031 50.3694 42.9373 50.6955 42.2386Z" fill="#1E1E1E"/>
<path d="M44.5005 8.46877C43.895 8.93456 43.4758 9.30719 42.8703 9.7264C42.6374 9.7264 42.2182 9.7264 41.799 9.7264C41.3797 9.12087 41.24 8.32903 40.6345 7.81666C40.5879 6.97824 39.9824 6.46587 39.47 5.86034C39.3303 5.67402 39.3303 5.30139 39.2837 4.97534C39.47 4.92876 39.6563 4.92876 39.7495 4.8356C40.7276 3.90402 41.6592 4.41639 42.4045 5.06849C43.0566 5.58086 43.6155 6.27955 44.0813 7.02481C44.4074 7.44403 44.4074 8.04955 44.5005 8.46877Z" fill="#1E1E1E"/>
<path d="M1170.09 306.332C1169.4 308.251 1168.73 310.171 1167.3 311.758C1166.46 312.717 1165.76 313.862 1165.21 315.043C1164.99 315.449 1164.62 315.596 1164.4 315.966C1163.89 316.851 1163.7 317.848 1163.08 318.697C1161.64 320.616 1160.21 322.573 1158.7 324.455C1157.71 325.71 1156.76 327.002 1155.73 328.22C1153.78 330.471 1151.32 332.022 1148.6 333.092C1145.44 334.347 1142.32 335.713 1139.09 336.746C1133.06 338.666 1126.93 339.441 1120.57 338.702C1116.75 338.26 1113 337.521 1109.73 335.565C1104.44 332.391 1100.11 328.22 1097.06 322.831C1096.95 322.646 1096.8 322.462 1096.65 322.24C1095.4 320.542 1094.26 318.771 1093.71 316.704C1093.42 315.67 1093.01 314.674 1092.54 313.714C1091.18 310.835 1091.43 307.919 1092.54 305.04C1093.64 302.124 1095.51 299.651 1097.61 297.473C1100.4 294.558 1101.72 291.162 1102.13 287.249C1102.53 283.595 1101.87 280.089 1101.24 276.545C1100.84 274.368 1100.51 272.19 1100.07 270.012C1099.37 266.506 1097.79 263.405 1096.14 260.268C1094.01 256.208 1092.35 251.926 1091.36 247.423C1090.52 243.658 1090.96 239.93 1092.21 236.387C1092.94 234.32 1093.9 232.326 1095.44 230.666C1096.95 229.041 1098.49 227.454 1100.29 226.162C1104.62 223.062 1109.4 220.884 1114.47 219.297C1120.28 217.488 1125.9 215.348 1130.82 211.694C1134.49 208.999 1137.98 206.083 1141.33 202.983C1145.88 198.775 1150.66 194.862 1156.17 191.983C1161.57 189.141 1167.16 186.964 1173.25 187C1182.48 187.074 1190.34 190.359 1195.92 197.963C1200.04 203.573 1200.74 210.033 1199.38 216.75C1199.12 217.968 1198.9 219.186 1198.6 220.404C1197.87 223.505 1196.62 226.347 1194.78 228.968C1193.72 230.481 1192.54 231.957 1191.48 233.471C1190.23 235.242 1188.79 236.866 1187.36 238.454C1185.67 240.299 1184.2 242.255 1182.77 244.285C1182.29 244.987 1181.48 245.43 1181.01 246.168C1179.21 249.047 1177.33 251.889 1176.05 255.063C1175.35 256.761 1174.65 258.459 1174.5 260.378C1174.43 261.56 1174.5 262.741 1174.39 263.922C1174.25 265.694 1174.54 267.428 1174.83 269.126C1174.94 269.791 1174.14 270.307 1174.32 270.381C1175.24 270.64 1174.58 271.156 1174.61 271.525C1174.61 271.747 1174.47 272.005 1174.54 272.19C1175.38 275.696 1175.02 279.277 1175.09 282.857C1175.16 286.142 1175.46 289.501 1174.58 292.749C1174.25 293.93 1174.03 295.148 1173.66 296.329C1173.25 297.732 1172.48 299.061 1172.37 300.537C1172.19 302.604 1171.16 304.339 1170.39 306.221C1170.35 306.221 1170.17 306.295 1170.09 306.332C1170.17 305.262 1171.09 304.45 1171.09 303.305C1170.31 304.966 1169.36 306.517 1168.96 308.325C1169.36 307.661 1169.73 306.996 1170.09 306.332ZM1143.38 209.59C1144.6 208.851 1145.55 207.818 1146.51 206.784C1145.52 207.744 1144.23 208.445 1143.38 209.59C1142.5 209.922 1141.95 210.66 1141.33 211.288C1142.14 210.882 1142.83 210.328 1143.38 209.59ZM1155.21 194.309C1155.4 194.235 1155.62 194.235 1155.77 194.124C1159.99 191.873 1164.4 190.064 1169.07 188.957C1169.25 188.92 1169.47 188.92 1169.58 188.661C1169.25 188.698 1168.96 188.735 1168.66 188.809C1164.77 189.473 1161.17 190.987 1157.68 192.722C1156.83 193.201 1155.88 193.534 1155.21 194.309C1154.19 194.419 1153.56 195.268 1152.64 195.638C1152.5 195.711 1152.31 196.007 1152.57 196.228C1152.64 196.302 1152.75 196.376 1152.83 196.265C1153.34 195.268 1154.59 195.195 1155.21 194.309ZM1127.18 334.605C1127.84 334.605 1128.5 334.679 1129.17 334.605C1131.85 334.31 1134.49 333.83 1137.14 333.313C1141.07 332.575 1144.71 330.877 1148.42 329.512C1150.14 328.884 1151.76 327.998 1152.94 326.485C1156.79 321.428 1159.88 316.003 1162.09 309.986C1163.85 305.188 1166.13 300.611 1168 295.849C1169.32 292.454 1170.2 288.91 1170.57 285.256C1170.9 282.229 1170.72 279.166 1170.72 276.139C1170.72 273.629 1170.68 271.119 1170.87 268.609C1170.98 266.838 1170.57 264.992 1170.42 263.184C1170.17 260.009 1170.2 256.835 1171.16 253.735C1172.04 250.892 1173.25 248.161 1174.76 245.577C1177.81 240.373 1181.59 235.759 1185.6 231.256C1187.73 228.857 1189.86 226.421 1191.62 223.726C1194.89 218.78 1196.44 213.318 1196.33 207.375C1196.22 202.761 1194.2 199.144 1190.23 196.708C1183.32 192.463 1176.01 191.098 1168.18 193.681C1162.12 195.674 1156.72 198.849 1151.76 202.909C1148.68 205.419 1145.85 208.261 1142.8 210.771C1138.61 214.203 1134.35 217.562 1129.42 219.888C1125.6 221.696 1121.6 222.988 1117.56 224.169C1114.1 225.203 1110.83 226.568 1107.71 228.377C1104.15 230.481 1101.1 233.139 1099 236.793C1098.75 237.236 1098.75 237.236 1098.19 237.236C1098.01 237.236 1098.01 237.383 1097.94 237.494C1097.42 238.527 1097.06 239.635 1097.06 240.816C1097.06 241.628 1097.35 242.772 1097.09 243.141C1096.21 244.396 1096.87 245.577 1097.06 246.611C1097.24 247.903 1097.61 249.231 1097.97 250.56C1098.97 253.808 1100.11 257.02 1101.72 260.009C1103.19 262.741 1104.62 265.509 1105.06 268.646C1105.18 269.532 1106.28 270.566 1105.1 271.525C1105.1 271.525 1105.18 271.599 1105.21 271.673C1105.84 272.633 1106.13 273.703 1106.17 274.774C1106.2 275.807 1106.57 276.804 1106.64 277.837C1106.72 279.498 1107.34 281.159 1106.98 282.857C1106.83 283.632 1106.87 284.481 1106.87 285.293C1106.87 287.102 1106.24 288.799 1106.17 290.608C1106.13 291.272 1105.54 292.158 1105.21 292.933C1104.04 295.702 1101.98 297.843 1100.18 300.131C1098.49 302.309 1096.58 304.45 1096.39 307.439C1096.32 308.657 1095.95 309.912 1096.58 311.056C1098.23 314.083 1099.11 317.553 1101.39 320.284C1103.15 322.388 1104.37 324.972 1106.53 326.817C1108.67 328.626 1110.69 330.545 1113.11 331.874C1114.32 332.538 1115.54 333.203 1116.93 333.498C1120.31 334.384 1123.73 334.679 1127.18 334.605ZM1167.01 300.943C1166.02 304.339 1164.07 307.218 1163.08 310.503C1164.29 309.617 1167.49 302.05 1167.01 300.943ZM1128.17 215.237C1131.55 213.687 1134.38 211.398 1137.1 208.888C1134.27 210.992 1131.48 213.133 1128.47 214.979C1128.36 215.052 1128.25 215.126 1128.17 215.237ZM1095.77 232.843C1097.42 231.072 1099.11 229.337 1100.88 227.676C1098.75 229.005 1097.09 230.776 1095.77 232.843ZM1092.83 308.067C1093.23 306.959 1093.49 305.815 1093.82 304.671C1093.16 305.704 1092.79 306.849 1092.83 308.067ZM1094.89 235.169C1094.81 234.91 1094.7 234.799 1094.45 234.836C1094.04 234.91 1093.82 235.169 1093.79 235.575C1093.79 235.796 1093.9 235.833 1094.08 235.796C1094.48 235.722 1094.67 235.427 1094.89 235.169Z" fill="#1E1E1E"/>
<path d="M1154.88 289.722C1154.85 289.464 1154.88 289.242 1154.63 289.132C1154.59 289.501 1154.3 289.87 1154.77 290.202C1155.07 290.387 1154.77 290.719 1154.7 290.94C1154.04 293.007 1153.38 295.111 1152.75 297.215C1152.13 299.208 1151.43 301.164 1150.95 303.194C1150.73 304.228 1150.22 305.151 1149.85 306.11C1149.67 306.553 1149.52 306.959 1149.52 307.439C1149.52 308.436 1149.45 308.436 1148.56 307.919C1148.49 307.882 1148.38 307.919 1148.27 307.882C1148.27 307.993 1148.23 308.104 1148.27 308.177C1148.86 309.137 1148.71 310.281 1148.05 311.204C1147.61 311.795 1147.21 312.422 1147.02 313.234C1146.73 314.452 1145.92 315.375 1144.96 316.187C1144.89 316.261 1144.67 316.224 1144.67 316.408C1144.63 317.405 1143.83 317.885 1143.24 318.475C1142.65 319.029 1141.95 319.435 1141.44 320.063C1140.52 321.133 1139.49 322.019 1138.2 322.72C1137.62 323.052 1137.03 323.68 1136.37 323.938C1133.98 324.898 1131.63 325.931 1129.2 326.817C1125.09 328.294 1121.05 327.851 1117.01 326.891C1114.62 326.3 1112.45 325.23 1110.47 323.754C1109.69 323.2 1109.11 322.499 1108.48 321.797C1106.09 319.14 1104.44 316.076 1103.6 312.607C1103.04 310.392 1103.41 308.214 1104.51 306.221C1104.81 305.704 1105.03 305.003 1106.02 305.114C1106.46 305.151 1106.87 304.376 1107.2 303.859C1109.55 300.279 1111.46 296.44 1113 292.417C1114.62 288.209 1116.05 283.927 1116.56 279.387C1116.97 276.102 1116.53 272.928 1115.72 269.754C1115.1 267.207 1113.77 265.066 1112.27 262.999C1111.13 261.449 1110.14 259.825 1109 258.238C1108.59 257.684 1109.11 257.315 1109.22 256.613C1108.59 257.462 1108.52 257.278 1108.26 256.577C1108 255.875 1107.53 255.248 1107.16 254.583C1106.35 253.144 1105.91 251.594 1105.87 250.007C1105.87 249.416 1105.54 248.899 1105.62 248.309C1105.73 247.57 1105.76 246.832 1105.98 246.131C1106.35 244.913 1106.57 243.584 1107.78 242.772C1108.11 242.551 1107.93 241.812 1108.3 241.406C1109.91 239.672 1111.42 237.826 1113.44 236.534C1118.22 233.471 1123.25 230.85 1128.51 228.672C1132.18 227.159 1135.67 225.203 1138.53 222.361C1142.8 218.19 1147.24 214.24 1151.83 210.439C1156.21 206.858 1160.84 203.758 1166.2 201.838C1168.44 201.026 1170.76 200.547 1173.14 200.399C1176.52 200.177 1179.1 201.728 1181.04 204.311C1184.83 209.257 1185.71 214.831 1184.28 220.847C1183.28 224.871 1181.85 228.746 1179.83 232.363C1178.88 234.061 1177.96 235.796 1176.38 237.088C1175.64 237.715 1175.24 238.749 1174.65 239.598C1172.67 242.477 1170.17 244.913 1168.22 247.792C1167.34 249.084 1166.6 250.413 1165.76 251.741C1163.96 254.583 1162.71 257.721 1161.39 260.784C1160.21 263.479 1159.77 266.432 1159.33 269.311C1158.85 272.448 1158.37 275.585 1157.86 278.723C1157.57 280.531 1157.35 282.377 1156.68 284.075C1156.24 285.256 1156.21 286.511 1155.69 287.655C1155.33 288.283 1155.66 289.169 1154.88 289.722ZM1112.52 295.739C1112.82 295.628 1112.89 295.333 1112.96 295.111C1113.88 292.933 1114.91 290.793 1115.54 288.504C1115.9 287.175 1116.53 285.883 1116.53 284.444C1115.87 286.991 1114.76 289.353 1113.96 291.826C1113.52 293.192 1112.74 294.373 1112.52 295.739C1111.42 297.289 1110.83 299.097 1109.91 300.721C1110.87 299.134 1112.05 297.621 1112.52 295.739ZM1113.55 259.788C1113.55 259.677 1113.55 259.493 1113.63 259.419C1113.77 259.308 1113.81 259.493 1113.92 259.566C1114.18 259.825 1114.07 260.268 1114.4 260.526C1115.02 261.043 1115.46 261.67 1115.76 262.482C1116.01 263.147 1116.75 263.663 1117.23 264.254C1117.34 264.402 1117.48 264.623 1117.34 264.808C1117.08 265.177 1117.3 265.287 1117.59 265.361C1117.96 265.472 1118.14 265.73 1118.25 266.063C1118.7 267.207 1119.28 268.277 1119.43 269.532C1119.5 270.344 1119.65 271.304 1119.94 271.894C1120.79 273.518 1120.79 275.253 1120.72 276.914C1120.64 278.391 1120.35 279.941 1120.42 281.417C1120.5 282.709 1119.83 283.743 1119.65 284.961C1119.43 286.4 1118.44 287.692 1118.22 289.205C1118.11 290.128 1117.12 290.829 1117.12 291.568C1117.15 293.266 1115.65 294.188 1115.39 295.702C1115.32 296.182 1115.1 296.92 1114.69 297.4C1113.81 298.359 1113.59 299.651 1112.67 300.611C1111.53 301.792 1110.94 303.416 1109.73 304.597C1109 305.298 1108.45 306.221 1107.82 307.033C1107.23 307.771 1107.31 308.916 1107.12 309.912C1106.87 311.315 1107.67 312.422 1108.04 313.677C1108.92 316.667 1110.72 319.103 1112.85 321.096C1117.01 324.972 1122 326.264 1127.55 324.233C1128.1 324.012 1128.69 323.827 1129.24 323.643C1132.58 322.536 1135.45 320.653 1138.13 318.402C1141.62 315.412 1143.27 311.278 1145.22 307.328C1145.88 305.963 1146.18 304.265 1146.69 302.752C1147.06 301.718 1147.43 300.648 1147.65 299.577C1147.9 298.507 1148.23 297.436 1148.53 296.403C1148.86 295.333 1149.3 294.336 1149.56 293.266C1149.78 292.306 1150.25 291.457 1150.44 290.497C1150.7 289.169 1151.14 287.877 1151.47 286.548C1152.75 281.823 1153.71 277.025 1154.3 272.19C1154.63 269.495 1154.85 266.764 1155.4 264.143C1157.2 255.58 1161.13 248.013 1166.53 241.222C1168.96 238.195 1171.49 235.279 1174.03 232.326C1177.66 228.119 1179.61 223.099 1181.08 217.821C1182 214.536 1181.85 211.324 1180.64 208.15C1179.94 206.341 1178.95 204.828 1176.78 204.496C1174.8 204.164 1172.85 204.644 1170.94 204.976C1169.8 205.197 1168.59 205.714 1167.49 206.268C1164.77 207.596 1162.05 208.814 1159.7 210.734C1159.15 211.177 1158.45 211.251 1157.9 211.693C1157.2 212.284 1156.68 213.059 1155.91 213.576C1155.47 213.871 1154.92 213.908 1154.52 214.277C1151.91 216.713 1148.93 218.743 1146.58 221.475C1145.77 222.434 1144.74 223.21 1143.86 224.095C1140.52 227.417 1136.59 229.89 1132.18 231.514C1126.78 233.508 1121.74 236.165 1117.04 239.45C1115.24 240.705 1113.29 241.886 1112.01 243.769C1111.27 244.876 1110.28 245.983 1110.17 247.238C1109.99 249.121 1109.8 251.04 1110.43 252.922C1110.58 253.365 1110.32 253.993 1110.39 254.14C1110.76 254.731 1110.98 255.395 1111.38 255.949C1112.23 257.13 1113.4 258.164 1113.55 259.788ZM1150.7 293.229C1149.67 295.296 1149.01 297.547 1148.42 299.762C1147.79 302.05 1146.95 304.228 1146.21 306.48C1145.52 308.583 1144.52 310.613 1143.64 312.644C1147.35 306.627 1148.71 299.836 1150.7 293.229ZM1152.2 211.73C1156.54 208.298 1161.09 205.271 1166.2 203.13C1162.86 203.573 1153.6 209.7 1152.2 211.73ZM1113.63 237.752C1111.02 239.524 1108.7 241.554 1107.6 244.655C1109.36 242.145 1111.35 239.819 1113.63 237.752ZM1105.25 306.738C1104.15 307.845 1103.63 311.278 1104.37 311.979C1104.59 310.207 1104.59 308.436 1105.25 306.738ZM1148.68 214.868C1148.6 214.794 1148.53 214.72 1148.45 214.646C1146.58 216.381 1144.52 217.931 1142.87 219.961C1144.82 218.227 1146.73 216.566 1148.68 214.868ZM1136.22 225.756C1138.39 224.501 1140.11 222.73 1141.77 220.884C1139.89 222.508 1138.09 224.169 1136.22 225.756Z" fill="#1E1E1E"/>
<path d="M1160.36 242.108C1160.73 242.698 1160.58 243.104 1160.36 243.695C1159.77 245.134 1158.59 246.242 1158.37 247.829C1158.3 248.382 1157.86 248.825 1157.57 249.305C1156.87 250.523 1156.76 251.963 1156.13 253.144C1155.55 254.288 1155.29 255.506 1154.7 256.613C1154.37 257.204 1154.48 257.942 1154.08 258.496C1153.78 258.865 1153.12 261.264 1153.01 261.707C1152.83 262.851 1152.57 263.996 1152.35 265.14C1152.31 265.324 1152.24 265.546 1151.94 265.509C1151.65 265.472 1151.54 265.583 1151.65 265.841C1152.06 266.764 1151.58 267.576 1151.21 268.314C1150.18 270.418 1149.3 272.596 1148.38 274.736C1148.2 275.179 1147.39 275.032 1147.68 275.881C1147.83 276.324 1147.35 277.062 1147.02 277.616C1146.69 278.169 1146.47 278.76 1146.18 279.313C1144.01 283.447 1142.03 287.692 1140.15 291.974C1139.12 294.336 1137.87 296.624 1136.77 298.987C1136.48 299.577 1136.29 300.242 1136.11 300.869C1135.93 301.46 1135.67 302.272 1134.97 302.641C1134.82 302.715 1134.75 302.752 1134.71 302.899C1133.83 305.631 1131.52 307.07 1129.42 308.694C1127.95 309.838 1126.12 310.54 1124.43 311.315C1123.4 311.795 1122.41 312.607 1121.19 312.754C1119.98 312.939 1118.77 313.16 1117.52 313.16C1116.31 313.197 1115.21 312.902 1114.21 312.201C1113.7 311.831 1113.63 311.389 1113.85 310.798C1114.4 309.358 1115.24 308.14 1116.56 307.292C1117.08 306.959 1117.59 306.664 1117.92 306.147C1118.14 305.778 1118.55 306.258 1118.99 305.815C1120.57 304.265 1121.52 302.382 1122.52 300.5C1124.57 296.587 1126.15 292.454 1127.62 288.32C1128.28 286.511 1128.62 284.628 1128.91 282.746C1129.09 281.565 1129.2 280.347 1129.31 279.166C1129.35 278.612 1129.57 278.169 1130.27 278.501C1130.67 278.686 1130.78 278.391 1131 278.206C1131.15 278.058 1131.11 277.874 1130.97 277.763C1130.75 277.542 1130.53 277.763 1130.34 277.874C1129.57 278.243 1129.35 278.022 1129.39 277.173C1129.5 274.884 1129.53 272.559 1128.95 270.307C1128.65 269.163 1128.25 268.093 1127.7 267.059C1126.12 264.069 1124.06 261.375 1122.26 258.533C1120.94 256.466 1119.58 254.362 1119.28 251.815C1119.21 251.225 1118.73 250.486 1119.58 250.006C1119.61 249.97 1119.65 249.896 1119.65 249.859C1119.5 247.533 1119.58 247.46 1121.16 245.836C1122.19 244.765 1123.43 244.027 1124.68 243.436C1129.35 241.296 1133.28 238.121 1137.14 234.762C1141.84 230.665 1146.1 226.089 1150.99 222.25C1156.32 218.005 1162.45 215.126 1168.92 213.133C1172.34 212.063 1174.87 214.646 1174.14 218.227C1173.4 221.807 1172.04 225.129 1170.24 228.303C1168.18 231.957 1165.83 235.39 1163.55 238.896C1162.93 239.856 1162.42 240.89 1161.64 241.775C1161.31 242.255 1161.02 242.661 1160.36 242.108ZM1124.72 298.359C1125.01 298.322 1125.09 298.101 1125.2 297.916C1126.52 295.333 1127.48 292.564 1128.69 289.944C1129.28 288.689 1129.06 287.138 1130.01 286.031C1130.16 285.847 1130.12 285.662 1129.9 285.551C1129.61 285.404 1129.42 285.625 1129.39 285.883C1129.24 286.843 1128.8 287.692 1128.47 288.578C1127.66 290.903 1126.96 293.229 1125.86 295.443C1125.42 296.329 1124.9 297.289 1124.72 298.359C1123.95 299.466 1123.36 300.648 1122.88 301.939C1123.47 300.721 1124.54 299.762 1124.72 298.359ZM1150.62 228.746C1149.45 229.263 1148.86 230.407 1148.01 231.293C1146.91 231.957 1146.29 233.101 1145.29 233.877C1143.6 235.242 1141.84 236.534 1140.26 238.011C1136.96 241.074 1133.32 243.547 1129.31 245.503C1127.81 246.242 1126.08 246.389 1124.79 247.644C1124.02 248.419 1123.07 249.047 1122.99 250.228C1122.88 252 1123.18 253.734 1124.02 255.358C1125.6 258.311 1127.73 260.932 1129.61 263.7C1131.55 266.579 1133.28 269.532 1133.72 273.112C1134.13 276.545 1133.91 279.941 1133.69 283.374C1133.65 284.075 1133.17 284.739 1133.17 285.514C1133.13 286.622 1133.13 287.877 1132.44 288.799C1131.15 290.46 1130.75 292.454 1129.9 294.299C1129.64 294.89 1129.79 295.775 1129.28 296.255C1128.58 296.883 1128.39 297.695 1128.06 298.433C1127.92 298.728 1127.73 299.024 1127.51 299.282C1126.74 300.057 1126.26 301.054 1125.75 301.903C1124.72 303.6 1123.54 305.114 1122.08 306.443C1121.67 306.812 1120.97 306.775 1120.75 307.365C1120.5 307.956 1120.02 308.399 1119.54 308.805C1119.03 309.211 1118.81 309.765 1118.59 310.429C1118.95 310.54 1119.17 310.392 1119.43 310.281C1120.94 309.728 1122.22 308.731 1123.69 308.067C1126.26 306.885 1128.39 305.188 1130.12 302.936C1131.41 301.238 1132.25 299.319 1133.17 297.436C1134.97 293.672 1136.84 289.944 1138.53 286.142C1139.49 284.001 1140.48 281.897 1141.55 279.83C1143.31 276.361 1144.85 272.817 1146.4 269.274C1147.61 266.432 1148.64 263.479 1149.3 260.452C1149.89 257.795 1150.88 255.285 1151.87 252.738C1153.75 247.939 1155.66 243.141 1158.74 238.933C1161.5 235.168 1164.33 231.404 1166.82 227.454C1168.7 224.501 1170.31 221.438 1171.12 217.968C1171.2 217.599 1171.49 217.119 1171.16 216.861C1170.9 216.639 1170.46 216.935 1170.13 217.082C1166.6 218.485 1163.26 220.146 1159.99 222.028C1159.4 222.361 1158.89 223.136 1157.97 222.767C1157.86 222.73 1157.57 222.877 1157.64 223.062C1157.9 223.616 1157.38 223.616 1157.16 223.726C1155.88 224.575 1154.59 225.461 1153.34 226.347C1152.28 227.011 1151.58 228.045 1150.62 228.746ZM1131.59 302.604C1132.29 301.46 1133.13 300.426 1133.72 299.171C1135.01 296.329 1136.51 293.561 1137.76 290.682C1139.6 286.4 1141.55 282.155 1143.79 278.058C1143.94 277.8 1144.05 277.542 1143.68 277.173C1139.2 285.514 1135.96 294.336 1131.59 302.604ZM1150.37 224.317C1152.97 222.397 1155.66 220.552 1158.52 219.039C1161.42 217.488 1164.4 216.049 1167.38 214.683C1161.31 217.156 1155.29 219.777 1150.37 224.317ZM1142.32 231.994C1142.25 231.92 1142.21 231.847 1142.14 231.736C1139.34 234.135 1136.59 236.571 1133.8 238.97C1133.87 239.044 1133.91 239.118 1133.98 239.192C1136.77 236.793 1139.56 234.393 1142.32 231.994ZM1124.68 244.654C1122.59 245.06 1120.46 247.017 1120.68 248.346C1121.67 246.685 1123.14 245.614 1124.68 244.654ZM1143.83 276.84C1143.94 276.877 1144.01 276.951 1144.12 276.988C1144.45 276.139 1145.37 275.512 1144.93 274.367C1144.56 275.179 1144.19 276.028 1143.83 276.84Z" fill="#1E1E1E"/>
<path d="M1150.62 228.746C1150.03 229.89 1149.12 230.665 1148.01 231.293C1148.86 230.407 1149.45 229.263 1150.62 228.746Z" fill="#1E1E1E"/>
<path d="M1048.5 234.601C1048.59 234.687 1048.64 234.716 1048.7 234.773C1048.79 234.486 1048.79 234.226 1048.56 233.996C1048.7 233.996 1048.76 233.996 1048.82 233.996C1048.84 233.967 1048.9 233.91 1048.9 233.881C1048.84 233.622 1048.96 233.363 1049.07 233.161C1049.22 232.931 1049.48 232.758 1049.39 232.412C1049.39 232.384 1049.39 232.355 1049.39 232.326C1049.88 231.98 1049.94 231.318 1050.34 230.915C1050.49 230.771 1050.49 230.973 1050.63 231.002C1050.69 230.426 1050.6 229.792 1051.15 229.274C1051.15 229.274 1051.29 229.245 1051.41 229.245C1051.49 229.216 1051.46 229.188 1051.41 229.13C1051.23 228.986 1051.23 228.784 1051.38 228.669C1051.78 228.237 1051.93 227.69 1052.18 227.201C1052.65 226.279 1053.22 225.444 1053.74 224.552C1054.26 223.659 1054.8 222.795 1055.38 221.932C1056.13 220.809 1056.88 219.657 1057.66 218.563C1058.17 217.843 1058.69 217.123 1059.15 216.374C1059.61 215.655 1060.19 215.021 1060.68 214.33C1061.25 213.524 1061.92 212.775 1062.46 211.94C1062.72 211.508 1063.15 211.192 1063.44 210.789C1064.57 209.234 1065.98 207.938 1067.33 206.585C1067.56 206.354 1067.82 206.066 1068.28 206.095C1068.14 206.527 1067.99 206.901 1067.68 207.189C1067.21 207.621 1066.78 208.082 1066.35 208.514C1066.12 208.744 1065.86 208.917 1065.69 209.176C1065.52 209.435 1065.29 209.608 1065.11 209.867C1064.94 210.126 1064.74 210.328 1064.54 210.558C1064.22 210.99 1063.85 211.364 1063.47 211.768C1063.01 212.286 1062.69 212.89 1062.26 213.409C1061.8 213.927 1061.43 214.532 1061 215.079C1060.85 215.252 1060.65 215.367 1060.68 215.655C1060.68 215.77 1060.51 215.914 1060.39 216C1059.99 216.346 1059.73 216.835 1059.44 217.267C1059.15 217.728 1058.86 218.188 1058.55 218.62C1057.68 219.916 1056.85 221.212 1055.96 222.479C1055.38 223.285 1055.01 224.206 1054.4 224.984C1054.4 225.358 1053.97 225.444 1053.88 225.79C1053.83 226.049 1053.71 226.337 1053.48 226.567C1053.31 226.74 1053.11 226.913 1053.02 227.143C1052.9 227.402 1052.82 227.633 1052.67 227.863C1052.53 228.093 1052.41 228.353 1052.24 228.554C1052.07 228.756 1052.01 229.044 1051.84 229.245C1051.75 229.36 1051.81 229.591 1051.61 229.591C1051.41 229.591 1051.38 229.706 1051.41 229.85C1051.46 230.109 1051.26 230.31 1051.18 230.541C1051.06 230.598 1050.92 230.483 1050.77 230.627C1051.03 231.088 1050.57 231.462 1050.6 231.894C1050.14 231.98 1050.31 232.47 1050.11 232.7C1049.88 232.959 1049.94 233.305 1049.74 233.564C1049.42 233.996 1049.25 234.514 1049.05 235.004C1048.82 235.464 1048.61 235.925 1048.36 236.357C1048.24 236.53 1048.27 236.616 1048.44 236.789C1047.89 237.019 1048.18 237.854 1047.49 237.998C1047.55 238.085 1047.64 238.171 1047.64 238.229C1047.46 238.718 1047.38 239.208 1047.12 239.668C1046.92 240.014 1046.71 240.417 1046.71 240.82C1046.71 241.022 1046.6 241.194 1046.51 241.281C1046.02 241.972 1045.97 242.778 1045.76 243.555C1045.59 244.16 1045.36 244.765 1045.19 245.341C1044.93 246.089 1044.64 246.809 1044.5 247.587C1044.41 248.047 1044.18 248.508 1044.06 248.969C1043.98 249.314 1043.81 249.631 1043.86 249.976C1043.92 250.235 1043.63 250.408 1043.66 250.696C1043.66 250.811 1043.46 251.013 1043.55 251.157C1043.66 251.358 1043.2 251.416 1043.49 251.589C1043.37 251.934 1043.35 252.309 1043.14 252.597C1042.86 253.086 1042.88 253.633 1042.74 254.151C1042.51 254.986 1042.6 255.879 1042.25 256.714C1042.39 257.088 1041.93 257.463 1042.25 257.837C1042.34 257.923 1042.11 258.067 1042.08 258.24C1041.96 259.133 1041.73 260.025 1041.79 260.947C1041.79 261.148 1041.53 261.321 1041.76 261.522C1041.5 261.724 1041.65 262.012 1041.62 262.242C1041.59 262.473 1041.7 262.761 1041.59 262.933C1041.33 263.394 1041.7 263.797 1041.62 264.229C1041.53 264.603 1041.7 265.006 1041.44 265.352C1041.42 265.41 1041.42 265.525 1041.44 265.582C1041.7 265.87 1041.62 266.216 1041.59 266.533C1041.53 267.08 1041.82 267.569 1041.76 268.116C1041.76 268.174 1041.91 268.26 1042.02 268.375C1042.02 267.857 1042.19 267.368 1041.93 266.878C1041.88 266.763 1041.91 266.59 1041.91 266.417C1041.91 265.496 1041.93 264.575 1041.91 263.682C1041.91 263.279 1042.14 262.905 1042.08 262.501C1042.02 262.127 1041.96 261.666 1042.11 261.35C1042.25 260.975 1042.11 260.572 1042.28 260.256C1042.45 259.91 1042.31 259.536 1042.39 259.19C1042.57 258.47 1042.54 257.693 1042.71 256.973C1042.86 256.368 1042.94 255.764 1043.11 255.188C1043.14 255.044 1042.88 254.986 1043.11 254.842C1043.26 254.756 1043.14 254.555 1043.17 254.411C1043.17 254.267 1043.37 254.238 1043.35 254.094C1043.29 253.921 1043.49 253.806 1043.49 253.691C1043.52 253.316 1043.58 252.942 1043.63 252.568C1043.78 251.848 1043.98 251.128 1044.15 250.408C1044.5 250.178 1044.15 249.775 1044.41 249.487C1044.61 249.285 1044.55 248.911 1044.61 248.623C1044.84 247.673 1045.1 246.751 1045.42 245.83C1045.65 245.197 1045.94 244.563 1046.02 243.872C1046.05 243.584 1046.22 243.267 1046.37 243.008C1046.74 242.202 1046.94 241.367 1047.23 240.532C1047.38 240.129 1047.58 239.784 1047.75 239.409C1048.01 238.776 1048.12 238.113 1048.5 237.509C1048.73 237.135 1048.73 236.587 1049.13 236.271C1048.96 235.839 1049.42 235.608 1049.48 235.234C1049.54 234.86 1049.82 234.543 1049.94 234.169C1050.05 233.823 1050.23 233.507 1050.4 233.19C1050.57 232.873 1050.77 232.556 1050.95 232.24C1051.06 232.24 1051.15 232.24 1051.32 232.24C1051.26 232.067 1051.12 231.894 1051.18 231.721C1051.23 231.606 1051.35 231.635 1051.44 231.606C1051.46 231.549 1051.49 231.52 1051.49 231.462C1051.49 230.915 1051.7 230.426 1051.98 230.023C1052.5 229.303 1052.79 228.497 1053.19 227.777C1053.68 226.913 1054.23 226.049 1054.69 225.185C1055.24 224.149 1055.96 223.199 1056.53 222.191C1056.91 221.471 1057.43 220.837 1057.89 220.146C1058.46 219.283 1059.1 218.448 1059.64 217.584C1060.1 216.864 1060.62 216.231 1061.11 215.539C1061.6 214.848 1062.06 214.129 1062.64 213.495C1063.13 212.919 1063.53 212.286 1063.99 211.71C1064.48 211.048 1065.03 210.443 1065.52 209.752C1065.83 209.32 1066.21 208.859 1066.61 208.456C1067.3 207.765 1067.96 207.074 1068.65 206.412C1068.74 206.326 1068.8 206.182 1069 206.21C1069.2 206.412 1069.09 206.614 1068.91 206.815C1069.29 206.901 1069.32 206.527 1069.58 206.527C1069.72 206.556 1069.75 206.7 1069.86 206.758C1069.6 206.844 1069.92 207.045 1069.78 207.132C1069.63 207.247 1069.75 207.449 1069.55 207.506C1069.58 207.679 1069.78 207.535 1069.86 207.765C1069.63 208.082 1069.37 208.428 1069.09 208.773C1068.88 209.003 1068.65 209.205 1068.51 209.493C1068.4 209.723 1068.05 209.838 1068.11 210.184C1068.11 210.242 1067.99 210.242 1067.93 210.299C1067.56 210.558 1067.21 211.077 1067.01 211.595C1066.9 211.883 1066.7 212.142 1066.52 212.401C1066.21 212.833 1065.83 213.265 1065.54 213.726C1065.49 213.812 1065.4 213.841 1065.31 213.898C1064.91 214.129 1064.62 214.445 1064.51 214.935C1064.45 215.194 1064.36 215.252 1064.08 215.539C1063.93 215.683 1063.82 215.856 1063.73 216C1063.27 216.634 1062.87 217.325 1062.41 217.958C1062.12 218.332 1062.15 218.88 1061.72 219.167C1061.8 219.513 1061.46 219.628 1061.31 219.858C1060.97 220.406 1060.48 220.924 1060.3 221.557C1060.25 221.788 1059.84 221.644 1059.96 221.96C1059.58 222.479 1059.38 223.083 1059.01 223.602C1058.86 223.803 1058.61 223.976 1058.58 224.177C1058.52 224.609 1057.97 224.811 1058.06 225.3C1057.63 225.502 1057.63 225.934 1057.45 226.279C1057.34 226.567 1057.02 226.711 1056.96 227.086C1056.94 227.402 1056.68 227.69 1056.5 227.978C1056.33 228.266 1056.07 228.525 1056.01 228.871C1055.61 228.928 1055.61 229.332 1055.5 229.591C1055.35 229.879 1055.12 230.109 1055.12 230.454C1055.12 230.714 1054.66 230.656 1054.8 231.03C1054.89 231.261 1054.63 231.433 1054.55 231.635C1054.46 231.837 1054.46 232.096 1054.11 232.096C1054.03 232.096 1053.91 232.24 1053.85 232.355C1053.6 232.758 1053.57 233.334 1053.08 233.593C1053.11 233.881 1052.85 234.111 1052.82 234.342C1052.76 235.119 1052.27 235.695 1051.95 236.357C1051.72 236.847 1051.7 237.422 1051.23 237.797C1051.32 238.2 1050.92 238.459 1050.89 238.833C1050.83 239.265 1050.49 239.553 1050.43 239.985C1050.37 240.388 1050.11 240.734 1049.97 241.137C1049.94 241.194 1049.85 241.252 1049.77 241.338C1049.97 242.029 1049.22 242.576 1049.33 243.383C1049.48 243.066 1049.59 242.864 1049.74 242.548C1049.77 243.267 1049.36 243.757 1049.25 244.304C1049.13 244.851 1048.84 245.398 1048.67 245.945C1048.47 246.492 1048.21 247.011 1048.1 247.587C1047.95 248.162 1047.69 248.681 1047.58 249.257C1047.46 249.832 1047.23 250.379 1047.06 250.955C1046.94 250.955 1046.83 250.984 1046.71 250.984C1046.4 251.387 1046.57 251.906 1046.34 252.309C1046.31 252.366 1046.37 252.481 1046.34 252.539C1045.99 252.971 1046.08 253.518 1045.88 254.007C1045.65 254.497 1045.76 255.044 1045.56 255.533C1045.33 256.109 1045.33 256.743 1045.13 257.319C1045.02 257.607 1045.19 257.981 1044.93 258.269C1045.02 258.73 1044.84 259.161 1044.76 259.622C1044.7 260.025 1044.58 260.4 1044.61 260.803C1044.24 261.091 1044.67 261.609 1044.3 261.926C1044.24 261.983 1044.3 262.127 1044.3 262.242C1044.35 262.905 1044.15 263.538 1044.06 264.171C1044.04 264.373 1044.24 264.517 1044.15 264.719C1043.83 265.525 1044.06 266.36 1043.98 267.166C1043.95 267.512 1044.04 267.799 1044.21 268.087C1044.24 268.059 1044.3 268.03 1044.32 268.001C1044.76 268.116 1044.84 268.462 1044.76 268.807C1044.67 269.095 1044.35 269.066 1044.09 269.038C1043.95 269.297 1043.83 269.613 1043.46 269.527C1043.23 269.469 1043.09 269.613 1042.88 269.7C1042.68 269.585 1042.51 269.412 1042.31 269.383C1041.88 269.354 1041.68 269.066 1041.5 268.75C1041.33 268.433 1041.24 268.087 1041.16 267.713C1040.93 266.705 1041.04 265.726 1041.01 264.719C1040.98 263.711 1041.01 262.732 1041.01 261.724C1041.01 261.379 1041.24 261.062 1041.19 260.687C1041.16 260.342 1041.04 259.968 1041.33 259.651C1041.21 259.075 1041.56 258.557 1041.5 257.981C1041.44 257.261 1041.65 256.541 1041.82 255.85C1041.85 255.706 1041.85 255.505 1041.91 255.39C1041.99 255.217 1041.99 255.015 1041.96 254.871C1041.91 254.554 1042.11 254.295 1042.16 254.007C1042.19 253.691 1042.31 253.403 1042.28 253.115C1042.42 253 1042.54 253.086 1042.6 252.884C1042.34 252.597 1042.45 252.28 1042.57 251.906C1042.8 251.186 1042.97 250.437 1043.06 249.66C1043.09 249.429 1043.17 249.199 1043.26 248.969C1043.46 248.393 1043.66 247.817 1043.69 247.126C1043.78 247.068 1043.89 246.982 1043.98 246.924C1044.01 246.751 1043.81 246.78 1043.89 246.636C1044.01 246.348 1044.18 246.06 1044.15 245.715C1044.15 245.657 1044.15 245.629 1044.18 245.571C1044.24 245.427 1044.61 245.398 1044.32 245.139C1044.61 245.024 1044.38 244.707 1044.58 244.534C1044.7 244.419 1044.73 244.16 1044.76 243.987C1044.78 243.786 1044.93 243.642 1044.96 243.44C1044.99 243.037 1045.42 242.749 1045.25 242.346C1045.3 242.202 1045.45 242.26 1045.53 242.202C1045.48 241.943 1045.68 241.223 1045.94 240.849C1045.99 240.878 1046.08 240.906 1046.17 240.964C1046.2 240.906 1046.22 240.849 1046.22 240.82C1046.14 240.59 1045.94 240.388 1046.2 240.158C1046.22 239.611 1046.48 239.121 1046.71 238.661C1046.92 238.257 1047.03 237.854 1047.15 237.422C1047.26 237.019 1047.64 236.731 1047.64 236.3C1048.07 235.752 1048.07 235.09 1048.5 234.601ZM1052.9 232.844C1052.76 232.7 1053.08 232.729 1052.93 232.585C1052.79 232.47 1052.88 232.297 1052.82 232.153C1052.79 232.096 1052.76 232.067 1052.7 232.124C1052.59 232.297 1052.76 232.528 1052.62 232.7C1052.53 232.729 1052.44 232.729 1052.39 232.758C1052.47 233.017 1052.79 233.103 1052.85 233.334C1052.73 233.737 1052.44 233.651 1052.16 233.679C1052.13 233.679 1052.1 233.737 1052.07 233.766C1052.18 233.91 1052.39 233.737 1052.47 233.852C1052.7 234.198 1052.24 234.082 1052.24 234.37C1052.24 234.342 1052.41 234.313 1052.33 234.428C1052.21 234.514 1052.01 234.37 1051.9 234.543C1052.01 234.975 1051.9 235.292 1051.46 235.839C1051.49 235.868 1051.55 235.925 1051.58 235.954C1051.52 236.098 1051.32 235.983 1051.26 236.127C1051.21 236.271 1051.38 236.328 1051.41 236.443C1050.98 237.163 1050.98 237.163 1050.95 237.595C1050.77 237.739 1050.51 237.941 1050.28 238.142C1050.17 238.373 1050.43 238.488 1050.46 238.632C1050.23 238.833 1050.03 239.092 1050.03 239.409C1050.03 239.64 1049.91 239.784 1049.85 239.985C1049.71 240.417 1049.54 240.849 1049.39 241.281C1049.36 241.367 1049.33 241.482 1049.51 241.511C1049.65 241.281 1049.77 241.079 1049.85 240.791C1050.03 240.215 1050.23 239.64 1050.49 239.092C1050.74 238.545 1050.83 237.941 1051.23 237.451C1051.32 237.336 1051.38 237.135 1051.44 236.991C1051.72 236.127 1052.16 235.292 1052.56 234.486C1052.79 234.025 1053.11 233.622 1053.13 233.075C1053.13 233.017 1053.11 232.988 1053.11 232.931C1053.02 232.902 1052.93 232.844 1052.9 232.844Z" fill="#1E1E1E"/>
<path d="M1054.09 211.509C1054.11 211.825 1053.77 212.113 1054 212.43C1054.2 212.516 1054.26 212.315 1054.4 212.228C1054.37 211.768 1054.55 211.393 1054.78 210.99C1055.01 210.587 1055.35 210.271 1055.52 209.81C1055.7 209.378 1056.01 209.004 1056.27 208.629C1056.53 208.226 1056.82 207.852 1057.08 207.478C1057.28 207.161 1057.48 206.844 1057.71 206.556C1058.29 205.894 1058.78 205.174 1059.33 204.483C1059.61 204.109 1059.93 203.821 1060.22 203.447C1060.71 202.813 1061.31 202.295 1061.8 201.661C1062.32 200.999 1062.98 200.452 1063.53 199.79C1064.74 198.321 1066.18 197.083 1067.5 195.701C1067.7 195.471 1067.93 195.269 1068.16 195.039C1068.63 194.549 1069.09 194.002 1069.75 193.772C1070.01 193.686 1069.89 193.398 1070.15 193.254C1070.38 193.138 1070.64 192.908 1070.84 192.649C1071.02 192.39 1071.3 192.217 1071.53 192.016C1071.79 191.756 1072.11 191.526 1072.4 191.267C1072.69 191.238 1073 191.181 1073.29 191.152C1073.35 191.152 1073.38 191.065 1073.41 191.008C1073.35 190.864 1073.09 191.037 1073.12 190.72C1073.32 190.461 1073.58 190.173 1074.01 190C1074.1 190.029 1074.04 190.173 1074.07 190.23C1074.13 190.288 1074.24 190.346 1074.1 190.461C1073.95 190.576 1074.18 190.605 1074.18 190.691C1074.01 190.864 1073.78 190.691 1073.61 190.777C1073.38 191.008 1073.78 191.065 1073.69 191.267C1073.55 191.411 1073.32 191.497 1073.09 191.584C1073.09 191.67 1073.09 191.785 1073.09 191.872C1072.71 192.275 1072.08 192.361 1071.91 192.937C1071.82 193.225 1071.42 193.138 1071.33 193.484C1071.27 193.714 1070.96 193.772 1070.73 193.887C1070.58 193.916 1070.55 193.772 1070.44 193.743C1070.27 194.031 1070.61 194.089 1070.7 194.29C1070.58 194.405 1070.44 194.549 1070.32 194.665C1070.27 194.607 1070.21 194.578 1070.15 194.521C1070.01 194.693 1069.72 194.665 1069.6 194.895C1069.55 195.068 1069.66 195.125 1069.75 195.212C1069.66 195.298 1069.6 195.356 1069.52 195.442C1069.46 195.384 1069.4 195.356 1069.35 195.298C1069.23 195.701 1069.23 195.701 1068.91 196.047C1068.71 196.047 1068.91 195.73 1068.54 195.759C1068.34 195.845 1068.51 196.421 1068.05 196.421C1068.11 196.507 1068.16 196.565 1068.25 196.709C1067.96 196.939 1067.73 197.227 1067.47 197.457C1067.16 197.688 1067.01 198.033 1066.7 198.264C1066.58 198.264 1066.41 198.264 1066.21 198.264C1066.21 198.523 1065.89 198.638 1065.86 198.868C1065.75 199.646 1065.11 200.02 1064.62 200.452C1064.45 200.625 1064.19 200.711 1064.13 200.97C1064.11 201.057 1064.08 201.114 1063.99 201.114C1063.59 201.114 1063.39 201.345 1063.36 201.719C1063.33 201.92 1063.21 202.036 1063.01 202.036C1062.67 202.036 1062.58 202.324 1062.44 202.468C1062.44 202.755 1062.69 202.583 1062.75 202.755C1062.55 202.784 1062.55 203.216 1062.2 202.986C1062.18 202.986 1062 203.101 1062 203.187C1062 203.475 1061.89 203.677 1061.66 203.821C1061.72 204.195 1061.43 204.397 1061.2 204.569C1060.91 204.829 1060.71 205.174 1060.51 205.462C1060.25 205.836 1059.96 206.153 1059.56 206.383C1059.44 206.441 1059.35 206.556 1059.27 206.614C1059.3 206.93 1059.24 207.132 1059.07 207.362C1058.46 208.111 1057.86 208.86 1057.4 209.723C1057.25 210.011 1056.96 210.127 1056.68 210.155C1056.47 210.184 1056.42 210.328 1056.33 210.386C1056.5 210.875 1055.96 211.221 1056.19 211.653C1055.96 211.797 1055.78 211.681 1055.58 211.768C1055.47 212.171 1055.35 212.632 1055.21 213.063C1055.27 213.207 1055.47 213.063 1055.52 213.294C1055.5 213.467 1055.24 213.668 1055.41 214.042C1055.24 213.87 1055.18 213.841 1055.12 213.783C1054.98 213.841 1055.12 214.042 1054.95 214.1C1054.72 214.129 1054.66 213.898 1054.55 213.812C1054.34 213.927 1054.11 214.014 1053.91 214.129C1053.71 213.956 1053.83 213.841 1053.94 213.726C1053.85 213.611 1053.8 213.467 1053.6 213.467C1053.39 213.467 1053.57 213.697 1053.39 213.783C1053.02 213.38 1053.54 212.92 1053.25 212.488C1053.42 212.372 1053.54 212.286 1053.65 212.171C1053.6 212.085 1053.54 212.056 1053.48 211.998C1053.6 211.768 1053.71 211.509 1053.85 211.278C1053.85 211.278 1053.91 211.278 1053.94 211.278C1054.03 211.365 1054.09 211.422 1054.09 211.509Z" fill="#1E1E1E"/>
<path d="M1054.08 211.509C1054.08 211.394 1054.03 211.336 1053.94 211.365C1053.88 210.789 1054.26 210.386 1054.52 209.954C1054.92 209.234 1055.41 208.543 1055.87 207.852C1056.22 207.334 1056.62 206.844 1056.99 206.355C1057.51 205.664 1058.09 205.059 1058.55 204.339C1058.84 203.936 1059.21 203.591 1059.56 203.188C1060.02 202.64 1060.42 202.036 1060.97 201.575C1061.25 201.316 1061.54 201.086 1061.72 200.711C1061.8 200.539 1061.95 200.395 1062.18 200.337C1062.29 200.308 1062.32 200.049 1062.46 199.905C1063.7 198.552 1064.97 197.227 1066.29 195.932C1067.1 195.125 1067.99 194.406 1068.8 193.628C1069.46 192.995 1070.15 192.419 1070.87 191.872C1071.16 191.67 1071.36 191.325 1071.76 191.238C1071.91 191.382 1071.88 191.526 1071.74 191.584C1070.96 192.073 1070.27 192.678 1069.66 193.369C1069.46 193.599 1069.14 193.686 1068.94 193.916C1068.77 194.118 1068.6 194.348 1068.31 194.434C1068.14 194.492 1067.93 194.693 1067.88 194.866C1067.76 195.154 1067.5 195.269 1067.33 195.5C1067.16 195.73 1066.93 195.845 1066.73 196.047C1066.44 196.306 1066.29 196.709 1065.89 196.853C1065.86 197.256 1065.4 197.256 1065.29 197.515C1065.14 197.832 1064.85 197.918 1064.65 198.149C1064.48 198.379 1064.31 198.609 1064.08 198.811C1063.85 199.012 1063.62 199.243 1063.41 199.473C1063.18 199.704 1062.95 199.905 1062.75 200.135C1062.55 200.366 1062.38 200.625 1062.18 200.826C1061.74 201.316 1061.4 201.834 1060.94 202.295C1060.42 202.756 1060.02 203.36 1059.58 203.907C1059.15 204.454 1058.75 205.059 1058.26 205.549C1057.89 205.923 1057.74 206.441 1057.31 206.729C1057.28 207.103 1056.88 207.276 1056.73 207.593C1056.62 207.823 1056.42 208.14 1056.13 208.284C1055.99 208.37 1055.99 208.773 1055.84 208.831C1055.55 208.917 1055.64 209.119 1055.55 209.263C1055.5 209.378 1055.44 209.551 1055.35 209.637C1054.89 210.184 1054.57 210.818 1054.29 211.48C1054.2 211.509 1054.14 211.509 1054.08 211.509Z" fill="#1E1E1E"/>
</g>
</svg>
